<?xml version="1.0" encoding="utf-8"?>
<!-- Generator: Adobe Illustrator 22.0.0, SVG Export Plug-In . SVG Version: 6.00 Build 0)  -->
<svg version="1.1" id="Layer_1" xmlns="http://www.w3.org/2000/svg" xmlns:xlink="http://www.w3.org/1999/xlink" x="0px" y="0px"
	 viewBox="0 0 595.9 595.3" style="enable-background:new 0 0 595.9 595.3;" xml:space="preserve">
<style type="text/css">
	.st00{fill:transparent}
	.st0{fill:#C6ECE5;}
	.st1{fill:#FCFBEE;}
	.st2{fill:#535C46;}
	.st3{fill:#C8F0E9;}
	.st4{fill:#C27B7C;}
	.st5{fill:#FDFEFD;}
	.st6{fill:#FCFEFD;}
	.st7{fill:#FCFDFD;}
	.st8{fill:#FBFDFD;}
	.st9{fill:#C8EFE9;}
	.st10{fill:#FAFDFC;}
	.st11{fill:#503634;}
	.st12{fill:#624B47;}
	.st13{fill:#FEFEF6;}
	.st14{fill:#535142;}
	.st15{fill:#3F4436;}
	.st16{fill:#C7C6BC;}
	.st17{fill:#393E2F;}
	.st18{fill:#383D2F;}
	.st19{fill:#FDFEF4;}
	.st20{fill:#452422;}
	.st21{fill:#FEFDF3;}
	.st22{fill:#C27A7B;}
</style>
<g>
	<g>
		<path class="st00" d="M299.5,1.3c97.8,0,195.7,0,293.5-0.1c3.4,0,4.1,0.7,4.1,4.1c-0.1,195.3-0.1,390.7,0,586c0,3.4-0.7,4.1-4.1,4.1
			c-195.7-0.1-391.3-0.1-587,0c-3.4,0-4.1-0.7-4.1-4.1C2,395.9,2,200.6,1.9,5.3c0-3.4,0.7-4.1,4.1-4.1
			C103.8,1.3,201.7,1.3,299.5,1.3z"/>
		<path class="st0" d="M490.1,224.2c3.2-0.7,5.8,0.8,8,2.8c16.4,14.5,27.7,31.9,32,53.8c3.7,18.9,1.3,36.8-6.5,54.2
			c-2,4.5-2,7.9,2,11.6c9.4,8.8,14.2,20.2,17.2,32.5c0.6,2.4,0.4,4.3-3.3,4.2c-12.5-0.3-25-0.1-37.5-0.1c-3.2,0-6.1,0.2-6.1,4.5
			c0,4.3,2.8,4.6,6.1,4.6c12.8-0.1,25.7,0.1,38.5-0.1c2.9,0,3.9,0.8,3.4,3.6c-1.7,12-5.4,23.2-12.9,33
			c-10.4,13.6-23.6,22.3-40.6,25.6c-9.5,1.8-18.6,0.8-27.7-1.4c-3.6-0.9-4.5,0.3-6,2.8c-7.7,12.8-18.2,22.7-31.8,29
			c-18.9,8.7-37.9,9-57,0.6c-7.5-3.3-14.2-7.7-20-13.5c-2.2-2.2-4.2-2.5-6.7,0.5c-18.3,21-40.9,35.3-68.2,40.7
			c-30.5,6.1-59.4,1-86.3-15.3c-22.1-13.4-37.8-32.1-48.7-55.2c-0.6-1.3-1.4-2.6-1-4.2c0.4-0.3,0.8-0.5,1.2-0.5
			c2.2,0.2,4.4,0.3,6.7-0.1c1.8,0.1,3.6,0,5.4,0c2.3,0.3,4.6,0.3,7-0.1c3.6,0.6,7.2,0,10.7-0.7c2.3,0.9,4.7,1.2,7.1,1
			c7.7,0.1,15.3,0.1,23,0c10.6-0.1,19.8-7.2,22.1-16.9c2.6-10.7-2-21.4-11.7-26.2c-3.9-1.9-5.5-4.4-6.2-8.6
			c-2.2-13-16.4-21.2-28.9-17c-7.3,2.4-7.3,2.4-12.1-3.3c-6.2-7.4-14.2-11.1-23.9-9.6c-10.4,1.7-17.6,7.8-20.8,17.9
			c-1.5,4.6-3.3,6.8-8.4,5.9c-2.8-0.5-5.5,1.1-8,2.3c-1.6,0.8-2.9,2.4-5,1.7c-1.6-3.4-5.4-3.9-8.1-5.6c-16.5-10.4-25.9-25.7-30-44.2
			c-3.2-14.3-0.3-28.1,5.5-41.4c1.2-2.7,3-2.6,5.2-2.6c16,0,32,0,48,0c3.2,0,6.1-0.2,6.2-4.5c0-4.3-2.8-4.6-6.1-4.6
			c-15.1,0.1-30.2,0-46.1,0c10.1-11.6,21.1-20.8,35.8-23.8c6-1.2,5.5-5.7,6.2-9.3c5.7-28.4,21.8-48.9,47.1-62.2
			c13.2-7,27.7-10.3,42.8-9.6c6.4,0.3,12.9,1.3,19.1,3.3c4.2,1.3,6.8,1.2,8.3-4.3c6.9-23.8,20.3-43.7,39-59.7
			c17.2-14.8,37.2-24.1,59.9-27.6c7.8-1.2,15.6-2.3,23.5-1.9c21.2,1.1,41.1,6.7,59.4,17.5c10.2,6,19.4,13.4,27.2,22.3
			c0.9,1.8-0.1,3.2-0.9,4.6c-2,3.5-3.4,7.2-4.2,11.1c-1.1,4.9-2.1,5.4-6.9,4.6c-13.1-2.4-21.2,1.3-27.6,13.1
			c-1.6,2.9-3.9,3.7-6.8,4.3c-14,2.7-22.5,11.4-24.7,25.1c-2.1,13.6,6.3,27.2,19.7,31.4c2.1,0.7,4.2,1.1,6.2,1.9
			c2.1,0.8,4.3,0.5,6.4,0.5c27.8,0,55.6,0,83.4,0C485.4,222.9,488,222.4,490.1,224.2z"/>
		<path class="st1" d="M503.7,221.3c-2.1,2.7-8.9,2.7-11.7,0c-1.6-1.1-1.8-3.3-3.5-4.2c-0.3-0.1-0.7-0.2-1-0.2
			c-30.7-0.2-61.4-0.4-92.1,0.1c-9,1.2-19-5.8-22.7-15c-5.6-13.8,3.2-30.9,20.3-33.8c1.5-0.3,3-0.2,4.6-0.3c2.9-0.1,3.6-2.2,4.7-4.4
			c3.2-6.4,7.7-11.5,15-13.3c1.5-0.2,3.1-0.2,4.6,0c3.6,0.8,6.9,2.3,9.9,4.5c1.3,1,2.7,2.4,4.4,1.5c1.9-1.1,1.5-3.2,1.2-5
			c-1-7.3,0.7-13.8,5.4-19.5c2.2-1.6,4.1-3.5,5.6-5.7c8.9-8.1,25.1-8.1,33,1.1c4.5,5.2,9.6,9.6,10.8,16.9c0.6,3.9,2.5,4.3,5.5,1.6
			c3.7-3.3,7.8-5.6,12.6-6.9c7.1-1.9,13.7-0.6,19,4.6c4,3.9,8.8,7.2,10.1,13.3c1.6,7.6,1.3,8.4-5.7,11c-6.2,2.5-8.6,4.8-10.3,10.7
			c3.3-4,6.6-8,11.8-9.6c7.8-1.7,14.4,0.3,20,6c4,4.1,7.8,7.9,8.7,14.1c2.3,14-8.7,27.9-23,28.7c-0.6,0-1.1-0.1-1.6-0.3
			c-10.6-1-21.2-0.4-31.8-0.3C505.3,217.6,504.6,219.5,503.7,221.3z"/>
		<path class="st2" d="M541,216.5c15.8-2.2,25.1-17.6,21-29.8c-2.9-8.7-14.7-20-27-16.5c-0.9-0.9-2-1.7-2.3-3.1
			c0.2-0.9,0.6-1.8,1.5-1.8c6.4,0,4.9-3.5,3.8-7.5c-3-11.1-13-19.1-24-18.1c-6,0.5-11.5,2.7-15.4,7.6c-1.4,1.8-3.1,2.5-5.2,2.1
			c-2.3-0.4-2.3-2.5-2.5-4.3c-1.9-13.8-17.1-25.4-27.5-23.7c-5.3,0.9-10.4,1.8-14.4,5.7c-1.9,1.5-3.7,3-4.9,5.1
			c-4,5.3-6,11-5.2,17.8c0.3,2.6,1.6,6.2-1.1,7.8c-3.2,1.9-5.9-0.7-8.2-2.9c-2.1-2.1-4.9-2.7-7.5-3.6c-1.7-0.9-3.4-0.9-5.1,0
			c-6.6,3.3-12.5,7.1-14.1,15.1c-0.4,2.2-2.2,3.7-4.9,2.8c-1.7-0.8-3.4-0.9-5,0c-1.5,0.6-3,1.3-4.6,1.8
			c-9.5,2.5-15.3,12.1-15.8,20.2c-0.6,10.1,4.5,18.7,13.8,22.7c2.5,1.1,4.7,2.9,7.7,2.2c0.6-0.1,1.3-0.1,1.9,0.1
			c31.1,0.2,62.2,0.2,93.2,0c0.6-0.2,1.2-0.2,1.8,0.1c0.1,1.7,2.1,3,1,5c-1,0.4-1.7,1.1-2.1,2.1c-1.1,0.6-2.3,0.4-3.4,0.4
			c-30.6,0-61.1,0-91.7,0c-1.3,0-2.7,0.4-3.8-0.6c-10.2-2.5-18.1-7.7-22.7-17.5c-8.8-18.8,3.5-41.1,24.1-43.1
			c2.9-0.3,4.1-1.2,5.3-3.9c4.6-10.9,16.5-16.7,27.9-13.3c4.9,1.4,6.2,0,6.5-4.5c0.4-5.4,3.9-9.8,6.1-14.6c4.1-1.3,6.3-5,10-7
			c18.2-10,39.2-2.8,47.3,16.6c1.2,2.9,1.6,3.4,4.5,1.4c16.4-11.2,40.2-1.4,44.8,18.4c1.1,5,2.7,8,7.8,10.3
			c12.9,5.9,17.6,17.2,17.2,27.9c-0.4,13.3-9.5,24.5-21.8,27.8c-3.6,1-7.5,1.4-11.3,1.5c-8.5,0.2-17,0-25.5,0.1
			c-2.8,0-5.2-0.4-7.5-2c-2.1-2.3,0.4-3.5,1.3-5c0.5-0.3,1.1-0.4,1.6-0.2C518.1,216.5,529.5,216,541,216.5z"/>
		<path class="st2" d="M95.2,384c4.6-4,9.7-6.5,16-5c3.5,0.8,3-1.8,3.4-3.4c3-10.7,9.7-17.7,20.5-20.3c11.5-2.7,22.1,1.7,28.9,11.8
			c1.8,2.8,3.1,3.1,6.2,1.7c15.3-7,31.8,2.5,33.9,19.3c0.3,2.3,1.1,3.4,3.2,4.3c11.6,5.3,17.2,16.1,14.4,28.1
			c-2.4,10.6-12.4,19.3-25,18.7c-7.1-0.4-14.3-0.1-21.4-0.2c-1.9-0.7-2.5-2.1-2.1-3.9c0.5-2.1,2.1-2.9,4.1-3.1
			c4.1-0.5,8.3-0.3,12.5-0.2c4.2,0.1,8.3-0.3,12.4-1.4c6.8-1.8,10.8-6.7,12-13.4c1.1-6.4-1.6-11.7-7-15.5c-5.8-4-14.5-3.2-16.1,4.6
			c-0.4,1.9-1.6,4.1-4.1,3.4c-2.7-0.8-2.3-3.4-1.9-5.5c0.9-4.3,3.4-7.7,7.3-9.6c3.7-1.8,4.4-4.4,3.3-8.2
			c-3.1-10.6-15.4-15.1-24.5-8.7c-0.5,0.4-1,0.8-1.6,1.2c-5,3.5-7.7,2.8-10-2.7c-2.7-6.6-7.2-11.2-14.2-12.9
			c-11.1-2.7-21.9,5-22.9,16.3c-0.1,1.5,0,3-0.3,4.5c-0.8,4.2-3.5,5.8-7.7,4.6c-9.7-2.9-11.5-2.4-16.5,6.3c-1.8,3.2-4.5,3.4-7.6,3.7
			c-10.3,1-16.5,7.7-16.1,17.3c0.4,8.2,5.6,13.4,15.2,15c0.6,0.1,1.1,0.3,1.7,0.5c12.6,0.7,25.2,0.1,37.7,0.3c1.8,0,3.7-0.1,5.5,0.1
			c4.3,0.5,5.1,1.9,3.4,6.3c-0.3,0-0.6,0.1-0.9,0.1c-1.5,0.8-3.1,1-4.8,1c-14,0-27.9,0.1-41.9,0c-12.4-0.1-22.7-9.5-24.2-22
			c-1.3-10.5,6.9-23,18.1-25.2C89.8,391,93,388.6,95.2,384z"/>
		<path class="st3" d="M391,223.1c33,0.1,65.9,0.1,98.9,0.2c0.1,0.3,0.1,0.6,0.2,0.9c-31.5,0-63,0-94.5,0
			C394.1,224.3,392.2,224.8,391,223.1z"/>
		<path class="st4" d="M342,251.3c3.9,0,7.7-0.1,11.6-0.1c3.5,3.1,7.5,3.6,12,3.5c18-0.2,36-0.1,54-0.1c1.7,0,3.3,0,5,0.1
			c6.1,0.4,8.3,3.1,7.4,9.2c-1.7,10.7-4,21.3-6,31.9c-3,16-5.9,32.1-9.5,48.1c-1.8,8.2-2.9,8.9-11.1,8.9c-6,0.1-12-0.1-18,0.4
			c4.8,0.4,9.6,0.3,14.4,0.3c1.7,0,3.3-0.1,5,0.1c5.1,0.5,6,2.6,3.1,6.9c-1.4,2.1-3.3,3.7-5.4,5.2c-5.8,4.1-12.3,5.9-19.3,6
			c-45.2,0.1-90.3,0.1-135.5,0c-6.9,0-12.3-9.5-9.3-15.7c1.2-2.4,3.5-2.4,5.6-2.4c7.5-0.2,15,0.1,22.5-0.5
			c-7.1-0.4-14.3-0.3-21.4-0.4c-7.3-0.1-8.3-0.8-9.4-8c-4.4-27.1-8.5-54.3-12.7-81.5c-1.1-7,0.5-8.6,7.7-8.7c18.5-0.1,37-0.1,55.5,0
			c4.1,0,8-0.3,11-3.5c3.3,0,6.6-0.1,9.9-0.1c0.3-0.4,0.6-0.4,1-0.1c0.3,0.1,0.6,0.1,0.9,0.1c1.6,1.2,1.4,2.9,1.4,4.6
			c0.1,12.2,0.1,24.3,0,36.5c0,1.8,0.3,4-1.5,5c-2.2,1.3-3.8-0.6-5.3-1.7c-7.6-5.6-15.1-11.5-23-16.8c-9.1-6.1-20.1-1.4-21.7,9.2
			c-0.7,5,1.3,9.2,5,12.4c15.7,13.9,31.7,27.5,47.3,41.5c9.1,8.1,15.5,8.1,24.6-0.1c16.1-14.4,32.6-28.4,48.7-42.9
			c5.6-5.1,6.9-14.1,2.7-19.4c-5.1-6.4-13-7.2-20-1.9c-7.5,5.6-14.5,11.7-22,17.3c-1.5,1.1-3,3.3-5.1,2.1c-1.7-1-1.4-3.3-1.4-5.1
			c-0.1-11.8-0.1-23.7,0-35.5C340.7,254.6,340.4,252.7,342,251.3z"/>
		<path class="st2" d="M299.1,251.2c-0.2,4.2-2.7,5.1-6.4,5.1c-20.5-0.1-41,0-61.5,0c-5.6,0-5.9,0.4-5,6
			c4.3,27.4,8.6,54.8,12.9,82.2c1.1,6.8,1,6.8,7.9,6.8c7,0,14-0.1,21,0c2,0,5.4-1.1,5.4,1.8c0,3.4-3.6,1.9-5.6,2
			c-7.7,0.2-15.3,0.2-23,0c-3.2-0.1-4,0.9-3.4,4.1c2.6,13.3,0,10.8,13.1,10.9c43.5,0.1,86.9,0.1,130.4,0c9.6,0,18-2.9,24-11
			c0.6-0.9,1.9-1.8,1.4-3c-0.6-1.6-2.3-0.9-3.5-0.9c-6.8-0.1-13.7,0-20.5-0.1c-1.6,0-3.9,0.4-3.9-1.9c0-2.4,2.3-1.9,3.9-1.9
			c7.2-0.1,14.3-0.2,21.5,0.1c3.9,0.1,5.6-1,6.4-5c4.1-21.4,8.4-42.7,12.6-64c1.2-6.2,2.3-12.4,3.5-18.6c1.1-6-0.1-7.5-6.3-7.5
			c-21.2,0-42.3-0.1-63.5,0c-3.8,0-6.6-0.7-7-5.1c0.8-3.1,3-4,6.1-4c22.3,0.1,44.7,0,67,0.1c8.9,0,14.8,7.4,13.1,16.1
			c-5.6,28.7-11.2,57.3-16.9,86c-3.6,18-18.1,29.8-36.7,29.8c-45.3,0.1-90.6,0-136,0c-5.8,0-5.8,0-4.7,5.8c0.7,3.8,1.1,7.6,2.7,11.1
			c4.6,10.2,12.6,15.9,23.8,16.2c17.2,0.4,34.3,0.2,51.5,0.2c27.8,0,55.7,0,83.5,0c1.7,0,3.4,0,5,0.4c2.2,0.5,3.3,2.1,3.2,4.4
			c-0.1,2.3-1.3,3.8-3.6,4.1c-1.5,0.2-3,0.2-4.5,0.2c-43.2,0-86.3-0.1-129.5,0.1c-14.2,0.1-26.2-3.8-34.5-16
			c-4.4-6.5-5.7-14.1-6.9-21.6c-5-31.2-10-62.5-14.9-93.8c-3.5-22.3-6.7-44.6-10.1-66.9c-2.4-15.4-8.3-20.6-24-21
			c-9.7-0.3-19.3,0-29-0.1c-4.4,0-6.9-2.8-5.6-6c0.7-1.6,1.8-2.9,3.7-2.9c13,0.1,26.1-1.2,38.9,0.7c14.3,2.1,22.5,11.4,24.9,26.7
			c1.2,7.4,2.3,14.8,3.1,22.2c0.4,3.3,1.6,4.4,5,4.4c21.3-0.1,42.7,0,64-0.1C295.3,247.2,298.1,247.5,299.1,251.2z"/>
		<path class="st1" d="M137.9,438.2c1.5-4.7-1.3-5.4-5-5.4c-12.6,0-25.2,0-37.8,0c-1.8,0-3.6-0.3-5.4-0.4c1.3-1.1,2.9-0.6,4.3-0.6
			c13.4,0,26.8-0.1,40.2,0c-13.5,0-26.9-0.1-40.4,0c-1.6,0-3.3-0.5-4.8,0.6c-9.8-0.9-16.6-8.4-16.2-18c0.3-9.4,8-17.2,17.4-17
			c4.2,0.1,6.2-1,7.7-5c2.4-6.6,9.2-8.7,15.7-5.6c5.7,2.7,7.1,1.8,7.1-4.3c-0.1-10.7,7-19.1,17.6-21c9-1.6,19,4.6,22.5,13.8
			c2.3,6.1,3.1,6.3,8.1,2.3c5.3-4.3,11.3-5.6,17.8-3c6.6,2.7,10.1,7.8,11.3,14.7c0.5,2.7-0.2,4.5-3.3,5.6c-5.1,1.8-8,5.8-8.5,11.3
			c-0.1,1.1-0.2,2.5,1.3,2.8c1.6,0.3,2-0.9,2.2-2.1c1.4-11.7,14-11.2,20.6-4.6c4.9,4.9,7.1,10.8,4.8,17.7c-2.2,7-7,11.3-14.3,12.4
			c-7.1,1.1-14.3,0.3-21.5,0.5c-5.4,0.2-6.2,1.4-3.9,6.3c-2.4-0.6-5.6,1.7-7.3-1.7c-4.9-4.3-8.5-4-11,0.9c-2.5,1.3-4.9,1.6-7.2-0.3
			c-2.9-3.9-2.9-3.9-4.8,0.4C142.6,439.7,140.2,439.9,137.9,438.2z"/>
		<path class="st2" d="M342,251.3c0,14.3-0.1,28.6-0.1,43c0,0.7,0.1,1.3,0.2,2.9c7.4-5.8,14.3-11.4,21.3-16.8
			c3.1-2.4,5.8-5.4,9.8-6.7c6.8-2.3,14.4,0.2,17.9,6c3.6,5.9,2.8,14.7-2.4,19.3c-17.6,15.5-35.2,31-53,46.3
			c-6.6,5.7-13.8,5.7-20.3,0.1c-15.4-13.2-30.6-26.6-45.9-39.9c-2.1-1.9-4.5-3.5-6.3-5.6c-5.2-5.9-5.2-14.5-0.1-20
			c5.6-6.1,13.4-7.1,20.2-2.2c8.4,6,16.6,12.2,24.9,18.4c0.6,0.5,1.3,0.8,2.8,1.8c0-15.9,0-31.1,0-46.3c0-26.9,0-53.9,0.1-80.8
			c0-10.6,7.3-17.2,17.6-16.2c7.8,0.8,13.1,7.5,13.2,17.2c0.1,21.3,0,42.6,0,63.9C341.8,240.6,341.9,246,342,251.3z"/>
		<path class="st2" d="M398,455.2c0,11-9.2,20.1-20,19.9c-10.8-0.2-20-9.6-19.7-20.4c0.2-10.7,9.2-19.6,19.9-19.6
			C389.2,435.2,398.1,444.1,398,455.2z"/>
		<path class="st2" d="M287,435.2c11,0,20,9.2,19.9,20.1c-0.2,10.6-9.2,19.7-19.8,19.8c-10.7,0.1-20.1-9.2-20.1-20
			C267,444.3,276.1,435.2,287,435.2z"/>
		<path class="st5" d="M477,373.2c9.3,0,18.6,0,28,0c2.1,0,4.4,0.1,4.5,2.7c0.1,2.8-2.2,3.3-4.6,3.3c-18.6,0-37.3,0-55.9,0
			c-2.4,0-4.7-0.7-4.8-3.3c-0.1-3.2,2.7-2.7,4.8-2.7C458.4,373.2,467.7,373.2,477,373.2z"/>
		<path class="st5" d="M138.1,295.2c8.2,0,16.3,0,24.5,0c2.1,0,5-0.7,5.2,2.4c0.2,2.9-2.4,3.6-4.9,3.6c-16.3,0-32.6,0-49,0
			c-0.8,0-1.7-0.1-2.4-0.4c-1.5-0.6-3.4-1.2-3.1-3.3c0.3-2.2,2.1-2.3,3.8-2.3c6,0,12,0,18,0C132.8,295.2,135.4,295.2,138.1,295.2z"
			/>
		<path class="st6" d="M509.7,367.2c-4.3,0-8.6,0.1-12.9,0c-2.2-0.1-4.7-0.2-4.6-3.2c0.1-2.8,2.4-2.7,4.4-2.7c8.9,0,17.9,0,26.8,0
			c2,0,3.9,0.4,4.1,2.6c0.2,2.5-1.8,3.4-3.9,3.4C519,367.3,514.3,367.2,509.7,367.2z"/>
		<path class="st7" d="M120.6,271.2c4.5,0,9,0,13.4,0c1.7,0,3.6,0.1,3.8,2.3c0.2,2.2-1.4,3.5-3.4,3.6c-9.4,0.1-18.9,0.1-28.4-0.1
			c-1.6,0-3.9-0.8-3.6-3.3c0.3-2.2,2.2-2.6,4.2-2.5C111.3,271.3,115.9,271.2,120.6,271.2z"/>
		<path class="st7" d="M156.3,283.2c2.7,0,5.3,0,8,0c1.6,0,3.2,0.3,3.5,2.1c0.3,2-1.1,3.4-2.7,3.6c-6,0.4-12,0.8-17.9-0.2
			c-1.6-0.3-3.3-1.2-2.9-3.4c0.4-1.8,2-2,3.5-2.1C150.6,283.2,153.5,283.2,156.3,283.2z"/>
		<path class="st8" d="M525.1,373.3c1.6,0,3.3,0.1,4.9,0c1.9-0.1,3.4,0.8,3.6,2.6c0.2,2-1.3,3.1-3,3.2c-3.8,0.2-7.6,0.2-11.4,0
			c-1.6-0.1-3.3-1-3.1-3.2c0.2-2.1,1.7-2.6,3.5-2.6C521.4,373.3,523.2,373.3,525.1,373.3z"/>
		<path class="st8" d="M111.3,307.2c1.7,0,3.3,0,5,0c1.8,0,3.5,0.4,3.6,2.5c0.1,1.9-1.4,3.2-3.1,3.3c-3.8,0.2-7.6,0.2-11.4,0
			c-1.7-0.1-3.1-1.4-3.1-3.3c0-2.2,1.8-2.5,3.6-2.5C107.6,307.2,109.4,307.2,111.3,307.2z"/>
		<path class="st8" d="M501.1,397.3c1.6,0,3.3,0.1,4.9,0c1.9-0.1,3.4,0.8,3.6,2.6c0.2,2-1.3,3.1-3,3.2c-3.8,0.2-7.6,0.2-11.4,0
			c-1.6-0.1-3.3-1-3.1-3.2c0.2-2.1,1.7-2.6,3.5-2.6C497.4,397.3,499.3,397.3,501.1,397.3z"/>
		<path class="st8" d="M75,301.4c-2-0.2-4-0.2-5.9-0.7c-1.4-0.3-3.1-1-2.7-3c0.3-1.6,1.4-2.5,3.2-2.5c3.7,0,7.3,0,11,0
			c1.9,0,3.3,0.8,3.3,2.9c0,1.9-1.4,2.7-2.9,2.9c-2,0.3-4,0.1-6,0.1C75,301.2,75,301.3,75,301.4z"/>
		<path class="st7" d="M464.6,391.1c-1.8,0-3.7,0.2-5.5-0.1c-1.7-0.2-3.3-1.1-3-3.3c0.2-1.8,1.5-2.5,3.2-2.5c3.5,0,7-0.1,10.5,0
			c1.8,0,3.5,0.7,3.5,2.7c0,2.1-1.5,3.2-3.7,3.2c-1.7,0-3.3,0-5,0C464.6,391.2,464.6,391.2,464.6,391.1z"/>
		<path class="st9" d="M310,251.1c-0.3,0-0.7,0-1,0.1c0-27,0-53.9,0.1-80.9c0-0.3,0.3-0.6,0.9-1.9C310,196.6,310,223.8,310,251.1z"
			/>
		<path class="st10" d="M95.9,295.2c2.4,0.4,5.8-0.9,5.9,2.9c0.1,3.6-3.2,3.1-5.6,3.2c-2.6,0.2-5.7,0-5.8-3.2
			C90.2,294.2,93.8,295.6,95.9,295.2z"/>
		<path class="st10" d="M486,385.2c2.4,0.4,5.7-0.8,5.6,2.7c-0.1,3.2-3,3.5-5.6,3.4c-2.4-0.1-5.7,0.4-5.8-3
			C480.1,384,484,385.8,486,385.2z"/>
		<path class="st10" d="M131.9,283.2c2.1,0.5,5.7-1.1,5.8,2.6c0.1,3.1-2.9,3.5-5.5,3.5c-2.8,0-6-0.1-5.9-3.6
			C126.4,282.4,129.7,283.5,131.9,283.2z"/>
		<path class="st10" d="M132.4,259.2c2.3,0.2,5.3-0.6,5.3,2.5c0,3.5-3.1,3.6-5.9,3.6c-2.6,0-5.7-0.3-5.5-3.4
			C126.6,257.8,130.4,259.8,132.4,259.2z"/>
		<path class="st11" d="M157,438.4c-1.4-2.6-1-4.5,2.1-5.2c5.3-1.2,8.2,0.2,8.9,4.3C164.5,440.1,160.8,439.4,157,438.4z"/>
		<path class="st12" d="M145,438.4c-0.8-1.5-1.4-3,0.2-4.5c1-0.9,2.1-1.1,3.2-0.6c2.1,1,2,2.8,1.4,4.7
			C148.3,439.2,146.7,439.4,145,438.4z"/>
		<path class="st13" d="M491,216.3c-0.3,0-0.7,0.1-1,0.1c-0.8,0.3-1.6,0.3-2.4,0.3c-30,0-60,0-90,0c-0.8,0-1.7,0-2.4-0.3
			c-0.3-0.1-0.7-0.2-1-0.3c1.4-1.3,3.2-0.8,4.8-0.8c29.2,0,58.3,0,87.5,0C487.9,215.3,489.7,214.8,491,216.3z"/>
		<path class="st14" d="M532.7,167.1c1.9,0.2,2.4,1.4,2.3,3.1c-4.4,1.6-7.3,5-9.6,8.8c-0.9,1.4-1.4,2.7-3.1,1.8
			c-1.6-0.8-1.5-2.3-0.8-3.9C523.8,172.1,526.6,167.8,532.7,167.1z"/>
		<path class="st15" d="M541,216.5c-0.5,0.5-1,1.4-1.4,1.3c-10.9-1.3-21.9,0.2-32.7-0.8c-0.3,0-0.5-0.4-0.8-0.6
			c4.2-1.4,8.5-0.6,12.7-0.6c7.1,0,14.2-0.5,21.3,0.3C540.3,216.2,540.6,216.4,541,216.5z"/>
		<path class="st13" d="M540,216.1c-11.3,0.1-22.6,0.2-34,0.3c-0.3-0.1-0.7-0.1-1-0.2c1-1.2,2.3-1,3.6-1c9.4,0,18.7,0,28.1,0
			C537.9,215.3,539.1,215.2,540,216.1z"/>
		<path class="st16" d="M444,132.3c0.7-2.6,2.5-4.2,4.9-5.1C447.8,129.4,446.1,131,444,132.3z"/>
		<path class="st17" d="M393,169.3c1.7-1.5,3.4-1.5,5,0C396.3,169.3,394.7,169.3,393,169.3z"/>
		<path class="st18" d="M417,151.3c1.7-1.5,3.4-1.6,5.1,0C420.3,151.3,418.7,151.3,417,151.3z"/>
		<path class="st15" d="M395,216.4c31.6,0,63.3,0,94.9,0c-1.2,1.2-2.8,0.8-4.3,0.9c-28.8,0-57.6,0-86.4,0
			C397.9,217.3,396.3,217.7,395,216.4z"/>
		<path class="st19" d="M89,432.4c0.6-0.3,1.1-1,1.7-1c15.1-0.1,30.2,0,45.3,1c-15.4,0-30.8,0-46.2,0c0,0-0.4,0.1-0.4,0.1
			S89,432.4,89,432.4z"/>
		<path class="st20" d="M287.5,352.6c7.3,0,14.6,0,21.9,0c0,0.3,0,0.7,0,1c-7.3,0-14.6,0-21.9,0
			C287.5,353.2,287.5,352.9,287.5,352.6z"/>
		<path class="st20" d="M369.4,353.6c-7.3,0-14.6,0-21.9,0c0-0.3,0-0.6,0-0.8c7.3,0,14.6,0,21.9,0
			C369.4,353.1,369.4,353.3,369.4,353.6z"/>
		<path class="st21" d="M317.8,235.3c0-21.2,0-42.3,0-63.5c0-2.1-0.3-4.4,0.8-6.4c2-3.5,5-5.3,9.1-4.6c4.1,0.6,6.5,3.3,7.1,7.3
			c0.3,1.6,0.1,3.3,0.1,5c0,42.5,0,85,0,127.5c0,2.4-1,5.3,2,6.7c2.9,1.3,4.6-1.2,6.5-2.7c9.3-7.4,18.5-14.7,27.7-22.1
			c5.3-4.2,10.1-4.2,13.6,0c3.4,4.1,2.6,8.5-2.4,13c-16.7,14.8-33.5,29.5-50.3,44.2c-4.6,4-8.8,4-13.4,0c-16.1-14-32.1-28-48.2-42.1
			c-2-1.7-4.2-3.4-4.5-6.3c-0.5-3.6,0.5-6.6,3.7-8.7c4-2.6,7.7-1.4,11.1,1.2c9.4,6.9,18.7,13.9,28.1,20.8c0.5,0.4,1.1,0.8,1.6,1.2
			c1.6,1.2,3.3,2.5,5.4,1.4c1.9-1,1.8-3,1.8-4.8c0-1,0-2,0-3C317.8,277.9,317.8,256.6,317.8,235.3z"/>
		<path class="st22" d="M389.1,455c0,6.1-4.9,11.1-10.9,11.2c-5.8,0.1-10.9-5.2-11-11.2c-0.1-5.9,5.1-10.9,11.3-10.8
			C384.3,444.3,389.1,449.1,389.1,455z"/>
		<path class="st22" d="M287.1,444.2c6.1,0,11,5.1,10.9,11.2c-0.1,5.7-5.2,10.8-10.9,10.8c-6.2,0.1-11.2-5.2-11.1-11.6
			C276.1,448.9,281.1,444.2,287.1,444.2z"/>
	</g>
</g>
</svg>
