<svg version="1.1" id="Layer_1" xmlns="http://www.w3.org/2000/svg" xmlns:xlink="http://www.w3.org/1999/xlink" x="0px" y="0px"
	 viewBox="0 0 127.8 99.6" style="enable-background:new 0 0 127.8 99.6;" xml:space="preserve">
<style type="text/css">
	.st0{fill:#FEFEFE;}
	.st1{fill:#BB7879;}
	.st2{fill:#535C47;}
	.st3{fill:#545D48;}
	.st4{fill:#555E48;}
	.st5{fill:#FAFAFA;}
	.st6{fill:#FBFBFB;}
</style>
<g>
	<g>
		<path class="st0" d="M64.1,104.9c-23.3,0-46.7,0-70,0.1c-2.6,0-3.4-0.3-3.4-3.2c0.1-36.5,0.1-73,0-109.5c0-2.6,0.3-3.4,3.2-3.4
			c46.8,0.1,93.7,0.1,140.5,0c2.6,0,3.4,0.3,3.4,3.2c-0.1,36.5-0.2,73,0,109.5c0,3.5-1.3,3.4-3.8,3.4
			C110.8,104.9,87.4,104.9,64.1,104.9z"/>
		<path class="st1" d="M23.8,11.3c2.1,0.9,4.3,0.6,6.4,0.6c29.1,0,58.3,0,87.4,0c6.6,0,6.9,0.4,5.4,6.8c-2.1,8.5-4.2,17.1-6.4,25.5
			c-2.2,8.5-6.6,11.8-15.4,11.8c-19.8,0-39.6,0-59.4,0.1c-1.7,0-4.2-1.2-5.1,1.7c-1.6,0.1-1.8-1.3-2.1-2.3
			c-3.4-13.7-7.7-27.1-11-40.8C23.2,13.5,22.9,12.3,23.8,11.3z"/>
		<path class="st2" d="M23.8,11.3c4.3,15.5,8.5,31,12.8,46.5c2,6.6,5.2,8.9,13,8.9c17.3,0,34.6,0,52,0c1.3,0,2.7,0,4,0.1
			c1.5,0,2.6,0.7,2.6,2.3c0,1.5-1,2.5-2.5,2.7c-1.1,0.2-2.3,0.1-3.5,0.1c-17.7,0-35.3,0-53,0c-10,0-15.4-4-18-13.7
			C27.6,45,24.1,31.9,20.7,18.7c-2.1-7.9-4-9.3-12.2-9.5c-2.4-0.1-6.4,1.1-6.4-2.6C2.1,3,6,4.2,8.5,4C14.9,3.6,20.3,5.4,23.8,11.3z"
			/>
		<path class="st3" d="M48.8,77c5.7,0.1,10.4,4.9,10.3,10.6C59,93.2,54,98,48.4,97.9c-5.5-0.1-10.5-5.3-10.4-10.7
			C38.1,81.7,43.2,76.9,48.8,77z"/>
		<path class="st4" d="M105.8,87.6c-0.1,5.5-4.7,10.2-10.1,10.3c-5.6,0-10.4-4.8-10.4-10.5c0-5.8,4.7-10.5,10.4-10.4
			C101.4,77,105.9,81.8,105.8,87.6z"/>
		<path class="st5" d="M43.7,87.8c0-3.8,1.6-5.8,5.1-5.8c3.4,0.1,5.1,2,5,5.4c0,3.5-1.8,5.4-5.2,5.3C45.3,92.7,43.5,90.8,43.7,87.8z
			"/>
		<path class="st6" d="M100.7,86.8c0,3.8-1.9,5.6-5.2,5.7c-3.4,0.1-5.3-1.8-5.2-5.1c0-3.2,1.6-5.4,5.1-5.4
			C98.7,82.1,100.5,83.9,100.7,86.8z"/>
	</g>
</g>
</svg>
