<?xml version="1.0" encoding="utf-8"?>
<!-- Generator: Adobe Illustrator 22.0.0, SVG Export Plug-In . SVG Version: 6.00 Build 0)  -->
<svg version="1.1" id="Layer_1" xmlns="http://www.w3.org/2000/svg" xmlns:xlink="http://www.w3.org/1999/xlink" x="0px" y="0px"
	 viewBox="0 0 841.9 595.3" style="enable-background:new 0 0 841.9 595.3;" xml:space="preserve">
<style type="text/css">
	.st0{fill:transparent;}
	.st1{fill:#535C46;}
	.st2{fill:#F68E8E;}
</style>
<g>
	<g>
		<path class="st0" d="M421.5,1.3c97.8,0,195.7,0,293.5-0.1c3.4,0,4.1,0.7,4.1,4.1c-0.1,195.3-0.1,390.7,0,586
			c0,3.4-0.7,4.1-4.1,4.1c-195.7-0.1-391.3-0.1-587,0c-3.4,0-4.1-0.7-4.1-4.1c0.1-195.3,0.1-390.7,0-586c0-3.4,0.7-4.1,4.1-4.1
			C225.8,1.3,323.7,1.3,421.5,1.3z"/>
		<path class="st1" d="M181.1,442.2c1.3-16.5,2.7-35.1,4.2-53.7c0.2-2.4-0.3-4.1-2.1-5.7c-13.4-12.7-26.6-25.6-40.1-38.3
			c-9.8-9.2-10.9-16.8-3.7-28.1c9.6-15.2,19.1-30.4,28.9-45.5c2.2-3.4,2.5-6.3,1.2-10.1c-6-17.3-11.7-34.6-17.5-51.9
			c-3.7-11-0.9-18.6,9.1-24.5c15.9-9.3,31.8-18.7,48-27.6c4-2.2,5.2-5.1,5.8-9c2.9-18.5,5.8-37.1,8.9-55.6c1.4-8.6,7.1-14,15.7-14.9
			c15.2-1.6,30.6-2,45.9-1.8c11.9,0.1,20.9-2.1,27.7-13.4c7.8-12.9,17.8-24.4,27-36.5c6.6-8.7,14.7-10.7,24.6-6
			c17.1,8.1,34.2,16.2,51.3,24.4c2.9,1.4,5.1,1.3,8-0.1c17.3-8.4,34.8-16.7,52.2-24.9c8.5-4,17-2,22.7,5.5
			c11.8,15.5,23.5,31.1,35.1,46.7c1.7,2.2,3.4,3.2,6.2,3.3c15.5,0.5,31,1.1,46.4,1.7c4.7,0.2,9.3,0.2,13.9,0.9
			c8,1.2,14,6.2,15.3,14.2c3.2,18.5,6.1,37,9,55.6c0.7,4.5,2.1,7.7,6.6,10.1c15.7,8.6,31.2,17.8,46.7,26.8
			c10.8,6.3,13.5,13.8,9.6,25.6c-5.7,17-11.3,34-17.2,51c-1.5,4.2-1,7.2,1.4,10.9c10.2,15.6,20.1,31.4,30,47.2
			c5.5,8.8,3.8,17.3-4.6,25.4c-13.2,12.6-26.4,25.4-39.7,38c-2.4,2.3-3.2,4.5-2.9,7.8c1.6,18.7,3,37.5,4.4,56.2
			c0.8,10.8-3.3,17.6-13.8,20.8c-18.4,5.6-36.9,10.9-55.5,16.1c-2.9,0.8-4.4,2.3-5.5,5c-7.2,17.3-14.5,34.6-21.9,51.8
			c-4.6,10.6-11.9,14.4-23.2,12.1c-18.2-3.8-36.4-7.6-54.6-11.3c-3.1-0.6-5.6-0.2-8.3,2c-14.1,11.7-28.3,23.2-42.4,34.9
			c-10,8.3-18.1,8.2-28.2-0.2c-14.2-11.8-28.6-23.4-42.9-35.2c-2.2-1.8-4.4-2.1-6.9-1.6c-18.5,3.8-37.1,7.6-55.6,11.4
			c-11,2.3-18.4-1.5-22.9-11.9c-7.3-17.1-14.6-34.2-21.7-51.4c-1.3-3.2-3.1-5-6.5-6c-17.3-4.8-34.5-9.8-51.7-14.8
			C183.9,463.7,180.3,458.6,181.1,442.2z"/>
		<path class="st2" d="M643.2,444.8c1.1,4.3-1.2,6.4-6.4,7.9c-19.4,5.2-38.7,11.2-58.1,16.6c-3.2,0.9-4.8,2.3-6,5.1
			c-7.9,18.9-16,37.8-23.8,56.7c-1.7,4-3.4,5.8-8.5,4.6c-19.1-4.4-38.5-7.8-57.7-12.1c-7.5-1.7-11.8,2.4-16.7,6.4
			c-14.6,11.9-29.2,23.8-43.7,35.8c-1.9,1.5-2.9,1.3-4.6-0.1c-16.6-13.7-33.2-27.3-49.8-41c-3.2-2.6-6.8-1.8-10-1.1
			c-20.1,4-40.1,8.2-60.1,12.5c-3.6,0.8-4.7-1.2-5.8-3.8c-5.7-13.6-11.4-27.1-17.1-40.7c-2.6-6.1-5.3-12.1-7.8-18.2
			c-1-2.4-2.7-3.4-5.1-4.1c-19.9-5.6-39.6-11.4-59.5-16.9c-4.4-1.2-5.8-3.3-5.4-7.7c1.4-14.5,2.6-29,3.8-43.5
			c0.6-6.8,0.8-13.6,1.3-20.4c0.2-2.5-0.8-4.3-2.7-5.5c-3.5-2.3-6.2-5.5-9.2-8.4c-11.7-11.3-23.3-22.9-35.2-33.9
			c-3.6-3.3-3.5-5.6-1-9.5c11-16.9,21.6-34.1,32.5-51c1.9-2.9,2-5.5,1-8.4c-5-14.9-9.9-29.8-14.8-44.6c-1.6-4.7-2.8-9.5-4.8-14.1
			c-1.7-4.1-0.2-6.3,3-8.2c14.8-8.4,29.6-16.8,44.5-25.2c1-0.6,1.9-1.4,3-1.7c10.1-3.3,11.5-11.6,12.7-20.6
			c2.4-17.5,5.4-34.9,8.1-52.4c0.4-2.8,2.3-4.4,4.9-4.9c1.5-0.3,3-0.1,4.5-0.2c15.8-0.4,31.6-0.6,47.4-1.3c4.5-0.2,8.9-0.8,13.4-0.8
			c3.3,0.1,4.7-2.4,6.2-4.4c12.1-16.1,24.1-32.3,36-48.6c2.6-3.5,5-4.1,9.1-2.1c15.7,7.8,32.3,14.1,47.4,22.9
			c9.8,5.8,17.2,3.7,26-0.8c15.2-7.7,30.8-14.6,46.1-22.3c4.3-2.2,6.4-0.8,8.6,2.3c7.9,10.8,15.8,21.6,23.8,32.3
			c4.2,5.7,8.5,11.4,12.8,17c1.9,2.5,4.2,3.6,7.6,3.7c20.1,0.7,40.2,1.8,60.3,2c6.3,0.1,7.2,1.3,8.2,7.5c3.3,20.5,6.6,41.1,9.9,61.6
			c0.4,2.2,1.6,3.5,3.4,4.5c17.5,10,35,20.2,52.5,30.2c6.8,3.8,6.9,4.5,4.4,11.7c-6.4,18.7-12.5,37.6-18.8,56.4c-1,3-0.8,5.6,1,8.4
			c10.9,17,21.5,34.1,32.5,51c2.5,3.9,2.5,6.2-1,9.5c-14.1,13.2-27.4,27.3-41.8,40.1c-5.5,4.9-5.4,9.5-4.7,15.7
			c1.1,9,1.3,18.2,2.3,27.2C642,425.3,642.4,434.6,643.2,444.8z"/>
		<path class="st0" d="M281.1,234.4c-0.7-18.1,3.6-34.9,15.5-48.7c15.3-17.7,35.6-22.2,57.9-20c13.1,1.3,24.9,6.1,34.1,15.8
			c9.7,10.1,14.7,22.7,16,36.3c1.5,15.8,1.5,31.6-5.5,46.5c-10.3,21.9-27.4,34.2-51.6,35.9c-13.8,1-27.2-0.6-39.3-8.3
			c-17-10.9-24.8-27.2-27-46.6C280.7,241.8,281.1,238.1,281.1,234.4z"/>
		<path class="st0" d="M559.2,366.1c0.3,20.1-5,38.2-19.9,52.5c-14.9,14.3-33.2,18.3-53.1,16.1c-32.9-3.6-51.2-31.3-51.4-61.1
			c-0.1-17.9,2-34.9,12.9-49.8c10.7-14.5,25.4-22.2,43.3-23.5c8.9-0.7,18-0.8,26.8,1.7c23.4,6.5,35.4,22.8,40.1,45.6
			C559.1,353.8,559.1,359.9,559.2,366.1z"/>
		<path class="st0" d="M338,433.2c-3.2,0-6.3-0.1-9.5,0c-3.8,0.2-3.4-1.4-1.8-3.8c6.9-10.6,13.7-21.2,20.5-31.9
			c26.3-41.3,52.5-82.6,78.7-123.8c21.6-34,43.3-67.9,64.8-101.9c1.2-2,2.7-2.7,4.9-2.6c6.3,0.1,12.7,0.1,19,0
			c3.6-0.1,3.5,1.1,1.8,3.7c-11.3,17.7-22.5,35.4-33.7,53.1c-19.6,30.8-39.1,61.5-58.7,92.2c-23.2,36.3-46.4,72.6-69.4,109.1
			c-2.8,4.4-5.7,7-11.1,6.1C341.7,432.9,339.8,433.2,338,433.2z"/>
		<path class="st2" d="M375,231.8c0.1,8.8-0.9,16.7-4,24.1c-4.3,10.4-11.4,17.9-23.3,19.3c-13.4,1.5-24.6-2.7-30.4-15.1
			c-8.8-18.8-8.7-38,2-56.3c6.7-11.3,17.7-14.1,29.9-12.5c10.9,1.4,17.8,8.3,21.8,18.3C373.9,217,375.2,224.6,375,231.8z"/>
		<path class="st2" d="M529,364.1c-0.2,13.1-1.8,22.7-6.7,31.8c-10.2,19-41.1,20-51.4-1.6c-8.6-18.2-8.2-36.9,1.5-54.6
			c6.1-11.2,16.7-15.5,29.1-14.1c12.8,1.4,20.4,9.7,24.4,21.5C528.2,353.5,529.2,360.3,529,364.1z"/>
	</g>
</g>
</svg>
