<?xml version="1.0" encoding="utf-8"?>
<!-- Generator: Adobe Illustrator 22.0.0, SVG Export Plug-In . SVG Version: 6.00 Build 0)  -->
<svg version="1.1" id="Layer_1" xmlns="http://www.w3.org/2000/svg" xmlns:xlink="http://www.w3.org/1999/xlink" x="0px" y="0px"
	 viewBox="0 0 841.9 595.3" style="enable-background:new 0 0 841.9 595.3;" xml:space="preserve">
<style type="text/css">
	.st0{fill:transparent;}
	.st1{fill:#ffffff;}
	.st2{fill:#F68E8E;}
</style>
<g>
	<g>
		<path class="st0" d="M297.6,594.1c-97.8,0-195.7,0-293.5,0.1c-3.4,0-4.1-0.7-4.1-4.1c0.1-195.3,0.1-390.7,0-586C0,0.7,0.7,0,4.1,0
			c195.7,0.1,391.3,0.1,587,0c3.4,0,4.1,0.7,4.1,4.1c-0.1,195.3-0.1,390.7,0,586c0,3.4-0.7,4.1-4.1,4.1
			C493.3,594.1,395.4,594.1,297.6,594.1z M126.5,75.1c-2.3,0-4.7,0.1-7,0c-9.1-0.4-17.6,5-20.1,15.6c-1.7,6.9-2.2,14.1-3.3,21.2
			c-1.8,11.5-4,23-5.4,34.6c-0.3,2.6-0.4,5.8-3.9,7.8c-16.3,9.1-32.4,18.5-48.5,27.9c-10,5.8-14.9,12.1-11.1,24.5
			c5.4,17.6,11.8,34.9,17.8,52.3c1.1,3.3,2.2,6.2-0.6,9.7c-3.2,3.9-5.5,8.7-8.3,13c-7.2,11.5-14,23.1-21.6,34.3
			c-5,7.4-5,18.3,1.3,24.6c11.5,11.3,23.1,22.5,34.7,33.7c1.5,1.5,3.2,2.8,4.8,4.2c3.5,2.9,6.4,6.1,5.8,11.7
			c-1.4,12.5-2.7,25.1-3.5,37.7c-0.3,5.4,0.3,10.9-1.1,16.2c-2,7.9,1.6,17,9.1,20c15,6.1,30.8,9.8,46.4,14
			c10.3,2.8,20.7,4.7,22.8,17.7c0.1,0.5,0.3,0.9,0.5,1.3c5.9,13.8,11.9,27.6,17.5,41.6c3.9,9.9,12.3,14.7,23,12.7
			c2.9-0.5,5.6-1.7,8.4-2.1c13.6-1.9,26.9-5.2,40.3-8.1c11.3-2.4,11.2-2.5,18,3.1c13.6,11.4,27.4,22.7,41.1,34.1
			c6,5,15.7,6.3,22.7,1c14.2-10.9,28-22.4,41.7-33.9c4.7-4,8.7-8.7,16.1-4.5c3.1,1.7,7.2,1.5,10.9,2.2c12.3,2.5,24.8,4.5,36.9,7.7
			c14.4,3.8,22.7-1.8,26.9-11.6c7.8-17.9,15.1-36,22.5-54c0.8-1.9,2.3-2.1,3.6-2.5c18.2-5.3,36.3-10.8,54.5-15.7
			c7.5-2,14.1-5.8,15.8-15.2c0.8-4.3-0.2-8-0.4-12c-0.6-11.2-0.8-22.4-2.2-33.5c-0.5-4.1-0.4-8.4-1.5-12.6
			c-0.8-3.2-1.8-7.7,0.7-10.3c2.3-2.3,4.6-4.8,7.1-7.1c12.4-11.6,24.2-23.9,36.8-35.3c5.8-5.3,6.7-17.4,2.8-23.5
			c-8.9-14.2-18.3-28-27-42.4c-2.9-4.7-8.8-9.2-4.6-16.1c1.4-2.3,1.8-4.8,2.6-7.2c4.9-14.4,9.5-28.9,14.5-43.2
			c3.4-9.7,1.8-17.6-5.6-23.2c-3.3-2.5-7-4.6-10.6-6.7c-13-7.6-26-15.4-39.3-22.4c-4.7-2.5-7.2-5.7-7.7-10.6
			c-1.6-18-5.9-35.5-8.1-53.4c-1.2-10-9.6-17.1-19.7-17.2c-6.6-0.1-13.2-0.2-19.8-0.7c-11.9-0.9-23.8-0.2-35.7-1.1
			c-3.5-0.3-6-1.3-7.9-3.9c-11.3-15.2-22.4-30.5-33.9-45.6c-5.5-7.2-13.7-11.1-23.1-6.6c-15.1,7.2-30.2,14.4-45.2,21.8
			c-6.8,3.3-13.4,6.6-20.7,1.2c-1.9-1.4-4-2.7-6.2-3.7c-13.5-6.3-27.2-12.3-40.5-18.8c-9.7-4.8-17.9-1.7-23.3,5.3
			c-10.7,13.6-20.6,27.9-31.1,41.6c-2.5,3.2-3.9,8-8.9,8.5c-4.6,0.4-9.2,0.7-13.8,0.9C151,74.3,138.7,74.2,126.5,75.1z"/>
		<path class="st1" d="M126.5,75.1c12.2-0.9,24.5-0.8,36.7-1.2c4.5-0.1,9.2-0.5,13.8-0.9c4.9-0.5,6.4-5.3,8.9-8.5
			c10.6-13.7,20.4-28,31.1-41.6c5.4-7,13.6-10.1,23.3-5.3c13.4,6.6,27,12.5,40.5,18.8c2.2,1,4.3,2.2,6.2,3.7
			c7.3,5.4,13.9,2.1,20.7-1.2c15-7.3,30.1-14.6,45.2-21.8c9.4-4.5,17.6-0.6,23.1,6.6c11.5,15.1,22.6,30.4,33.9,45.6
			c1.9,2.6,4.4,3.7,7.9,3.9c11.9,0.9,23.9,0.2,35.7,1.1c6.6,0.5,13.2,0.6,19.8,0.7c10.1,0.1,18.5,7.2,19.7,17.2
			c2.2,17.9,6.6,35.4,8.1,53.4c0.4,4.8,2.9,8.1,7.7,10.6c13.3,7,26.3,14.8,39.3,22.4c3.6,2.1,7.3,4.2,10.6,6.7
			c7.4,5.6,9,13.5,5.6,23.2c-5,14.4-9.7,28.8-14.5,43.2c-0.8,2.4-1.3,4.9-2.6,7.2c-4.1,6.9,1.8,11.4,4.6,16.1
			c8.7,14.3,18.1,28.2,27,42.4c3.9,6.1,3,18.2-2.8,23.5c-12.6,11.4-24.4,23.7-36.8,35.3c-2.4,2.3-4.8,4.7-7.1,7.1
			c-2.6,2.6-1.6,7.1-0.7,10.3c1.1,4.2,0.9,8.5,1.5,12.6c1.4,11.1,1.7,22.3,2.2,33.5c0.2,4,1.2,7.7,0.4,12
			c-1.7,9.4-8.4,13.2-15.8,15.2c-18.3,4.9-36.4,10.4-54.5,15.7c-1.4,0.4-2.9,0.6-3.6,2.5c-7.4,18.1-14.7,36.2-22.5,54
			c-4.2,9.7-12.6,15.3-26.9,11.6c-12.1-3.2-24.6-5.2-36.9-7.7c-3.6-0.7-7.8-0.5-10.9-2.2c-7.3-4.1-11.3,0.6-16.1,4.5
			c-13.7,11.5-27.5,22.9-41.7,33.9c-6.9,5.3-16.7,4-22.7-1c-13.7-11.3-27.4-22.7-41.1-34.1c-6.7-5.6-6.6-5.6-18-3.1
			c-13.4,2.9-26.7,6.2-40.3,8.1c-2.8,0.4-5.5,1.6-8.4,2.1c-10.7,2-19.1-2.8-23-12.7c-5.5-14-11.6-27.7-17.5-41.6
			c-0.2-0.4-0.4-0.9-0.5-1.3c-2.1-13-12.5-14.9-22.8-17.7c-15.6-4.3-31.4-8-46.4-14c-7.5-3-11.1-12.1-9.1-20
			c1.4-5.3,0.7-10.8,1.1-16.2c0.8-12.6,2.1-25.2,3.5-37.7c0.6-5.6-2.3-8.8-5.8-11.7c-1.6-1.3-3.3-2.7-4.8-4.2
			c-11.6-11.2-23.2-22.4-34.7-33.7c-6.3-6.2-6.3-17.2-1.3-24.6c7.6-11.2,14.4-22.8,21.6-34.3c2.7-4.4,5-9.1,8.3-13
			c2.8-3.4,1.7-6.4,0.6-9.7c-6-17.4-12.4-34.7-17.8-52.3c-3.8-12.4,1.1-18.7,11.1-24.5c16.1-9.4,32.2-18.8,48.5-27.9
			c3.5-1.9,3.6-5.2,3.9-7.8c1.3-11.6,3.6-23.1,5.4-34.6c1.1-7.1,1.6-14.2,3.3-21.2c2.5-10.6,11-16,20.1-15.6
			C121.8,75.2,124.2,75.1,126.5,75.1z M134.6,92c-4,0-8,0-12,0c-3.9,0-6,2-6.6,5.8c-3.3,20.9-6.7,41.8-10.1,62.7
			c-0.3,1.8-0.5,3.4-2.4,4.5c-3.8,2.1-7.5,4.6-11.4,6.8c-14.9,8.5-29.8,16.9-44.7,25.3c-3,1.7-3.7,4-2.5,7.3
			c6.2,17.9,12.4,35.7,18.3,53.7c1.5,4.5,3.3,9.1,0.1,14.1c-11,17-21.6,34.2-32.5,51.2c-1.9,2.9-1.8,4.6,0.7,7
			c13.8,13.2,27.4,26.6,41.1,40c0.7,0.7,1.4,1.4,2.3,1.9c3.4,1.7,4.4,4.5,4.1,8.2c-0.8,9-1.4,18.1-2.2,27.2
			C76,417.8,75.2,428,74,438.1c-1.1,8.8-0.7,10.3,6.7,12.4c19.1,5.6,38.2,11.4,57.4,16.5c3.9,1,5.5,3,6.8,6.1
			c7.1,16.7,14,33.4,21.2,50.1c4.8,11,4.9,10.9,16.6,9c0.5-0.1,1-0.2,1.4-0.3c16.5-3.5,33-7.2,49.5-10.4c3.5-0.7,7.7-1.7,11,1
			c6.2,4.9,12.1,10.1,18.2,15.1c9.9,8.1,20.2,15.7,29.7,24.2c3.9,3.5,5.9,1.4,8.5-0.8c13.7-11.3,27.4-22.5,41-34
			c5-4.2,10.2-7.1,17-5.6c17,3.6,34,7.2,50.9,10.8c11,2.4,11,2.4,15.8-7.9c1.1-2.4,2.1-4.8,3.2-7.2c6.5-15.3,13-30.7,19.5-46
			c0.9-2.1,2.3-3.2,4.6-3.9c20.3-5.7,40.5-11.5,60.8-17.2c3.8-1,4.9-3,4.6-6.7c-1.2-13.2-1.7-26.4-3.4-39.5
			c-0.8-6.1-0.4-12.2-1.5-18.2c-1-5.4-0.3-10,5-14.6c14.7-12.9,28.3-27.2,42.4-40.8c2.1-2,2.7-3.6,1-6.2
			c-10.3-15.9-20.5-31.8-30.8-47.7c-3.3-5-5.2-10-2.8-16.1c1.9-4.8,3.4-9.9,5.1-14.8c4.4-13.1,8.6-26.3,13.1-39.4
			c2-5.8,1.9-6.6-3.3-9.6c-17.6-10.1-35-20.3-52.7-30.2c-2.8-1.6-4-3.3-4.3-6.4c-0.5-4.7-1.3-9.4-2.1-14.1
			c-2.6-15.5-5.4-31-7.6-46.6c-0.7-5.1-3.3-6.9-7.7-6.9c-20.1-0.1-40.1-1.3-60.2-1.9c-4.2-0.1-6.8-1.7-9.1-4.8
			c-11.9-16.2-23.8-32.3-35.8-48.5c-2-2.7-4.1-3.3-7.5-1.6c-16.8,8.4-33.9,16.3-50.7,24.7c-7.1,3.6-13.6,3.4-20.1-1.3
			c-0.7-0.5-1.4-0.8-2.2-1.2c-15.7-7.4-31.4-14.6-47-22.2c-3.4-1.6-5.5-1.2-7.6,1.6c-11.9,16.2-23.8,32.3-35.8,48.5
			c-1.5,2-2.8,4.6-6,4.6c-4.8,0.1-9.6,0.9-14.3,0.8C159.8,90.6,147.2,91.9,134.6,92z"/>
		<path class="st2" d="M134.6,92c12.6-0.1,25.2-1.4,37.8-1.3c4.7,0,9.5-0.7,14.3-0.8c3.2-0.1,4.5-2.6,6-4.6
			c12-16.1,23.9-32.3,35.8-48.5c2.1-2.8,4.2-3.2,7.6-1.6c15.6,7.6,31.3,14.8,47,22.2c0.7,0.3,1.5,0.7,2.2,1.2
			c6.4,4.7,12.9,4.8,20.1,1.3c16.8-8.4,33.9-16.3,50.7-24.7c3.4-1.7,5.5-1.1,7.5,1.6c11.9,16.2,23.9,32.3,35.8,48.5
			c2.3,3.1,4.9,4.7,9.1,4.8c20.1,0.6,40.1,1.8,60.2,1.9c4.4,0,7,1.8,7.7,6.9c2.2,15.6,5.1,31.1,7.6,46.6c0.8,4.7,1.7,9.4,2.1,14.1
			c0.3,3.1,1.5,4.8,4.3,6.4c17.6,9.9,35.1,20.2,52.7,30.2c5.3,3,5.4,3.8,3.3,9.6c-4.5,13.1-8.8,26.3-13.1,39.4
			c-1.6,5-3.1,10-5.1,14.8c-2.4,6.1-0.5,11.1,2.8,16.1c10.3,15.9,20.4,31.9,30.8,47.7c1.7,2.6,1.1,4.2-1,6.2
			c-14.1,13.6-27.7,27.8-42.4,40.8c-5.2,4.6-6,9.2-5,14.6c1.1,6.1,0.8,12.2,1.5,18.2c1.6,13.1,2.2,26.3,3.4,39.5
			c0.3,3.7-0.8,5.7-4.6,6.7c-20.3,5.6-40.5,11.5-60.8,17.2c-2.3,0.6-3.7,1.8-4.6,3.9c-6.5,15.3-13,30.7-19.5,46
			c-1,2.4-2.1,4.8-3.2,7.2c-4.8,10.3-4.8,10.2-15.8,7.9c-17-3.6-34-7.2-50.9-10.8c-6.8-1.5-12,1.4-17,5.6
			c-13.6,11.4-27.3,22.7-41,34c-2.6,2.1-4.6,4.2-8.5,0.8c-9.6-8.5-19.8-16.1-29.7-24.2c-6.1-5-12-10.2-18.2-15.1
			c-3.3-2.6-7.5-1.6-11-1c-16.6,3.2-33,6.9-49.5,10.4c-0.5,0.1-1,0.2-1.4,0.3c-11.6,1.9-11.8,2-16.6-9
			c-7.2-16.6-14.1-33.4-21.2-50.1c-1.3-3-2.9-5-6.8-6.1c-19.2-5.1-38.3-10.9-57.4-16.5c-7.3-2.2-7.7-3.6-6.7-12.4
			c1.2-10.1,2-20.3,2.9-30.5c0.8-9,1.4-18.1,2.2-27.2c0.3-3.7-0.7-6.5-4.1-8.2c-0.9-0.4-1.6-1.2-2.3-1.9
			c-13.7-13.3-27.3-26.7-41.1-40c-2.5-2.4-2.6-4.1-0.7-7c10.9-17,21.5-34.2,32.5-51.2c3.2-5,1.4-9.6-0.1-14.1
			c-5.9-18-12.1-35.8-18.3-53.7c-1.2-3.3-0.5-5.6,2.5-7.3c14.9-8.4,29.8-16.8,44.7-25.3c3.8-2.2,7.5-4.6,11.4-6.8
			c1.9-1.1,2.1-2.7,2.4-4.5c3.3-20.9,6.7-41.8,10.1-62.7c0.6-3.9,2.7-5.8,6.6-5.8C126.6,92,130.6,92,134.6,92z"/>
	</g>
</g>
</svg>
