<svg version="1.1" id="Layer_1" xmlns="http://www.w3.org/2000/svg" xmlns:xlink="http://www.w3.org/1999/xlink" x="0px" y="0px"
	 viewBox="0 0 841.9 595.3" style="enable-background:new 0 0 841.9 595.3;" xml:space="preserve">
<style type="text/css">
	.st0{fill:transparent;}
	.st1{fill:#EAD1D1;}
	.st2{fill:#EDEDE9;}
	.st3{fill:#C27B7C;}
	.st4{fill:#5B6147;}
	.st5{fill:#545A41;}
	.st6{fill:#53593F;}
	.st7{fill:#52583E;}
	.st8{fill:#5D6348;}
	.st9{fill:#5F644A;}
	.st10{fill:#5D6248;}
	.st11{fill:#5F654B;}
	.st12{fill:#5E644A;}
	.st13{fill:#565C43;}
	.st14{fill:#51573D;}
	.st15{fill:#575D43;}
	.st16{fill:#575C43;}
	.st17{fill:#5F654A;}
	.st18{fill:#595F46;}
	.st19{fill:#383F2A;}
	.st20{fill:#39402B;}
	.st21{fill:#363E29;}
	.st22{fill:#62684E;}
	.st23{fill:#5E6449;}
	.st24{fill:#3B422D;}
	.st25{fill:#565C42;}
	.st26{fill:#4A5138;}
	.st27{fill:#464D37;}
	.st28{fill:#474E38;}
	.st29{fill:#414831;}
	.st30{fill:#434A32;}
	.st31{fill:#313926;}
	.st32{fill:#484F38;}
	.st33{fill:#63684F;}
	.st34{fill:#313826;}
	.st35{fill:#4C533A;}
	.st36{fill:#495038;}
	.st37{fill:#4C5239;}
	.st38{fill:#454C38;}
	.st39{fill:#38402C;}
	.st40{fill:#3B432D;}
	.st41{fill:#1F2616;}
	.st42{fill:#B3B5A7;}
	.st43{fill:#60664C;}
	.st44{fill:#FCFCFB;}
	.st45{fill:#38402A;}
	.st46{fill:#343B27;}
	.st47{fill:#353C28;}
	.st48{fill:#3B402D;}
	.st49{fill:#414830;}
	.st50{fill:#454B33;}
	.st51{fill:#606649;}
	.st52{fill:#4E543C;}
	.st53{fill:#454C34;}
	.st54{fill:#3C432D;}
	.st55{fill:#39402A;}
	.st56{fill:#4F553B;}
	.st57{fill:#40472F;}
	.st58{fill:#696F51;}
	.st59{fill:#424932;}
	.st60{fill:#5C6246;}
	.st61{fill:#62684B;}
	.st62{fill:#63694C;}
	.st63{fill:#464C34;}
	.st64{fill:#484F36;}
	.st65{fill:#353D28;}
	.st66{fill:#5C6247;}
	.st67{fill:#535940;}
	.st68{fill:#535A40;}
	.st69{fill:#555B41;}
	.st70{fill:#545A40;}
	.st71{fill:#5E6349;}
	.st72{fill:#5D6349;}
	.st73{fill:#575D44;}
	.st74{fill:#585D44;}
	.st75{fill:#3D442E;}
	.st76{fill:#3F4630;}
	.st77{fill:#3F462F;}
	.st78{fill:#51573E;}
	.st79{fill:#4D543B;}
	.st80{fill:#333B28;}
	.st81{fill:#454C35;}
	.st82{fill:#404730;}
	.st83{fill:#4E553B;}
	.st84{fill:#323A27;}
	.st85{fill:#303825;}
	.st86{fill:#52583F;}
	.st87{fill:#3B422E;}
	.st88{fill:#404732;}
	.st89{fill:#4F553C;}
	.st90{fill:#333B27;}
	.st91{fill:#494F38;}
	.st92{fill:#4E543B;}
	.st93{fill:#444B33;}
	.st94{fill:#484F39;}
	.st95{fill:#4E553C;}
	.st96{fill:#434A33;}
	.st97{fill:#373E29;}
	.st98{fill:#454C36;}
	.st99{fill:#3E452F;}
	.st100{fill:#4C533C;}
	.st101{fill:#2C3421;}
	.st102{fill:#373E2B;}
	.st103{fill:#4A5139;}
	.st104{fill:#474E36;}
	.st105{fill:#495037;}
	.st106{fill:#313925;}
	.st107{fill:#333A27;}
	.st108{fill:#2A3120;}
	.st109{fill:#262E1D;}
	.st110{fill:#434A34;}
	.st111{fill:#39412C;}
	.st112{fill:#323926;}
	.st113{fill:#262D1C;}
	.st114{fill:#4A513A;}
	.st115{fill:#484E39;}
	.st116{fill:#3F4534;}
	.st117{fill:#232B1A;}
	.st118{fill:#343C27;}
	.st119{fill:#787C65;}
	.st120{fill:#5B6049;}
	.st121{fill:#51573F;}
	.st122{fill:#3B432C;}
	.st123{fill:#333B26;}
	.st124{fill:#898C78;}
	.st125{fill:#A4A696;}
	.st126{fill:#9C9E8C;}
	.st127{fill:#3F4533;}
	.st128{fill:#333A26;}
	.st129{fill:#4B5138;}
	.st130{fill:#484E38;}
	.st131{fill:#848771;}
	.st132{fill:#969886;}
	.st133{fill:#828672;}
	.st134{fill:#ACAEA0;}
	.st135{fill:#5B6146;}
	.st136{fill:#939684;}
	.st137{fill:#2F3723;}
	.st138{fill:#959886;}
	.st139{fill:#767B64;}
	.st140{fill:#636852;}
	.st141{fill:#3D4430;}
	.st142{fill:#5E634D;}
	.st143{fill:#8F927F;}
	.st144{fill:#4B513C;}
	.st145{fill:#D3D2C9;}
	.st146{fill:#909280;}
	.st147{fill:#454B35;}
	.st148{fill:#595F44;}
	.st149{fill:#535A3F;}
	.st150{fill:#454C33;}
	.st151{fill:#464D35;}
	.st152{fill:#4D543A;}
	.st153{fill:#40462F;}
	.st154{fill:#6C7254;}
	.st155{fill:#3C432C;}
	.st156{fill:#363D28;}
	.st157{fill:#3D442D;}
	.st158{fill:#6D7354;}
	.st159{fill:#666C4F;}
	.st160{fill:#707657;}
	.st161{fill:#484F37;}
	.st162{fill:#727858;}
	.st163{fill:#3E452E;}
	.st164{fill:#3A412B;}
	.st165{fill:#4F563C;}
	.st166{fill:#484E36;}
	.st167{fill:#7A8060;}
	.st168{fill:#444A33;}
	.st169{fill:#4A5037;}
	.st170{fill:#444B34;}
	.st171{fill:#313824;}
	.st172{fill:#565C41;}
	.st173{fill:#2D3421;}
	.st174{fill:#EFEAE3;}
	.st175{fill:#3E442E;}
	.st176{fill:#6A7052;}
	.st177{fill:#2A311F;}
	.st178{fill:#373F29;}
	.st179{fill:#494F36;}
	.st180{fill:#676D50;}
	.st181{fill:#585E43;}
	.st182{fill:#323A25;}
	.st183{fill:#313924;}
	.st184{fill:#323925;}
	.st185{fill:#383F29;}
	.st186{fill:#242B1A;}
	.st187{fill:#2C3521;}
	.st188{fill:#2E3522;}
	.st189{fill:#3F472F;}
	.st190{fill:#5E634B;}
	.st191{fill:#5E6447;}
	.st192{fill:#343B26;}
	.st193{fill:#474E35;}
	.st194{fill:#676C4F;}
	.st195{fill:#353C27;}
	.st196{fill:#50563D;}
	.st197{fill:#656B4E;}
	.st198{fill:#60664A;}
	.st199{fill:#717758;}
	.st200{fill:#6E7455;}
	.st201{fill:#686E51;}
	.st202{fill:#5A6044;}
</style>
<g>
	<g>
		<path class="st0" d="M648.6,527.4c0,21.9,0,43.8,0.1,65.8c0,2.4-0.5,2.8-2.8,2.8c-67.1-0.1-134.3-0.1-201.4-0.1
			c-0.2-0.3-0.4-0.6-0.6-0.9c-0.7-2.5-0.2-5-0.4-7.5c-0.1-1.5-0.2-2.9-1.4-4.8c-1.5,4.2-0.3,8.1-1,11.8c-0.1,0.6-0.5,1-0.8,1.5
			c-83.7,0-167.5,0-251.2,0.1c-2.2,0-2.9-0.3-2.9-2.8c0.1-196.7,0.1-393.3,0-590c0-2.1,0.4-2.7,2.6-2.7c152.4,0.1,304.7,0.1,457.1,0
			c2.5,0,2.8,0.6,2.8,2.9c-0.1,69.7-0.1,139.3-0.1,209c-0.8,0.5-1.6,0.1-2.4-0.1c-5.6-3.9-10.3-8.9-15.3-13.4
			c-11.8-10.5-23.4-21.1-35.1-31.8c-8.6-7.8-17.2-15.7-25.8-23.5c-8.6-7.8-17.2-15.6-25.9-23.4c-8.4-7.6-16.7-15.1-25.1-22.8
			c-8.8-8.1-17.8-16-26.6-24.1c-8.4-7.7-16.9-15.3-25.3-23c-8.8-8.1-17.8-16.1-26.6-24.1c-7.6-6.9-15.2-13.8-22.8-20.6
			c-1.9-1.7-3.1-2-5.2-0.2c-4.5,3.8-8.6,8-12.9,12c-11.7,10.9-23.4,21.9-35.1,32.8c-14.7,13.6-29.3,27.3-44.1,40.9
			c-5.4,5-11,9.9-16.1,15.2c-1.8,1.9-3.7,3.9-6.7,3.6c-1.6-0.4-2.9-1.2-4.2-2.2c-5.4-3.4-11.6-4.1-17.7-5c-4.7-0.7-9.3-0.6-14,0.1
			c-0.3,0-0.7,0.1-1,0c-0.4-0.1-0.4-0.1-0.1,0c5,2.5,8.6,6.8,13.3,9.7c3.6,3.3,8,5.3,11.9,8.1c1.4,2,0,3.3-1.2,4.4
			c-7.1,6.4-13.9,13.1-21,19.6c-8.3,7.5-16.4,15.2-24.6,22.8c-12.5,11.5-24.7,23.2-37.3,34.6c-3.6,3.3-6.8,6.9-10.6,9.9
			c-1.5,1.2-2.2,2.9-2.2,4.9c0,1.3,0,2.5,0,3.8c0,99.5,0,199.1,0,298.6c0,6.5,0,6.5,6.7,6.5c52.4,0,104.7,0,157.1,0
			c1,0,2.1-0.1,3.1,0c2.6,0.2,3.5-1.1,3.4-3.5c-0.1-8.2-0.8-16.3-1.1-24.5c-0.6-19.9-1.4-39.9,3.6-59.5c2.7-10.6,7.2-20.4,14.6-28.8
			c1.8-2,3.7-3.7,5.9-5.3c1.4-1,2.9-1.5,4.4-0.2c1.3,1.1,1.9,2.6,2.3,4.1c1.1,3.9,2.2,7.7,3.4,11.5c0.3,1,0.5,2.8,1.8,2.3
			c1.3-0.5,0.3-2,0-3c-1.4-4.8-2.8-9.7-4.2-14.6c-0.3-1.1-0.8-2.2-0.6-3.4c0.6-2.3,2.7-3,4.6-3.8c7.7-3.3,15.7-5,24-5.5
			c4.5-0.3,8.9-0.1,13.4,0c1.3,0,2.5,0,3.6,0.9c0.8,0.9,0.7,2.1,0.8,3.2c0.1,0.7,0,1.5,1,1.4c0.8,0,1.1-0.7,1.2-1.4
			c0-0.9-0.3-1.8,0.4-2.6c1.3-0.8,2.6-0.7,4-0.5c11.9,2,22.3,6.9,31,15.4c1.2,1.2,2.5,2.4,2.5,4.3c-0.3,3.3-3.1,4.9-4.8,7.2
			c-1.6,2.1-3.4,3.9-5.1,6c-3.6,4.3-7.3,8.5-10.5,13.1c-2.7,3.8-5.3,7.6-6.7,12c-0.5,1.3-0.6,2.6-0.3,3.9c0.1,0.2,0.3,0.5,0.5,0.7
			c0.5,0.3,1,0.4,1.6,0.4c0.4,0,0.9-0.1,1.3-0.1c2.1-0.5,4-1.6,5.6-3c2-1.6,4.2-2.9,5.5-5.2c1.1-1.5,2.6-2.6,3.5-4.2
			c0.5-0.7,1-1.3,1.5-1.9c3.1-5.8,6.9-11.3,9.8-17.3c0.8-1.6,1.5-3.5,3.9-3.2c2.1,0.8,2.7,2.7,3.5,4.5c5.5,11.9,8.2,24.6,9.7,37.6
			c2.1,18.1,1.1,36.3,1.4,54.5c0,2.9-1.7,5.9,0.1,8.7c1.5,1.2,3.3,0.7,5,0.7c47.3,0,94.5,0,141.8,0
			C644.8,526.5,646.9,526,648.6,527.4z"/>
		<path class="st1" d="M646.5,211.8c0.7,0.2,1.4,0.5,2.1,0.7c0,105,0,210,0,314.9c-50,0-100.1,0-150.1,0c-1.4,0-3,0.7-4.2-0.7
			c1.9-1.5,4.2-1,6.3-1c46.5,0,92.9,0,139.4,0c7.2,0,6.8,0.5,6.8-6.8c0-99.3,0-198.5,0-297.8C646.8,218,646.2,214.9,646.5,211.8z"/>
		<path class="st2" d="M444.3,595.2c0,0.3,0,0.5,0,0.8c-1.4,0-2.8,0-4.2,0c0-0.5,0.1-1.1,0.1-1.6
			C441.8,594.1,443.1,594.3,444.3,595.2z"/>
		<path class="st3" d="M646.5,211.8c1,1.3,1.4,2.7,1.4,4.4c0,102.4,0,204.8,0,307.2c0,2.4-0.4,3.4-3.2,3.4
			c-49.8-0.1-99.6-0.1-149.4-0.1c-0.3,0-0.7,0-1-0.1c0.8-16.1,1-32.2,0.4-48.3c-0.6-15.8-2.5-31.5-8.2-46.5c-1.1-3-2.5-5.9-3.8-8.8
			c-0.5-1.1-1-2.1-2.3-2.3c-0.5-3.8,1.6-6.8,3.4-9.8c0.4-0.1,0.7-0.1,1.1,0.1c3.2,2.5,4.6,6.3,6.3,9.8c6.1,12.3,9.1,25.6,10.9,39.1
			c1.4,10.6,1.4,21.4,1.9,32.1c0.3,7.2-0.6,14.5-0.5,21.8c0.1,4.2,0.1,4.3,4.2,4.3c42.4,0,84.9,0,127.3,0c4,0,4.2-0.2,4.2-4.4
			c0-97.6,0-195.2,0-292.8c0-2.6-0.7-4.6-2.7-6.4c-11.7-10.6-23.4-21.2-35.1-31.8c-8.4-7.7-16.9-15.3-25.3-23
			c-11.3-10.3-22.7-20.6-34.1-30.9c-8.3-7.5-16.5-15.1-24.8-22.5c-11.4-10.2-22.7-20.6-34.1-30.9c-11-10-22.1-19.9-33-30
			c-10.7-9.8-21.6-19.4-32.2-29.3c-1.9-1.8-3.5-1.9-5.7-0.1c-4.2,3.6-8.2,7.5-12.2,11.3c-11.8,11.1-23.7,22.2-35.6,33.3
			c-14.5,13.5-28.9,27.2-43.6,40.4c-2.9,2.6-5.5,5.5-8.4,8.2c-1.1,1-2.1,2.2-3.4,3.1c-1.4,0.6-2.7,1.3-3.4,2.7
			c-0.9,1.1-2,2.2-2.8,3.4c-0.4,0.4-0.9,0.7-1.4,1.1c-1,0.8-1.9,1.8-2.8,2.7c-1.1,0.8-0.4,2.9-2.2,3.2c-2.1,0.7-3.9,2-5.5,3.5
			c-11.5,11.3-23.5,22.1-35.4,33.1c-14.6,13.6-29.1,27.3-43.9,40.7c-4,3.6-7.8,7.6-11.9,11.1c-2.1,1.8-3.1,4-2.9,6.7
			c0.1,0.9,0,1.8,0,2.8c0,96.1,0,192.2,0,288.3c0,6.5,0,6.5,6.4,6.5c47.1,0,94.1,0,141.2,0c6.1,0,6.3,0,6.1-6
			c-0.4-11.2-1.4-22.3-1.2-33.5c0.3-16.6,1.1-33.2,6.7-49.1c4-11.6,10.1-21.7,19.3-29.9c1-1,2.1-2,3.3-2.8c1.5-0.6,1.6-2.6,3.2-3.1
			c1.1,0.2,2,0,3-0.6c15.3-8.6,32-10.5,49.2-9.7c1.5-0.2,2.8,0.2,4.2,0.5c12.9,1.7,24.8,5.8,35,14.1c2.8,2.3,5.7,4.6,7.5,7.9
			c-0.8,3.2-2.3,5.8-5.8,6.6c-1-4-4.5-5.9-7.4-8.1c-8.5-6.7-18.3-10.6-29.2-11.2c-1.2,0.8-2.4,0.9-3.6-0.1c-0.3-0.2-0.5-0.5-0.8-0.5
			c-14.3-0.7-28.4,0.1-41.7,6.3c-1.1,0.5-2.5,0.8-2.6,2.5c-1,1.2-2.4,2.1-3.5,3.3c-1-1-1.9-1.3-3.2-0.2c-7.7,6-13,13.8-16.7,22.7
			c-4.4,10.5-6.2,21.5-7.2,32.7c-1,11.9-0.7,23.7-0.4,35.6c0.2,9.4,1.1,18.8,1.2,28.2c0,2.6-0.7,3.3-3.3,3.3
			c-55.2-0.1-110.5-0.1-165.7,0c-3.1,0-3.5-1.1-3.5-3.8c0.1-51,0.1-102,0.1-152.9c0-51.1,0-102.2-0.1-153.3c0-2.9,0.8-4.9,3-6.5
			c4.9-3.5,8.7-8.1,13.2-12.1c9-8,17.5-16.6,26.4-24.8c10.1-9.3,20.1-18.5,30-27.9c7.5-7.2,15.4-14,23-21.2c0.9-0.9,4.1-1.6,1.4-4
			c0.8-1,2-1.1,2.9-2c1.5-1.1,2.6-2.4,3.9-3.6c0.3-0.3,0.6-0.6,0.9-0.9c0.3-0.3,0.6-0.6,0.9-0.9c0.5-0.5,1-1,1.5-1.6
			c0.8-0.9,1.7-1.7,2.9-2.1c2,0,3.4-1.3,4.7-2.5c8.2-7.7,16.4-15.4,24.6-23.2c11-10.3,22-20.6,33-30.9c9.7-9,19.3-18,29-27
			c8.2-7.6,16.4-15,24.6-22.6c1-0.9,1.6-1.2,2.7-0.1c4.5,4.2,9.2,8.3,13.8,12.5c11.6,10.4,23.2,20.9,34.7,31.3
			c5.5,5,11,10.1,16.5,15.1c11.8,10.7,23.7,21.4,35.5,32.1c6,5.4,11.8,10.9,17.8,16.3c11.3,10.2,22.7,20.4,34,30.6
			c5.5,5,11,10.1,16.5,15.1c11.8,10.7,23.7,21.4,35.5,32.1c5.3,4.8,10.5,9.6,15.8,14.4C639.7,205.6,643.1,208.7,646.5,211.8z"/>
		<path class="st4" d="M438.5,532.6c0-3.8,0-7,0-10.3c-0.1-3.2-0.2-6.5-0.3-9.7c-0.1-1.5,0.4-2,1.9-2c1.4,0,2.1,0.3,2.1,1.9
			c0.1,8.6,1,17.3,0.3,25.9c-0.3,3.7,1.3,5.8,2.2,8.6c0.4,1.3,1.5,2.4-0.7,3.2c-1.4,0.5-1,2-0.9,3c0.2,6.3,0.4,12.7,0.6,19
			c0.1,1.5,0.3,3-2.1,3c-2.3,0-1.8-1.6-1.8-2.9c0-9-0.8-17.9-0.4-26.9c0-0.8-0.5-1.7-0.9-2.5c-2.3-4.9-4.6-9.8-6.8-14.7
			c-0.5-1.2-2-2.4,0.5-3.6c2.7-1.2,2.2,1.2,2.9,2.1C436.3,528.5,436.3,530.9,438.5,532.6z"/>
		<path class="st5" d="M483.9,411.2c-1.2,3.2-2.3,6.4-3.5,9.6c-3.1,3.1-3.6,7.7-6.3,11c-2.4,3-3.5,6.9-6.2,9.7
			c-1.6-0.3-3.8,3.2-4.8-0.8c1.7-3.7,4.3-6.9,6.3-10.4c1.7-2.7,4-5,4.7-8.2c0.4-1.6,1-3.1,2.1-4.3c1.1-1.4,2-2.8,2.9-4.3
			c1.1-1.3,1.7-3.2,3.4-4C483.5,409.7,484.2,410,483.9,411.2z"/>
		<path class="st6" d="M475,412.6c2.2-1.8,4-3.8,5.5-6.2c0.4-0.5,0.8-0.5,1.3-0.3c1.1,1.9-0.5,3.1-1.2,4.5c-0.7,1.3-2.3,2-2.3,3.6
			c-0.1,1.2-0.7,2.1-1.4,2.9c-1.8,2.2-2.5,5.1-4.9,6.8c-1.3,1.5-2,3.5-2.9,5.3c-1.5,1.8-2.9,3.8-4.4,5.7c-1.2,0.9-2.2,1.9-3.3,2.9
			c-0.7,0.7-1.5,1.6-2.6,0.8c-1.2-0.8-0.5-1.8,0.1-2.7c0.5-0.7,0.6-1.4,0.9-2.2c1.2-3.3,4.3-5.5,5.2-9
			C467.9,420.5,472.3,417.2,475,412.6z"/>
		<path class="st7" d="M292.1,115c-1.3,1.5-2.5,3-4.3,3.9c-3.8-0.7-7-2.8-10.5-4.2c-1.4-0.5-2.5-1.7-4.1-1.6
			c-4.3-3.3-8.7-6.5-13-9.8c-1.3-1,0-0.8,0.5-0.9c0.7-0.4,1.3-0.2,1.9,0.2c2.6,1.9,5.7,2.8,8.7,3.9c6.5,2.3,12.9,4.8,19.3,7.2
			C291.4,113.8,292.6,113.6,292.1,115z"/>
		<path class="st8" d="M439.7,419.6c0.2,3.9,0.3,7.8,0.5,11.7c0.1,1.6-0.4,2.2-2,2.4c-2,0.2-1.9-1.1-2-2.4
			c-0.3-7.8-0.6-15.6-0.9-23.4c0-1.5-0.9-3.7,2.1-3.6c2.8,0.1,1.7,2.4,1.8,3.6c0.2,3.9,0.1,7.8,0.1,11.7
			C439.5,419.6,439.6,419.6,439.7,419.6z"/>
		<path class="st9" d="M276.1,79.7c-3,2.1-5.2,0.3-7.7-1.4c-5.3-3.5-10.9-6.6-16.7-9.4c-1.4-0.7-2.5-1.1-1.5-3.1
			c1.2-2.3,2.3-0.6,3.3-0.1c5.6,2.6,11,5.6,16.2,9c1.1,0.7,2.2,1.7,3.8,1.4C275.4,76.5,276.5,77.6,276.1,79.7z"/>
		<path class="st10" d="M441.6,462.4c-1.1,1.3-0.5,2.9-0.5,4.3c0,1.4-0.1,2.5-1.9,2.5c-1.7,0-1.8-1-1.8-2.2
			c-0.2-8.2-0.5-16.4-0.6-24.5c0-1.1-0.6-2.6,1.6-2.7c2.1-0.1,2.1,1.1,2.2,2.6c0.1,5.4,0.3,10.8,0.5,16.2c0,1.1-0.5,2.3,0.6,3.2
			c0.3,0.1,0.4,0.3,0.3,0.4C441.8,462.3,441.7,462.4,441.6,462.4z"/>
		<path class="st8" d="M441.8,490.1c0,4,0,8.1,0,12.1c0,1.2,0.1,2.3-1.6,2.3c-1.7,0.1-2.1-0.7-2.1-2.2c-0.2-8.3-0.4-16.6-0.7-24.8
			c-0.1-2,0.9-2.3,2.4-2.4c1.9-0.1,1.6,1.2,1.6,2.3c0,4.3,0,8.5,0,12.8C441.6,490.1,441.7,490.1,441.8,490.1z"/>
		<path class="st11" d="M283.6,83.7c3,3.5,7.1,5.8,10.3,9c2.2,2.2,4.5,4.3,6.8,6.3c1.2,1,0.9,1.7,0,2.8c-1.1,1.2-1.8,0.8-2.7-0.2
			c-5.6-5.6-11.7-10.6-18.1-15.3c-1.3-0.9-1.2-2-1.1-3.2C280.9,80.6,281.3,80.6,283.6,83.7z"/>
		<path class="st12" d="M407.7,461c1.2-0.3,1.2,0.8,1.4,1.5c2.8,7.5,5.6,15,8.5,22.5c0.6,1.6,0,2.2-1.4,2.8
			c-1.8,0.8-1.8-0.5-2.2-1.5c-2.8-7.4-5.4-14.9-8.4-22.2C404.7,461.7,406,461.4,407.7,461z"/>
		<path class="st12" d="M419.6,493c1.3-0.1,1.5,0.8,1.8,1.5c3.1,7.4,6.2,14.9,9.4,22.3c0.7,1.5-0.1,2-1.2,2.6
			c-1.4,0.6-1.8,0-2.3-1.2c-3.1-7.5-6.3-15.1-9.5-22.6C416.7,493.4,418.6,493.5,419.6,493z"/>
		<path class="st12" d="M396.3,428.8c1.7-0.5,1.8,0.6,2.1,1.4c2.5,7.6,5,15.3,7.6,22.8c0.6,1.7,0,2.2-1.4,2.7
			c-1.8,0.7-1.9-0.6-2.3-1.6c-2.5-7.5-4.9-15-7.5-22.6C394.1,429.8,394.7,428.9,396.3,428.8z"/>
		<path class="st13" d="M262.3,103.1c-0.3-0.6-1-0.7-1.6-0.8c11.7-2.3,22.8-0.8,33.3,4.9c-0.4,1.1,1.3,2.1,0.2,3.2
			c-1.2,1.1-2.4,0.1-3.5-0.3c-7.9-2.9-16-4.7-24.3-5.6C265,104.3,263.6,103.9,262.3,103.1z"/>
		<path class="st14" d="M282.2,68.5c0.9,1.7,1.1,3.6,1,5.5c-1.9,2.1-3.5,1.2-4.7-0.7c-1.3-2-2.4-4.1-3.6-6.2
			c-0.4,0.6,0.1,1.2,0.1,1.8c0,1.3,0.8,2.4,1.1,3.6c0.2,0.8,0.2,1.8-0.7,2.1c-0.9,0.4-1.5-0.4-1.9-1.1c-1.1-2.1-2.2-4.3-3.1-6.5
			c-0.5-1.2-0.9-2.4-1.8-3.3c0-0.2-0.1-0.5-0.1-0.7c0.2-1.4-0.4-2.7-0.9-4c-0.1-1.1-0.5-2-1.1-2.9c0-0.2,0-0.5,0-0.7
			c0.8-1.2-1.9-3.1,0.9-3.8c0.3,0.1,0.6,0.2,0.8,0.5c1.1,2,2.3,3.8,2.6,5.7c-0.2-0.3,0-0.7,0.5-1.1c2.7,0.9,2.8,3.7,3.9,5.7
			c1.4,2.6,2.3,5.6,6.1,5.2C281.8,67.5,282.1,68,282.2,68.5z"/>
		<path class="st15" d="M282.2,68.5c-6.4,0.7-6.8-4.8-9-8.6c-0.6-1.1-0.9-2.4-1.9-3.2c-2-1-2.4-3.2-3.5-4.9l0,0
			c-0.3-0.3-0.5-0.7-0.8-1c-0.4-0.4,0.2-2.3-1.4-1c-1.1-1.4-0.3-3-0.7-5.3C271.3,52.8,279.8,58.5,282.2,68.5z"/>
		<path class="st16" d="M192.5,53.9c-1.5-0.3-1.1-0.8-0.1-1.2c2.3-1,4.8-1.6,7.3-2.1c7.5-1.3,15-1.4,21.9,2.4
			c0.3,0.9,1.9,1.2,1.3,2.6c-0.3,0.2-0.6,0.4-1,0.4C212.2,53.5,202.3,54.6,192.5,53.9z"/>
		<path class="st17" d="M386.2,404.7c-0.1-2.4,1.7-2.8,3.5-3.3c1.9,6.4,3.7,12.7,5.7,19.1c0.4,1.4,0.5,2.3-1.2,2.8
			c-1.9,0.6-2.1-0.5-2.4-1.8c-1.3-4.6-2.7-9.2-4.1-13.8C387.3,406.6,387.3,405.4,386.2,404.7z"/>
		<path class="st18" d="M223.6,35.9c8.3,4,13.9,10,15.2,19.5c-1.4,0.2-0.6,1.7-1.5,2.3c-3-1.3-4.7-3.6-5.3-6.7
			c-0.7-4.4-3.9-7.3-6.4-10.6c-0.5-0.7-1.4-1.2-1.8-2C223.4,37.5,223,36.7,223.6,35.9z"/>
		<path class="st19" d="M268.7,63.7c1.5,0.2,1.5,1.4,2,2.4c1.3,2.7,2.7,5.4,4.4,8.8c1-2.9-1.7-4.5-0.9-6.5c1-0.2,1.4,0.6,1.9,1.2
			c1.1,2.6,3.3,4.3,4.9,6.6c0.5,0.8,1,1.5,1.8,0.3c0.3-0.3,0.6-0.6,1.1-0.3c0.9,2.6,0,5.1-0.2,7.6c-1.5-0.5-2.9-2.8-4.7-0.6
			c-1.3-0.9-1.9-2.2-2.7-3.4c-0.6-1.4-1.6-2.6-2.7-3.6C272.2,71.8,269.6,68.1,268.7,63.7z"/>
		<path class="st20" d="M228.6,61.7c-7.6,2.2-15.1,2-22.4-1.3c1.2-1.6,1.9-2,4.7-0.8c2.9,1.3,5.9,0.8,8.8,0.9c0.8,0,1.6-0.2,2.6-0.8
			c-3-1.4-6.2-1.5-9-2.5c-0.3,0-0.6,0-1,0c-2.1-0.6-4.8,0.5-6.3-2c0-0.4,0.2-0.7,0.5-0.9c1.6-0.6,3.1-0.3,4.7,0c1,0.1,2,0.3,3,0.4
			c0.5,0.1,1,0.2,1.4,0.3c1.1,0.3,2.2,0.4,3.3,0.7c1.3,0,2.7,0.7,4-0.4l0,0c0.4-0.5,0.8-0.7,1.4-0.8c1.3,0,2.5,0.2,3.2,1.5
			c0.1,0.6-0.6,0.6-0.8,1.1C230.3,57.5,229.3,59.6,228.6,61.7z"/>
		<path class="st21" d="M447.8,450.5c1-4.9,3.9-8.8,6.9-12.6c0.7,0.2,1.1,0.8,1.2,1.5c0,0.7-0.3,1.3-0.7,1.8
			c-1.2,1.5-1.6,3.3-2.3,5.3c1.6-0.1,2.1-1.4,3.1-1.8c0.5-0.2,0.9-0.1,1.4,0.1c0.7,1.2-0.4,2-0.7,3c-0.2,0.4-0.5,0.8-0.8,1.1
			c-1,0.7-1.7,1.6-2.3,2.6c-0.7,1-1.3,2.1-2.3,2.9c-1.1,0.6-2,1.7-3.5,0.9l0,0C447.3,453.8,447.4,452.2,447.8,450.5z"/>
		<path class="st7" d="M266.5,103.8c9.4,0.6,18.4,3.1,27.1,6.5c2-0.8-2.3-2.4,0.5-3c1.2,0.7,2.4,1.4,3.6,2.1
			c-0.6,1.1-1.5,2.1-2.6,2.8c-2.3,0.8-4-0.8-6-1.5c-1.7-0.6-3.3-1.5-5.1-0.4c-5.8-0.9-11.1-3.5-16.7-5.2
			C266.7,104.9,266.2,104.6,266.5,103.8z"/>
		<path class="st12" d="M231.2,58.3c1.1-0.3,1.1-1.4,1.4-2.2c2-0.5,3,1.6,4.7,1.8c0.7,0.1,1.1,0.6,1.5,1c1.5,0.7,3.1,1.5,4.6,2.2
			c0.9,0.4,2.3,0.3,1.5,2.2c-0.7,1.7-1.5,1.9-3.1,1.3c-3.5-1.4-6.8-3.3-10.7-3.6C230.4,60,230.4,59.2,231.2,58.3z"/>
		<path class="st22" d="M452.2,568.5c-1.1,0.2-1.1-0.7-1.4-1.2c-1.6-3-3.2-6-4.8-9c-0.7-1.2-0.6-2,0.8-2.7c1.3-0.7,2-0.5,2.6,0.8
			c1.4,3,2.9,5.9,4.6,8.8C455.4,567.7,453.2,567.7,452.2,568.5z"/>
		<path class="st23" d="M444.3,595.2c-1.4-0.1-2.9,0.7-4-0.8c-0.1-3.7-0.1-7.3-0.2-11c0-1.1,0-2,1.6-2c1.3,0,2.2,0.1,2.2,1.8
			C444,587.2,444.2,591.2,444.3,595.2z"/>
		<path class="st20" d="M470,430.5c-1.5,3.8-4.4,6.8-6.2,10.4c-0.7,1-1,2.2-1.8,3.1c-2.3,2.2,0,2.5,1.4,3.2
			c-1.6,2.2-3.4,4.2-5.8,5.6c-4.3-0.9-1-3.3-1-5c0-1.2,1.3-1.7,1.3-2.8c0.6-2,2.3-3.2,3.1-5c0.7-1.2,1.7-2.1,2.6-3.2
			c0.2-0.2,0.4-0.5,0.6-0.7c1.6-1.8,2.4-4.4,4.5-5.8C469.2,430.1,469.6,430.2,470,430.5z"/>
		<path class="st24" d="M237.4,58.2c-2,0.2-3.3-1.2-4.8-2.1c-1.3-1.2-2.7-2.5-3.5-4.1c-0.6-1.9-1.9-3.3-3.1-4.8
			c-1.5-1.9-2.7-4-3.6-6.1c-0.4-0.9-1.1-1.9,0.4-2.5c4.3,3.2,7,7.7,9.8,12.1c0.5,3.1,2.9,4.9,4.8,6.9
			C237.6,57.7,237.6,57.9,237.4,58.2z"/>
		<path class="st25" d="M212.5,56.8c0.2,0,0.5,0,0.7,0c1.6,0.6,3.3,1,5,1.4c0.7,0.2,1.4,0.3,1.3,1.3c-0.1,0.6-0.5,1-1.2,1.1
			c-1.5,0.2-3.1,0.8-4.4,0.2c-4-1.6-8.3-1.5-12.4-2.7c-2.1-0.9-4.2-1.9-6.2-2.8c0.3-1.8,1.7-1.1,2.7-1.3c1.5,0,3-0.2,4.4,0.6
			C205.5,56.3,209,56.7,212.5,56.8z"/>
		<path class="st26" d="M201.4,58.1c1.9-1.1,3.7,0.2,5.5,0.4c2.8,0.4,5.6,1.2,8.4,1.6c1.1,0.2,2.6,0.5,3.6-0.8
			c-1.6-1.7-4.3-0.7-5.7-2.6c3.4,0.1,6.6,1.1,9.8,2.1c0.4,0.1,0.9,0.5,1,0.8c0.1,0.6-0.4,0.8-1.1,1c-3.7,1.1-7.3,1.4-11.1,0.2
			c-1.7-0.5-3.7-2.1-5.6-0.4C204.6,59.6,203,58.9,201.4,58.1z"/>
		<path class="st27" d="M222.9,38.8c-0.6,3.3,2,5.2,3.4,7.6c1.1,1.8,3.9,2.7,2.8,5.6c-3.9-2.8-5.5-7.1-7.5-11.1
			c-1.2-2.5-2.2-5.2-3.7-8.8c2.4,1.7,4,2.8,5.6,3.9c0.2,0.7,0.5,1.4,0.7,2.2C224,38.6,223.3,38.4,222.9,38.8z"/>
		<path class="st28" d="M273.3,113c0.4-0.8,1-0.9,1.7-0.4c4.1,2.4,8.9,3.6,12.9,6.3c-0.8,1.2-1.7,2-3.3,1.6
			C280.6,118.3,276.7,116.1,273.3,113z"/>
		<path class="st29" d="M198,54.7c-0.9,0.1-2-0.3-2.8,0.6c-0.9-0.5-1.8-0.9-2.7-1.4c1.4-1.1,3.1-0.6,4.6-0.6
			c8.7-0.2,17.3-0.4,25.8,2c-0.9,1.9-2.7,1.3-4.2,1.3c-0.9-1.4-2.1-1.1-3.3-0.7c-0.3-0.2-0.5-0.4-0.8-0.7c-1.1-0.8-2.3-0.1-3.4-0.5
			c-1.6-0.9-3.2-0.8-4.9-0.2c0,0.2,0,0.5,0,0.7c-0.5,0.6-1.1,0.6-1.8,0.4C202.5,54.5,200.3,53.9,198,54.7z"/>
		<path class="st29" d="M455.5,439.5c-0.3-0.5-0.5-1.1-0.8-1.6c3-4.7,6.6-8.9,10.3-13c1,0.5,0.7,1.3,0.3,2c-1.6,2.4-3.3,4.7-4.9,7.1
			c-1,1.7-2.5,3.1-3.2,5C456.7,439.5,456.2,439.9,455.5,439.5z"/>
		<path class="st30" d="M283.8,76.1c-0.2,0.2-0.5,0.5-0.7,0.7c-0.9,0.8-1.8,0.6-2.8,0c-1.1-2.7-4.4-3.8-4.9-6.9
			c-0.3-1.7-2-2.9-1.4-4.8c2.2,1.9,3.3,4.5,4.5,7c1.1,2.1,2.4,2.9,4.6,1.9C284.1,74.5,283.9,75.4,283.8,76.1z"/>
		<path class="st31" d="M456.8,447.8c0.6,0.4,0.8,1,0.2,1.4c-2.1,1.6-0.7,2.5,0.5,3.5c-1.7,1.8-3.8,3-6.3,3.3
			c-0.4-0.5-0.2-1.1-0.1-1.6c0-0.1,0.1-0.3,0.1-0.4c0.6-1,0.8-2.3,2.1-2.8c0.6-1,1.5-1.8,2.1-2.8c0.2-0.2,0.5-0.5,0.7-0.7
			C456.4,447.5,456.6,447.5,456.8,447.8z"/>
		<path class="st32" d="M463.3,447.2c-1.2-0.5-2.8,1.7-3.5-0.3c-0.6-1.5,0.7-2.5,1.9-3.2c1.3-0.5,2.6-0.8,3.9-1.3
			c0.8-0.3,1.4-0.2,1.1,0.9C465.7,444.7,464.8,446.2,463.3,447.2z"/>
		<path class="st33" d="M434.7,393.2c1.2,0,2.4,0,3.6,0.1c0.2,1.2,0.4,2.5,0.5,3.7c0.1,1.7-1.4,1-2.3,1.2c-1,0.2-1.8,0.1-1.7-1.3
			C434.9,395.7,434.8,394.4,434.7,393.2z"/>
		<path class="st34" d="M231.2,58.3c0,0.9,0,1.8,0,2.7c-0.7,0.9-1.7,0.7-2.6,0.7c-0.4-0.2-0.8-0.4-1.2-0.6c2.7-2.9-0.5-3-2-4
			c0.8-0.4,1.4-0.7,2.1-1C228.7,56.8,229.9,57.5,231.2,58.3z"/>
		<path class="st35" d="M466.6,443.2c-0.9-1.2-1.6-0.1-2.3,0.3c-0.9,0.6-1.7,1.3-2.6,0.1c0.1-1.4,1-2.2,2.1-2.8
			c0.1,1.3,0.7,1.4,1.7,0.7c0.7-0.4,1.5-2,2.4-0.1C467.5,442.1,467.1,442.7,466.6,443.2z"/>
		<path class="st36" d="M265.7,49.9c3-1.7,1.8,1,2.2,2c-2.6,0.3,0.4,2.8-1.3,3.4C265.4,53.7,265.9,51.7,265.7,49.9z"/>
		<path class="st37" d="M237.4,58.2c0-0.2,0-0.5,0-0.7c-0.3-0.8-0.6-1.6-0.9-2.6c0.8,0.2,1.5,0.3,2.2,0.5c0,1.2,0,2.3,0.1,3.5
			C238.2,58.8,237.7,58.7,237.4,58.2z"/>
		<path class="st38" d="M267.9,58.8c0.6,1.3,2,2.6,0.6,4.2c-1-1-0.8-2.3-1.3-3.5C267.4,59.2,267.6,59,267.9,58.8z"/>
		<path class="st39" d="M447.8,450.5c0,1.6,0,3.2,0.1,4.9C446.7,453.8,447,452.2,447.8,450.5z"/>
		<path class="st39" d="M447.9,455.4c1.1-0.5,2.3-0.9,3.4-1.4c0,0,0,0,0,0c0.4,1.3-0.8,1.4-1.4,2.1
			C449,456.5,448.3,456.5,447.9,455.4z"/>
		<path class="st29" d="M224.3,54.6c-0.3,0.6-0.8,0.8-1.4,0.8c-0.4-0.8-0.9-1.6-1.3-2.4C222.7,53.2,223.5,53.9,224.3,54.6z"/>
		<path class="st40" d="M267.9,58.8c-0.2,0.2-0.4,0.5-0.6,0.7c-0.2-1.1-0.5-2.3-0.7-3.4C267.8,56.6,267.9,57.7,267.9,58.8z"/>
		<path class="st41" d="M449.9,456.1c0.5-0.7,0.9-1.4,1.4-2.1c1.1,0.7,0.2,1.3,0,2C450.8,456.1,450.4,456.1,449.9,456.1z"/>
		<path class="st42" d="M441.6,462.4c0-0.2,0-0.4,0-0.6c0.6-0.4,1.1-0.7,2-1.2C443.5,462,442.6,462.2,441.6,462.4z"/>
		<path class="st0" d="M481.7,406.2c-0.4,0.1-0.9,0.1-1.3,0.2c-10-11.9-23.1-18.3-38.3-20.9c-1.4-0.2-2.7-0.5-4.1-0.7
			c-2-4.6-1.8-9.5-1.4-14.4c0.4-1.3,1.3-2.3,1.8-3.5c0.9-1.4,1.2-3.3,3.1-4c6.3,1.1,10.8-2.2,14.8-6.3c1.1-1.1,2.1-2.4,3.4-3.4
			c4-4,7.7-8.4,10.9-13.1c0.7-1,1.2-2.2,2.3-3c5.4-6.1,9.6-13.1,13.8-20c0.4-0.7,1-1.4,1.3-2.1c-0.3-0.7-0.8-0.2-1.1-0.1
			c-4.8,1.6-9.3,3.9-13.7,6.3c-7.3,4-13.8,9-19.9,14.6c-0.3,0.3-0.7,0.7-1,1c-1.7,1.7-3.6,3.3-4.9,5.4c-1.2,1.4-2.5,2.8-3.4,4.5
			c-2.6,4.4-4.5,8.9-3.3,14.2c0.1,0.3,0.1,0.7,0.1,1c-0.2,1.8-1.7,3-2.3,4.6c-0.6,1.1-0.9,2.4-2.2,3c-1.7,0.6-2.1,1.9-2.1,3.5
			c-0.1,2.3,0.4,4.5,0.6,6.8c0.1,1.5,0.2,3-0.8,4.2c-7.5,0.3-15.1,0.1-22.6,1.2c-9.7,1.4-18.9,4.2-27.2,9.3c-1.7,1-2,0.2-2.8-0.7
			c-2.9-1.4-3.6-4.5-5.5-6.7c-1.9-3.7-5.3-5.9-8.6-8.1c-1.6-1.1-3.2-2.2-4.6-3.5c-7-6.1-15.1-10.2-23.6-13.7
			c-1.6-0.6-3.4-0.7-4.8-1.7c-0.2-0.1-0.3-0.2-0.5-0.3c0,0.2,0.1,0.4,0.3,0.5c0.9,0.9,1.7,1.7,2.6,2.5c0.4,0.4,0.8,0.9,1.2,1.3
			c0.2,0.2,0.4,0.5,0.5,0.7c0.5,0.9,1.2,1.7,2,2.4c4.6,4.6,9.1,9.1,13.7,13.7c4.2,4.5,8.8,8.5,13.6,12.4c1.4,1.2,2.9,2.3,4.5,3.2
			c1.4,1,3.3,1.2,4.2,2.9c-2.6,2.8-5.3,5.5-7.6,8.4c-9.9,12.4-14.3,26.9-16.5,42.3c-2.6,18.2-2,36.5-0.9,54.9
			c0.2,3.7,0.2,7.4,0.4,11.1c0.1,2.2-0.5,3.1-2.9,3c-6.2-0.1-12.5,0-18.7,0c-43.6,0-87.2,0-130.8,0.1c-3,0-3.9-0.6-3.9-3.8
			c0.1-98.6,0.1-197.2,0-295.9c0-2.4,0.8-4.1,2.5-5.7c21.6-19.9,43.1-39.9,64.6-59.9c10-9.2,20-18.5,29.8-27.8
			c1.5-1.5,3.2-1.6,5-1.7c1.6-1.2,3.4-0.8,5.1-0.6c2.2,0.7,4.5,0.7,6.7,0.3c0.5-0.1,1-0.2,1.4-0.3c0.5-0.1,0.9-0.2,1.4-0.2
			c1.3,0.1,2.2,1,3.3,1.6c0.3,0.2,0.5,0.3,0.8,0.5c1.6,1.1,3,2.3,4,3.9c0.1,0.2,0.2,0.4,0.3,0.6c0.3-0.3,0-0.6,0.1-0.9
			c0-0.3,0.1-0.6,0.3-0.9c2.1-1.5,2.3-3,0.6-5.1c-2.6-3.1-5.1-6.5-7.7-9.6c-1.1-1.3-2.5-2.4-2.5-4.3c2.5-3.7,5.9-6.4,9.1-9.3
			c11.6-10.9,23.3-21.6,35-32.4c19.2-17.9,38.5-35.7,57.7-53.6c1.4-1.3,2.2-1.3,3.7,0c9.1,8.3,18.3,16.5,27.4,24.8
			c18.7,16.9,37.4,33.8,56.1,50.7c11,10,21.9,20,33,30c18.5,16.8,37.1,33.5,55.6,50.3c11.1,10.1,22.1,20.2,33.2,30.2
			c5.1,4.7,10.2,9.4,15.4,13.9c2.1,1.8,2.9,3.7,2.8,6.5c-0.1,82.2-0.1,164.5-0.1,246.7c0,16.3-0.1,32.5,0.1,48.8
			c0,2.6-0.8,3.3-3.3,3.3c-43.7-0.1-87.4-0.1-131.1,0c-2.9,0-3.4-1-3.3-3.6c0.2-12.9,0.8-25.8,0-38.7c-1.1-18.7-3.5-37.2-11.6-54.4
			c-1.9-4-4-7.8-6.6-11.3c-1.1-2.9,0.9-5.2,1.5-7.8c-0.1-0.3,0.7-0.7,0-1c-0.4,0.4-0.6,0.9-0.9,1.4C484,404.7,483.2,406,481.7,406.2
			z"/>
		<path class="st43" d="M311.4,109.4c3.7,4.6,7.4,9.1,10.9,13.8c2.6,3.3,2.5,3.4-1.1,5.6c-1.6,0-2.2-1.3-2.8-2.5
			c-2.1-3.7-4.9-6.8-7.7-10c-1-1.2-2.4-2.2-2.1-4.1C309.2,111,310.2,110.1,311.4,109.4z"/>
		<path class="st8" d="M434,384.1c-0.2-3.9-0.4-7.8-0.8-11.6c-0.3-2.8,0.6-4.1,3.5-3.6c0.7-0.1,1.1,0.1,0.9,0.9
			c-0.7,5,0.6,10,0.5,15C436.7,384.6,435.4,384.4,434,384.1z"/>
		<path class="st44" d="M308.6,112.2c3.4,4.6,7.8,8.5,10.5,13.6c-1.1,1.1-2.3,0.1-3.4,0.1l0.1,0c-0.9-1.2-2.2-2-3.6-2.6
			c-0.7-0.6-1.2-1.4-1.7-2.1c-1.2-2.5-4.1-3.7-5.1-6.4C305.7,113.2,306.7,112.2,308.6,112.2z"/>
		<path class="st19" d="M376.6,386.9c1.8,2.2,3.5,4.5,4.8,7.1c0.3,1.8-0.7,2.6-2.2,3.2c-1.9-1-2.8-2.9-4.4-4.3
			c-0.2-0.2-0.4-0.5-0.5-0.8c-1.1-1.7-2.5-3-4.2-4.1c-1.1-0.8-2.3-1.5-3.1-2.6c-0.6-0.9-1.3-1.6-2.3-1.9c-0.3-0.1-0.5-0.3-0.8-0.5
			c-0.4-0.4-0.8-0.9-1.1-1.4c-0.4-0.8-1.4-1.4-0.5-2.5c3.3,0.1,4.8,2.8,7,4.6c1,1.1,2.1,2,3.2,2.9c1.1,0.8,1.8,0.5,2.5-0.4
			C375.9,385.8,376.2,386.5,376.6,386.9z"/>
		<path class="st45" d="M266.5,103.8c5,2.2,10.3,3.8,15.6,5.2c0.8,0.2,1.1,0.8,1.7,1c2.7-1.9,4.4,1.1,6.7,1.5c0.8,0.9,2.6,1,2.5,2.8
			c-0.3,0.2-0.5,0.5-0.8,0.7c-9.4-3.5-18.9-7-28.3-10.5c-0.7-0.3-1.2-0.7-1.5-1.3C263.7,103.4,265.1,103.6,266.5,103.8z"/>
		<path class="st46" d="M303,124.7c-1.8-0.1-3.6-0.1-5.4-0.2c-2.4-1.5-0.1-1.9,0.6-2.7c0.4-0.3,0.9-0.1,1.3,0
			c1.4,0.2,2.7,0.1,4.5,0.2c-0.8-0.7-1.4-0.8-1.9-1c-0.7-0.5-1.4-0.9-1.1-2c0.2-0.6,0.7-0.7,1.3-0.7c2.8-0.9,4.6,1.2,6.6,2.3
			c0.7,1.4,3.3,1.6,2.5,3.9c-0.4,0.1-0.8,0.1-1.2,0.2C307.9,125.1,305.4,125.1,303,124.7z"/>
		<path class="st47" d="M375.2,392.5c1.9,1.2,3.2,2.7,4.1,4.7c-0.9,0.8-1.9,1.6-2.8,2.3c-1.7-0.5-3.3-1.2-4.7-2.4
			c-0.4-0.4-0.5-1.1-0.1-1.2C373.2,395.2,374.1,393.7,375.2,392.5z"/>
		<path class="st48" d="M308.8,121.1c-2.2-0.9-4.1-2.4-6.5-2.9c0.5-1.6,1.8-2.4,3-3.4c2,1.9,4.3,3.6,5.6,6.1
			C310.4,122.1,310.4,122.1,308.8,121.1z"/>
		<path class="st49" d="M290,112.2c-2.2-0.4-3.8-2.6-6.3-2.1c0.7-2.2,2.3-1.4,3.6-0.9c2.6,0.9,5.1,2.1,7.7,3.1c-0.5,0.5-1,1-1.5,1.4
			C292.4,113.1,291.2,112.6,290,112.2z"/>
		<path class="st15" d="M484.3,403.4c0.4-0.8,0.7-1.6,1.6-2c1.3-0.1,1,0.8,0.8,1.5c-0.8,2.7-1.6,5.5-2.3,8.2c0,0-0.3,0-0.3,0
			s-0.3,0-0.3,0c-0.3-0.7-0.7-1.1-1.4-1.4C482,407.3,483.9,405.6,484.3,403.4z"/>
		<path class="st50" d="M301,119c0.3,0.7,0.7,1.2,1.5,1.5c-0.1,2.4-2.1,1.7-3.5,2.1c-0.3-0.3-0.5-0.5-0.8-0.8
			C299.2,120.8,300.1,119.9,301,119z"/>
		<path class="st51" d="M290,112.2c1.4-0.1,2.6,0.3,3.5,1.5c-0.2,0.2-0.4,0.5-0.6,0.7C292,113.6,291,112.9,290,112.2z"/>
		<path class="st52" d="M484.3,403.4c0.5,2.4-0.9,4.3-1.9,6.3c-0.7,1.5-1.6,2.9-2.8,4.2c-0.7-0.2-1.4,0.4-2.1,0
			c-0.7-1.3,0.4-1.6,1.1-2.3c1.4-1.6,2.9-3.1,3-5.4C482.4,405,483.2,404.1,484.3,403.4z"/>
		<path class="st53" d="M470,430.5c-0.5,0-0.9,0-1.4,0c-0.4-0.5,0.4-0.9,0-1.4c0.3-2.2,1.1-4.1,2.8-5.5c1.6,0.6,1.9-2,3.5-1.4
			C474.5,425.7,472.1,428.1,470,430.5z"/>
		<path class="st54" d="M474.8,422.2c-0.7,0.7-1.4,1.4-2,2.2c-0.3,0.4-0.4,1.3-1.1,0.7c-0.3-0.3-0.3-1-0.4-1.6
			c2.2-1.9,3.1-4.7,4.8-6.9c0.5,0.3,0.7,0.8,0.7,1.4C476.2,419.5,475.5,420.9,474.8,422.2z"/>
		<path class="st55" d="M476.9,418.1c-0.6-0.3-0.7-0.8-0.7-1.4c0.9-0.7,1.3-1.7,1.4-2.8c0.7,0.2,1.4-2.2,2.1,0
			C479,415.4,478.1,416.9,476.9,418.1z"/>
		<path class="st56" d="M456.8,438.8c0.3-2.2,1.6-3.7,3.5-4.8c0.5,1.8-1.5,2.6-1.8,4.5c2.8-0.4,3.4-3.7,5.9-3.8
			c0.6,0.7,0.5,1.4,0,2.1l0,0c-1.3,0.7-2.4,1.6-3.3,2.7c-0.4,0.5-0.9,1.1-1.4,1.5c-1,0.8-2.1,2.4-3.5,1.2
			C455,441.2,456.3,439.9,456.8,438.8z"/>
		<path class="st57" d="M464.5,436.8c0-0.7,0-1.4,0-2.1c0.8-2.3,2.1-4.2,4.1-5.5c2.4,0.4-0.4,0.9,0,1.4
			C467.5,432.8,466.1,434.9,464.5,436.8z"/>
		<path class="st36" d="M267.9,51.9c1.2,1.6,2.3,3.2,3.5,4.9c0,0.4,0.1,1-0.2,1.3c-0.4,0.6-0.9,0-1-0.3
			C270,55.6,267.7,54.2,267.9,51.9z"/>
		<path class="st58" d="M274.1,65.1c0.1,1.7,1.7,3,1.4,4.8c-0.5-0.5-0.9-1-1.4-1.5C274.3,67.3,272.6,66.2,274.1,65.1z"/>
		<path class="st53" d="M222.9,38.8c0.3-0.6,0.8-0.7,1.4-0.7c3.9,2.7,5.7,7.1,8.4,10.7c0.4,0.6,0.7,1.2-0.1,1.8
			C228.7,47.2,226.2,42.6,222.9,38.8z"/>
		<path class="st59" d="M280.3,76.8c0.9,0,1.8,0,2.8,0c0,0.7-0.1,1.5-0.9,1.6C281.2,78.6,280.8,77.6,280.3,76.8z"/>
		<path class="st26" d="M204.2,55.4c0.7,0,1.4,0,2.1,0c1.9,1.2,4.3,0.3,6.2,1.4c-3.6,0.4-7.1,0.5-10.4-1.3
			C202.8,54.8,203.5,54.8,204.2,55.4z"/>
		<path class="st60" d="M206.3,54.7c1.6-1,3.2-1.1,4.8,0.1c0.2,0.1,0.3,0.2,0.3,0.4c-0.1,0.1-0.2,0.2-0.2,0.2
			C209.6,54.5,207.9,54.7,206.3,54.7z"/>
		<path class="st61" d="M215.3,56c1.3-1,2.6-1.4,3.3,0.7C217.6,56,216.5,56,215.3,56z"/>
		<path class="st62" d="M211.1,55.3c0-0.2,0-0.4,0-0.6c1.2,0.1,2.5-0.5,3.5,0.6C213.4,55.3,212.3,55.3,211.1,55.3z"/>
		<path class="st63" d="M456.8,438.8c-0.1,1-0.3,2-0.4,3.3c2.2-0.3,2.9-2.6,4.6-3.3c0.6,0.3,0.3,1,0.7,1.4c-0.8,1.9-2.2,3.3-3.5,4.8
			c-0.2,0.3-0.5,0.3-0.7,0c-0.5,0-0.9,0-1.4,0c-2.9-0.2-3.1-0.8-1.4-4.2c0.2-0.5,0.5-0.9,0.7-1.4
			C455.9,439.3,456.4,439.1,456.8,438.8z"/>
		<path class="st29" d="M454.8,440.9c-0.1,1.6-1.9,3.7,1.4,4.2c-1.1,1.1-1.8,3.6-3.6,2.7c-2.2-1.1,0.6-2.6,0.6-4.1
			C453.1,442.7,453.5,441.4,454.8,440.9z"/>
		<path class="st64" d="M457.5,445.1c0.2,0,0.5,0,0.7,0c0.1,1.2-1,1.8-1.4,2.8c-0.2,0-0.5,0-0.7,0C456,446.6,457.1,446,457.5,445.1z
			"/>
		<path class="st64" d="M455.5,448.5c-0.1,1.4-1,2.2-2.1,2.8C453.4,449.9,454.3,449.1,455.5,448.5z"/>
		<path class="st40" d="M461.7,440.2c-0.6-0.3-0.7-0.8-0.7-1.4c0.7-1.4,1.8-2.3,3.5-2.1C463.5,437.9,462.6,439.1,461.7,440.2z"/>
		<path class="st65" d="M204.2,55.4c-0.7,0-1.4,0-2.1,0c-1.3-0.9-2.7-0.7-4.1-0.7c1.8-1.4,3.9-0.5,5.9-0.6
			C204.7,54,204.3,54.9,204.2,55.4z"/>
		<path class="st25" d="M362.7,227.6c3.8-17.5,10.7-33.5,21.8-48.4c0.7,2.7,1.1,4.8,0.9,7c-0.5,2.9,0.5,5.9,0.1,8.8
			c-0.6,6.2-0.6,12.4-1.8,18.5c-0.1,0.4-0.1,0.7-0.3,1.1c-0.3,0.9-0.7,1.9-1.1,2.8c-0.4,1-0.9,1.9-2.2,1.7c-1.3-0.2-1.3-1.3-1.3-2.4
			c0-0.6-0.1-1.1,0-1.7c0-0.4,0.1-0.7,0.3-1c1.1-3,1.3-6.1,1.5-9.2c0-0.5,0.1-1.1,0.3-1.6c1.1-3.9,1.7-7.8,1.8-11.8
			c0.4-1,0.5-2.1,0.6-2.9c-1.5,3.6-2.9,7.6-4,11.7c-2.1,6.4-3.2,13.1-6,19.4c-1.7,3.7-3.3,7.4-7,9.7c-1.1,0.7-1.5,2.2-1.9,3.6
			c-0.2,0.7,0,2-1.5,1.7C361.2,232.3,361.3,230,362.7,227.6z"/>
		<path class="st66" d="M342,153c-0.9,2.6-0.4,5.3,0,7.9c0.1,0.4,0.1,1.2,0.6,1c3-0.8,2.8,1.8,3.5,3.3c2.8,6.3,5.1,12.8,7.1,19.4
			c1.3,4.1,1,4.3-3.6,4.4c-2.2-1.9-2-4.5-2.2-7c-0.2-4.9-2.3-9.3-4.6-13.5c-1.2-2.2-2.9-4-2.5-7c0.2-1.5-1.2-3.2-2.1-4.7
			c-4.1-7.5-8-15-12.7-22.1c-0.9-1.4,0.1-1.8,0.9-2.4c0.9-0.7,1.7-1,2.5,0.3c1.6,2.8,3.4,5.5,5.1,8.2c0.7,1.1,1.1,2.3,2.2,3
			c2.1,1,2,3.5,3.2,5.1c0.7-0.9,0.1-1.8,0.2-2.7c0-1.4-0.2-2.9,0.7-4.2c0.3-0.3,0.7-0.3,1.1-0.1c0.3,0.3,0.5,0.6,0.6,1
			C342.3,146.3,342.4,149.6,342,153z"/>
		<path class="st25" d="M398.1,291.4c-0.5-1.7-1.1-3.5-0.5-5.3c1.4-0.1,2.2,0.9,3,1.6c10.9,9.5,19.5,20.7,26,33.6
			c0.2,0.4,0.3,0.9,0.4,1.3c-4,0.2-7.4-1.1-10-4.1c-1.2-1.2-2.1-2.6-2.8-4.1c-4.3-8-9.2-15.7-14.4-23.1c-0.1-0.2-0.4-0.2-0.6-0.1
			C398.8,291.3,398.5,291.6,398.1,291.4z"/>
		<path class="st13" d="M303.1,268.1c-1.4-0.8-2.5-1.9-4-3.7c15,1.5,28.7,4.8,41.2,12.5c0.1,1.5,1.7,2,2.2,3.3
			c0.3,0.9,0.7,1.7,0,2.5c-0.8,0.9-1.6,0.5-2.5,0.1c-2-0.9-3.9-1.8-6-2.4c-1.8-0.5-3.4-1.3-4.8-2.3c-2.1-1.4-4.2-2.6-6.8-2.9
			c-3.8-0.4-6.7-3.3-10.4-4.1c-1.1-0.6-1.9-1.5-3-2.1c-1-0.7-2.1-1-3.3-1.1c-0.6-0.1-1.1-0.2-1.6-0.4
			C303.6,267.3,302.8,266.6,303.1,268.1z"/>
		<path class="st15" d="M452.7,335.7c10.4-10.6,23-17.7,37.1-22.7c-0.2,1-0.5,1.6-1.1,2c-1.3,1-2.5,2.2-4,3.1
			c-1.2,0.6-2.1,1.7-3.3,2.2c-1.1,0.4-2,1.1-2.6,2.1c-0.4,0.6-1,1.1-1.7,1.4c-1.8,0.6-2.7,2.2-4.2,3.2c-1.2,0.5-2.4,1.1-3,2.4
			c-0.8,1.2-1.8,2.2-3.1,2.8c-1.7,0.6-2.7,2.2-4.3,2.8c-2.3,1.1-4.1,2.9-6.1,4.3c-0.8,0.5-1.4,1.8-2.6,1.1c-1.2-0.7-1.1-1.9-1-3
			C452.8,336.8,452.9,336.3,452.7,335.7z"/>
		<path class="st13" d="M296.3,155.9c13,1.5,25.2,5.5,36,13c0,0.2,0.1,0.4,0.2,0.6c0.4,1.3,2.2,2.7,1.1,4c-1.2,1.4-2.9,0.1-4.4-0.2
			c-2.5-0.6-4.1-3-6.6-3.4c-0.5-0.1-0.9-0.2-1.4-0.3c-1.1-0.3-2-1.3-3.3-0.6c-2.2,0.1-3.6-1.7-5.4-2.4c-0.3-0.1-0.6-0.2-0.8-0.4
			c-1-0.7-2.1-1.4-2.9-2.2c-0.2-0.2-0.4-0.4-0.6-0.6c-0.7-0.8-1.7-1.2-2.6-1.6c-2.2-1.1-4.4-2.2-6.6-3.3
			C297.8,157.7,296.4,157.5,296.3,155.9z"/>
		<path class="st67" d="M487.4,317.1c-4.1,7.2-8.5,14.3-14,20.6c-3.2,1.3-4.7,4.3-6.9,6.7c-0.9,1.1-2.4,1.1-3.5,1.9
			c-1,1-2,1.8-3.2,2.6c-2.4,1.5-3.1,1.1-3.3-2c1.7-2.8,4.6-4.7,5.9-7.8c0.5-1,1.1-2,1.8-2.8c3.9-3,7.6-6.1,10.8-9.8
			c2.3-2.6,5.2-4.3,7.8-6.5C484.8,319.6,485.1,316.6,487.4,317.1z"/>
		<path class="st15" d="M340.6,104.5c0.2-1.4,0.6-2.8,1.9-4.3c1.6,9.2,5.6,17.2,6.6,26.1c0.5,4.4,0.3,8.7-0.9,12.9
			c-6.6-2.2-6-8-6.5-13.2c-0.2-1.6,0.1-3.2-0.3-4.8c-0.2-0.5-0.4-1-0.6-1.6c-0.1-0.4-0.1-0.7,0-1.1c0.1-4.5,0.4-9-0.2-13.6
			C340.7,104.9,340.6,104.7,340.6,104.5z"/>
		<path class="st68" d="M303.1,268.1c0-3.4,2-0.2,2.9-0.9c0.2,0.2,0.4,0.5,0.6,0.7c2,1.5,4,3.1,6.6,3.7c7.7,4.2,15.8,7.7,22.7,13.2
			c1.1,1.8,2.7,3,4.5,4.1c0.4,0.4,0.6,0.8,0.5,1.4c-0.9,2.3-2.7,1.9-4.3,1.1c-5.1-2.6-9.9-5.7-14.8-8.7c-2.7-1.7-5.1-4.1-8.4-5
			C309.7,274.8,306.3,271.6,303.1,268.1z"/>
		<path class="st69" d="M450.6,278.8c5.7-4.6,11.9-8.2,18.6-11.1c1.1,1.3-0.1,2-0.8,2.8c-1,1-2,1.8-3.2,2.6c-0.9,0.9-2.5,1.3-2.6,3
			c-0.5,1.4-1.9,2-3,2.8c-2.9,1.2-4.8,3.7-7.1,5.6c-3.1,3.6-6.2,7.1-10.1,9.9c-1,0.5-2,1.5-3.1,0.3c-0.8-1-0.4-2.2,0.1-3.2
			c0.3-0.6,0.7-1.2,1-1.8c0.2-1.2,1.3-1.9,1.8-3c1.6-2.1,3.4-4,5.5-5.5C448.8,280.4,449.8,279.7,450.6,278.8z"/>
		<path class="st70" d="M310.7,175.4c-6-4.8-11-10.4-15.1-16.9c1.9-1,3.2,0.1,4.6,1.2c4.2,3.2,8.7,5.9,13.5,8.1
			c1.3,0.5,2.5,1.1,3.4,2.1c3.7,2.4,7.4,4.8,10.9,7.6c1,0.8,1.9,1.8,1.1,3.2c-0.7,1.3-1.9,1-3,0.5c-3.6-1.6-6.8-3.8-10.4-5.3
			c-2.3-1.2-4.8-2.2-6.6-3.9c0.6,0.7,1.7,1.4,2.1,2.6C311.1,174.9,310.9,175.2,310.7,175.4z"/>
		<path class="st71" d="M444.4,247.2c-1.5,3.3-3.8,6.2-4.7,9.9c-0.4,1.7-1.7,0.9-2.8,0.6c-1.2-0.3-1.3-0.8-0.9-1.9
			c2.9-8.4,6.4-16.5,10.4-24.4c0.8-1.6,1.6-1.1,2.6-0.6c1.3,0.6,1.5,1.3,0.9,2.6c-1.5,3.3-4,6.2-4.1,10.1
			C446.1,245,444.9,246,444.4,247.2z"/>
		<path class="st8" d="M432.7,262.9c1,0.2,2,0.5,3,0.6c1.5,0.3,1.8,0.9,1.3,2.4c-2.3,7.8-3.9,15.8-4.8,24c-0.1,1.1,0.3,2.8-2.2,2.5
			c-2.5-0.3-1.9-1.7-1.7-3.1c0.5-5.2,1.3-10.3,2.5-15.3c0.8-3.4,1.4-6.7,0.9-10.2C431.6,263.1,432,262.8,432.7,262.9z"/>
		<path class="st17" d="M470,202.5c-0.3,0.4-0.5,0.8-0.8,1.2c-5.8,6-9.8,13.3-14.2,20.3c-0.8,1.3-1.3,2.9-3.5,1.5
			c-2.3-1.4-0.5-2.6,0.1-3.6c4.1-7.1,8.6-13.9,13.7-20.3c0.5-0.6,0.9-2,2-1C468.2,201.2,469.6,201.1,470,202.5z"/>
		<path class="st70" d="M472,268.4c-1.9,5-3.3,10.3-6.9,14.6c-2.7,0.7-4.5,2.5-5.7,4.9c-0.2,0.4-0.5,0.8-0.8,1.2
			c-1.4,1.3-3.4,1.8-4.3,3.6c-1.1,1.2-2.5,2-3.8,3c-0.7,0.6-1.5,1.2-2.5,0.4c-1-0.9-0.7-1.9,0-2.8c0.7-1,1.4-2.1,1.8-3.3
			c0.3-0.8,0.6-1.5,1.1-2.1c1.1-0.9,2.1-1.9,3-3c3.4-3.3,7.3-6.1,10.2-9.9c3.3-1.7,4.5-5.1,6.5-7.8l-0.1,0
			C471.7,266.8,472.7,266.7,472,268.4z"/>
		<path class="st72" d="M476.9,186.9c2.8-0.9,4-3.6,6.1-5.3c2.4-2,4.6-4.2,6.9-6.3c1.1-1,1.9-0.9,2.8,0.2c1,1.1,1,1.9-0.2,2.8
			c-6.4,5.4-12.3,11.4-17.7,17.8c-0.7,0.8-1.5,1.4-2.7,1.1c-2.4-1.5-2.5-1.7-0.7-4.9c1.7-1.8,3.2-3.8,5.1-5.3
			C476.6,187,476.8,186.9,476.9,186.9z"/>
		<path class="st73" d="M498.3,168.7c2.6-1.4,3.9-3.4,3.6-6.6c-0.9-8.4,3-14.8,9-20.2c1,1.5,0.1,2.8-0.4,4.1
			c-1.5,3.9-4,7.4-3.8,11.8c0.2,0.8,0.2,1.6,0,2.4c0,0.5-0.6,0.9-0.2,1.5c0.4,0,0.7,0,1,0.3c0.5,0.5,0.9,1,1.4,1.5
			c0.6,0.5,1.2,1.1,0.7,2c-3.1,2.1-6.3,4-9.3,6.2c-1.5,1.1-2.4,1-3.2-0.6C496.4,169.7,498,169.6,498.3,168.7z"/>
		<path class="st66" d="M362.7,227.6c0.4,2.3-0.7,4.8,0.7,7c1.5,1.6,0.6,3.6,1.1,5.4c0.3,0.8,0.5,1.5,0.6,2.4c0,0.3-0.1,0.6-0.2,0.9
			c0,0.2-0.3,0.3-0.1,0.6c0.2-0.3,0.4-0.5,0.7-0.7c0.5-0.2,1-0.2,1.4-0.1c0.3,0.1,0.6,0.3,0.8,0.6c-3.7,2.2-3.4,5.7-3.3,9.3
			c0.1,1.1,1.2,2.8-1.3,3c-1.7,0.2-2.5-0.1-2.6-2c-0.5-7.9-1.1-15.8-1.9-23.6C358.2,226.5,361.1,228.3,362.7,227.6z"/>
		<path class="st10" d="M436.6,361.1c0.5,1.9-1.1,1.6-2.3,1.9c-1.5,0.4-1.7-0.5-1.8-1.7c-0.7-8.4-1.4-16.8-2.1-25.2
			c-0.1-1.5,0-2.4,1.8-2.5c2-0.2,1.9,1,2,2.3C435,344.2,435.8,352.6,436.6,361.1z"/>
		<path class="st8" d="M365.6,305.9c-0.3-2.5-0.5-5-0.8-7.5c-0.2-1.4-0.2-2.5,1.7-2.7c1.7-0.2,2.2,0.6,2.4,2.1
			c1.1,7.7,2.3,15.5,3.4,23.2c0.2,1.4,0.4,2.7-1.8,2.9c-2.2,0.2-2-1.1-2.3-2.5c-1-4.4-0.6-9.2-2.8-13.4
			C365.3,307.3,365.9,306.7,365.6,305.9z"/>
		<path class="st12" d="M386.5,389c0.4,1.7-1.1,1.2-1.9,1.6c-1,0.5-1.6,0.5-1.9-0.8c-2-8.2-4-16.4-6-24.7c-0.3-1.3,0.3-1.9,1.5-2.1
			c0.9-0.1,2-0.7,2.3,0.6C382.5,372,384.5,380.5,386.5,389z"/>
		<path class="st25" d="M421.4,248c-2.5-4.4-3.6-9.2-3.8-14.2c-0.2-6.5-0.1-13-0.1-19.9c1.6,0.4,1.8,1.1,2.1,1.9
			c1.2,4.9,1.6,10,3.2,14.9c0.4,2.8,0.7,5.6,1.7,8.3C426.1,243,424.6,245.8,421.4,248z"/>
		<path class="st10" d="M361.3,265.9c0-0.6,0-1.1-0.1-1.7c-0.2-1.4,0-2.4,1.9-2.5c1.8-0.1,2.1,1,2.2,2.3c0.5,5.6,1,11.2,1.5,16.8
			c0.2,2.2,0.4,4.3,0.7,6.5c0.2,1.5,0.2,2.6-1.9,2.8c-1.8,0.1-2-0.8-2.2-2.3C362.8,280.5,362,273.2,361.3,265.9
			C361.3,265.9,361.3,265.9,361.3,265.9z"/>
		<path class="st71" d="M353.2,194.4c2-0.6,2.9,0,3.4,2.2c1.8,7.4,3.3,14.8,4.5,22.3c0.2,1.2,1.2,3-1.5,3.3
			c-2.4,0.3-2.2-1.2-2.5-2.7c-1.1-7.3-2.6-14.5-4.4-21.6c-0.3-1.1-0.3-2.3-0.5-3.4C352.6,194.1,352.8,194.1,353.2,194.4z"/>
		<path class="st23" d="M378.6,355.5c0.5,1.9-1.1,1.5-2,1.9c-1.3,0.6-1.6-0.4-1.8-1.3c-1.6-8.2-3.2-16.4-4.8-24.6
			c-0.2-1-0.2-1.9,1.2-1.9c1,0,2.4-0.9,2.8,0.9C375.4,338.9,377,347.2,378.6,355.5z"/>
		<path class="st6" d="M353.6,381.6c-4.9-4.4-9.4-9.2-13.7-14.1c-0.8-0.8-1.3-1.9-2.3-2.5l0.1,0c0-1.6,1-1.2,1.9-0.9
			c1,0.4,1.9,1.3,3.1,1.3c0.8,0.2,1.7,0.3,2.1,1.1c0.6,0.5-1.5,0.6-0.2,1.2c1.1,0.5,2.1,1.3,2.8,2.3c3.2,2.8,6.4,5.5,10.3,7.1
			c1.4,2.1,3.2,3.8,5.2,5.3c1,1.6,2.4,2.8,3.3,4.5c0.2,0.7-0.1,1.2-0.7,1.7c-0.3,0.1-0.6,0.1-0.9,0.1c-1.1-0.5-2-1.5-3.2-1.8
			c-2-1.1-4.2-2.2-5.6-4.2C355.4,381.8,354.6,381.4,353.6,381.6z"/>
		<path class="st15" d="M456.6,227.7c7-9.2,16.8-13.3,27.6-15.8c1.1-0.3,2.3-0.4,3.4-0.5c0.5-0.1,1.3-0.3,1.5,0.4
			c0.3,0.8-0.5,1.2-1,1.6c-0.2,0-0.3,0-0.5,0.1c-3.2,1.5-6.6,2.8-9.2,5.5c-0.7,0.8-1.7,1.1-2.8,1.1c-3.5,0.5-6.1,2.8-9,4.6
			c-1.2,0.8-2.3,2.1-3.9,0.7c-1.3-1.2-2,0.1-2.8,0.8C459,226.8,458.4,228.3,456.6,227.7z"/>
		<path class="st66" d="M428.5,321.8c-0.7-6.9-1.3-13.8-1-20.7c0-1-0.7-2.8,1.5-2.7c2.1,0.1,1.5,1.7,1.5,2.8
			c-0.5,7.3,1.7,14.4,2.4,21.6c0.4,4.6,0.7,4.6-3.8,5.4c-2.3-0.7-0.9-2.2-0.8-3.4C428.8,323.7,429.1,322.8,428.5,321.8z"/>
		<path class="st74" d="M344.7,366.9c-0.4-0.8-1.2-0.7-2-0.7c-1.9-1.3-4.5-1.9-5.1-4.5c0.5-0.8,1.2-0.6,1.9-0.4
			c8.6,3.5,16.9,7.7,23.9,14c-0.1,1.4,1.2,3.5-1.8,3.4c-1.3-0.2-2.3-1-3.4-1.5c-0.3-0.1-0.5-0.3-0.8-0.5c-1.2-1.5-2.4-3.1-4.6-3
			c-1.9-0.5-3.2-1.9-4.8-2.8C347.4,368.9,344.8,369,344.7,366.9z"/>
		<path class="st75" d="M324.5,185c-4.8-2.3-9.3-5.3-13.1-9c-0.4-1.1,0.4-1.2,1.1-1.4c1.6,0.2,2.8,1.2,4.2,1.8
			c1.3,0.9,2.5,1.8,3.9,2.5c0.8,0.9,1.7,1.6,3,1.6c2.2,0.4,4,1.7,5.9,2.6c1.5,0.7,3.1,1.4,5.1,0.8c-1.3-2.3-3-3.9-5.1-5
			c-2-2.5-5.8-3-7.1-6.4c0.1-0.3,0.4-0.6,0.7-0.7c0.5-0.1,1-0.1,1.5,0c0.5,0.2,0.9,0.5,1.3,0.8c3.1,2.5,6.6,4.3,9.7,6.8
			c0.7,0.5,1.3,1.1,1.7,1.8c0.4,0.9,1.2,1.4,1.8,2c1.1,1,1.9,2.1,1.2,3.6c-0.7,1.5-2,2.1-3.7,1.9c-0.7-0.1-1.4-0.1-2.1-0.1
			c-3-0.2-5.4-2.2-8.1-3.3C325.7,185.3,325.2,184.8,324.5,185z"/>
		<path class="st76" d="M384.8,195.2c0.3-3-0.7-6,0.6-9c0.1,0.9,0.1,1.7,0.2,2.6c0.6,2.4,0.1,4.8,0.3,7.2c-0.1,3.5,0.3,7.1-0.2,10.6
			c-0.6,10.7-2.3,21.2-8.6,30.3c-0.3,0.5-0.8,0.8-1.2,1.2c-3,0.2-3.8-1.4-3.5-4.1c0.3-2.9,1.1-5.6,1.2-8.5c0.1-1.1,0.1-2.2,1.2-2.9
			c0.3-0.1,0.7-0.1,1,0c1.4,1.3,0.8,3,0.7,4.5c-0.1,1.2-0.8,2.4,0.5,3.6c1.6-1.1,1.7-2.9,2.3-4.4c0.1-0.3,0.2-0.6,0.3-0.9
			c0.6-1.2,1-2.4,1.2-3.8c0.5-2.4,1.6-4.7,2-7.1l0,0C384.5,208.2,384.2,201.7,384.8,195.2z"/>
		<path class="st77" d="M340.5,297.8c-5.7-3.1-10.9-7-15.8-11.3c-0.4-0.3-0.9-0.5-0.7-1.1c0.3-0.9,1.2-0.8,1.7-0.4
			c1.4,1,3.1,1.5,4.5,2.5c1.8,1.3,3.7,2.3,5.7,3.3c2.2,1.6,4.7,2.8,7.2,3.8c0.6,0.2,1.4,0.5,1.9-0.2c0.5-0.7,0-1.3-0.5-1.8
			c-1.6-1.5-2.8-3.3-4.9-4.2c-1.2-0.7-2.3-1.5-2.3-3.1c0-0.4,0.2-0.7,0.4-1c0.3-0.2,0.6-0.3,1-0.4c3.4,1.1,6.3,3.1,8.6,5.9
			c0.5,1.7,1.7,2.9,2.7,4.3c0.7,1,1.2,2,0.4,3.1c-0.8,1.2-1.9,1.6-3.2,1.3c-1.6-0.3-3.1-0.9-4.7-0.9
			C341.7,297.9,341.1,297.7,340.5,297.8z"/>
		<path class="st54" d="M451.3,288c-0.2,0.7-0.5,1.4-0.7,2.1c-1.2,1.4-2.1,3.1-3.3,4.5c-1.7,1.4-2.6,3.3-3.4,5.8
			c2.9-0.5,4-2.5,5.7-3.7c1.7-1,2.9-2.6,4.3-4c1.5-1.2,3.3-2.1,4.2-4c0.2-0.2,0.5-0.5,0.7-0.7c0.5-0.9,1.2-1.7,2-2.4
			c0.6-0.6,1.3-1.7,2.2-0.8c0.8,0.8-0.3,1.6-0.7,2.4c-4.6,6-9,12.1-15.2,16.6c-1.5-0.1-2.8,0.9-4.3,0.9c-1.3,0-2.6,0-3.4-1.2
			c-0.8-1.2,0.1-2.2,0.7-3.1c0.4-0.6,0.5-1.3,0.8-1.9c0.4-1.1,1-2,1.5-3c0.2-0.4,0.5-0.8,0.9-1.1c1.6-1.3,3.1-2.7,4.2-4.5
			c1.2-1,1.9-2.8,3.8-2.7c0.2,0.2,0.2,0.4,0.2,0.6C451.4,287.9,451.4,288,451.3,288z"/>
		<path class="st67" d="M488.2,213.3c-2.4,3.6-5,7-7.8,10.2c-1.1-0.2-1.8,0.6-2.5,1.2c-2.1,2.2-4.2,4.5-6.9,6.1
			c-0.9,0.5-1.9,0.9-2.7,1.6c-0.8,0.6-1.5,1.5-2.5,1.9c-1.8,0.2-3.6,0.5-4.4-1.7c0.4-1.7,2.1-2.3,2.9-3.7c0.9-0.7,1.9-1.2,2.9-1.8
			c5.7-3.4,10.7-7.9,16.2-11.6c1.4-1,2.7-2.1,4.5-2.5C487.9,213.2,488,213.3,488.2,213.3z"/>
		<path class="st69" d="M467.9,190.4c-1.3-6.2-0.5-12.1,2.2-17.8c1.9-3.9,4-7.8,6-11.6c1.6,2.1,0.7,4.3,0.3,6.4
			c-0.2,1.3-0.5,2.7-0.8,4c-0.1,0.4-0.2,0.7-0.3,1c-1.5,3.3-2.1,6.8-2.6,10.3c-0.1,0.3-0.2,0.6-0.3,0.9c-0.3,0.6-0.6,1.4-1.2,1.6
			c-2.6,0.5-2.5,2.6-2.7,4.4C468.3,190,468.1,190.3,467.9,190.4z"/>
		<path class="st78" d="M541.4,151.1c-2.6,2.5-5.3,4.9-8.3,6.8c-3.7,2.3-7.6,4-11.7,5.4c-0.3,0.1-0.7,0.1-1,0.2
			c-1.3-0.2-3,0.2-2.7-2.1c0.1-0.3,0.2-0.6,0.4-0.9c1-1.2,2.5-1.5,3.7-2.3c0.7-0.3,1.5-0.6,2.1-1c2.6-1,5.2-2.2,7.9-2.8
			c0.2-0.1,0.4-0.1,0.6-0.1c0-0.1-0.1-0.2-0.3-0.1c-0.2,0.1-0.4,0.2-0.6,0.3c-1,0.3-1.9,0.7-2.9,0.2c-0.4-0.4-0.7-0.8-0.6-1.4
			c4-2.7,8.6-2.7,13.2-2.9C541.5,150.2,541.4,150.7,541.4,151.1z"/>
		<path class="st79" d="M474.8,172.4c-0.3-3.9,1.9-7.4,1.3-11.3c-0.1-0.2,0-0.3,0.2-0.4c1.3-0.3,0.7,1,1.2,1.3
			c0.3,1.9,1.2,3.6,0.7,5.6c-0.7,3.4,0.3,7-0.5,10.4l0-0.1c-0.8,1.6-0.5,3.2-0.2,4.8c0.2,0.8,0.2,1.6-0.5,2.3
			c-0.5-0.3-0.5-0.6-0.2-1c-0.3,0.3-0.3,0.8-0.5,1.2c-0.2,1-0.3,2.2-1.5,2.4c-1.4,0.2-1.3-1.3-1.9-2c-0.5-0.6-0.8-1.3-0.8-2.1
			C472.1,179.5,472.8,175.8,474.8,172.4c0.2,0.2,0.3,0.4,0.3,0.6c0.1,0.4,0,0.8,0.1,1.2c0-0.3,0-0.6,0-0.9
			C475.2,172.9,475.1,172.6,474.8,172.4z"/>
		<path class="st80" d="M440.3,361.9c0-0.2-0.1-0.4-0.1-0.6c0.1-0.1,0.1-0.3,0.2-0.4c0.3-0.4,0.7-0.6,1.1-0.8c1.4-1,2.2-2.5,3.2-3.9
			c1-1,1.5-2.5,3.1-2.8c1.3,0.4,1,1.2,0.8,2.2c-0.5,2.5,0.8,3.6,3.1,2.7c1.6-0.6,3-1.7,3.9-3.2c0.3-0.4,0.7-0.7,1-1
			c0.9-0.5,1.6-1.3,2.6-1.6c1-0.3,1.6,0,1,1.2c-3.2,3.8-6.5,7.3-11.1,9.4c-2.5,1.1-4.9,1.7-7.5,0.5
			C441,363.1,440.6,362.6,440.3,361.9z"/>
		<path class="st81" d="M506,157.8c-1.3-1-0.2-2.1,0-3.1c1-4.5,4-8.3,4.8-12.9c0.7-0.8,1.3-1.8,2.1-2.4c1.3-0.9,1.5,0,1.2,1.1
			c-0.5,1.2,0,2.5-0.5,3.7c-0.3,4.9-2.5,9.2-4.3,13.6c-0.3,0.6-0.7,1.1-1.5,0.6c-0.7-1.2-0.1-2.1,0.5-3.1
			C507.4,155.9,507.8,158,506,157.8z"/>
		<path class="st70" d="M398.1,291.4c0.2-0.2,0.4-0.5,0.6-0.7c2.9,1.3,2.5,4.6,4,6.7c0.6,1.3,1.2,2.5,1.6,3.8c1.6,5.2,4.5,10,6.5,15
			c0.5,1.2,1.6,2.7,0.1,3.7c-1.7,1.2-2.6-0.6-3.5-1.7c-0.2-0.3-0.3-0.6-0.5-0.9c-2.5-4.8-4.2-9.9-6-15.1c-0.2-0.6-0.1-1.4-1-1.7
			C398.9,297.6,398.2,294.6,398.1,291.4z"/>
		<path class="st82" d="M407.7,317c0,0.2,0,0.5,0,0.7c1.7,2.8,4,5.1,6.1,8.3c0.5-3.5-2.6-6-1.2-9c3.3,1.1,3.5,4.3,4.9,6.7
			c0.1,0.5,0.2,1.1,0.5,1.6c1.7,2.8,1.6,5.4-0.7,7.8c-5.4-3.7-8.5-9-11-14.8c-0.4-0.7-0.7-1.5,0.1-2
			C406.9,316,407.4,316.5,407.7,317z"/>
		<path class="st21" d="M464.5,229.1c0,1.9-1.8,2.3-2.8,3.4c-0.5,1.2-1.5,1.9-2.5,2.7c-0.7,0.6-1.6,0.8-2.2,2c1.5,0.2,2.6-0.4,3.7-1
			c1.8-0.9,3.5-2,5.5-2.1c1.5,0,2.4,0.3,0.9,1.9c-4.4,3-9.4,4.3-14.5,5.6c-1.2,0.3-2.4,0.5-3.6-0.2c0.3-1.9,1.7-3.1,2.9-4.4
			c1.7-0.8,3-2,4.1-3.4c0.3-0.4,0.6-0.7,0.9-1c0.5-0.5,1.1-1.1,1.8-1.3c0.9-0.3,1.6-0.7,2.4-1.2c0.9-0.4,1.8-1,2.9-1.2
			C464.2,229,464.3,229.1,464.5,229.1z"/>
		<path class="st15" d="M541.4,151.1c-4.6-0.3-9,0.9-13.2,2.6c-2.3,2.3-5.6,2.5-8.4,3.8c-1.4,0.6-2.4-0.3-2.8-1.8
			c7.1-5.6,15.4-6.6,24.1-6.1C542.4,149.7,543,150.3,541.4,151.1z"/>
		<path class="st83" d="M335.7,291.4c-3.9-1-6.6-4-10.2-5.7c-1.5-0.7-1.2,0-0.9,0.9c-2.7-1.2-5-3.1-7-5.2c-0.5-1.1-1.7-1.6-2.5-2.4
			c-0.5-0.4-1.1-0.8-1.6-1.2c0.5-0.9,1.4-1.1,2-0.5c1.7,1.8,4.2,2.4,6,3.9c4.7,3.8,10.2,6.3,15.3,9.4c1.3,0.8,2.8,1.5,3.8-0.5
			c1.9-0.2,3.4,0.7,2.9,2.5c-0.5,1.6-2.4,1.6-3.8,0.9C338.3,292.7,336.9,292.3,335.7,291.4z"/>
		<path class="st84" d="M340.5,297.8c0.3-0.7,0.8-0.9,1.5-0.9c0.3,0.4,0.8,0.3,1.2,0.5c6,2,6,2,8.8-2.8c2.8,0.3,4.2,2.7,6.4,4.1
			c0.1,0.1,0.1,0.3,0.2,0.4c0,0.2,0,0.4,0.1,0.6c0.3,0.3,0.3,0.6,0,0.9c-2.3,2.9-5.4,2.2-8.2,1.7
			C346.8,301.5,343.4,300.1,340.5,297.8z"/>
		<path class="st78" d="M422.2,231.2c-2.1-4.5-1.7-9.7-3.3-14.3c-0.1-0.2,0.5-0.7,0.7-1c1.4,1.4,2.5,3.1,3.2,5
			c1.3,4,3.5,7.7,4.8,11.7c0.5,1.6,1.5,3.1,1.5,4.8c0,0.8,0,1.8-0.9,2.1c-1,0.3-1.3-0.7-1.7-1.3c-0.9-1.4-0.7-3.4-2.1-4.6
			c-1.1-0.6-0.8-1.8-1.3-2.7c-0.2-0.3-0.1-0.7-0.5-0.8C422.8,230.5,422.6,230.9,422.2,231.2z"/>
		<path class="st37" d="M341.9,120.4c1.1,4.1,1,8.3,1.3,12.5c0.2,1.9,0.2,3.5,2.7,3.4c1.9,0,2.2,1.4,2.2,2.8c-0.1,1.8-0.4,3.4-1.3,5
			c-1.5-0.4-3,0.7-4.4-0.1c-0.3-0.3-0.4-0.6-0.5-1c-1-5.8-1.1-11.6-1-17.4C341.2,124,340.5,122,341.9,120.4z"/>
		<path class="st85" d="M326,184.8c2.8,1.2,5.5,2.3,8.3,3.5c0.8-0.4,1.5,0.2,2.3,0.3c3.8,0.9,4.2,0.6,3.9-3.3c0-0.6,0.4-0.7,0.8-0.9
			c2.7,0.9,4.5,2.9,6.4,4.8c0.6,0.6,1.2,1.4,0.4,2.4l-0.1,0.2l-0.2,0c-2.9,0.4-5.8,0.5-8.7-0.1c-4.7-0.6-8.5-3.2-12.4-5.5
			C326.4,185.8,325.6,185.6,326,184.8z"/>
		<path class="st47" d="M440.3,361.3c-2.2-5.8,0.4-10.5,3.5-15.1c2.2,0.6,0.3,2.7,1.5,3.8c1.5,0.4,2.4-1.8,4-1.2
			c0.4,0.4,0.5,0.8,0.5,1.3c0,0.7-0.4,1.3-0.8,1.8c-1.7,1.3-3,3.1-4.3,4.8c-0.2,0.5-0.5,0.8-1,0.8c-2.6-0.1-2.7,2-3.3,3.6
			L440.3,361.3z"/>
		<path class="st86" d="M337.9,113.6c0.6-3.1,1.2-6.2,2.6-9l0.2,0.2c1.7,3.2,0.3,6.7,0.8,10c-0.3,0.7-0.3,1.5-0.5,2.2
			c-0.3,3.9-0.4,7.8-1,11.6c-0.2,1.6-0.2,4.2-2.1,4c-1.6-0.1-1.2-2.7-1-4.2c0.1-1.8,0.2-3.7,0.2-5.5
			C336.8,119.7,338.4,116.7,337.9,113.6z"/>
		<path class="st87" d="M518.5,160.6c0,0.2,0,0.5,0,0.7c-0.7,0.5-1.4,1-2.1,1.8c1.5,0.3,2.9,0.2,4.2-0.4c0.2,0,0.5,0,0.7,0
			c0.4,0.5,1.7,0.1,1.4,1.3c-4.2,1.7-8.6,2.2-13.1,1.5c-0.2-0.7-0.4-1.3-0.7-2c1.6-1.7,3.2-3.3,4.8-5c0.4-0.3,0.8-0.4,1.3-0.4
			c0.8,0.1,1.5,0.4,2.2,0.8C517.7,159.3,518.2,159.9,518.5,160.6z"/>
		<path class="st88" d="M460.3,353.6c-0.1-0.6-0.3-1.1-1-0.6c-0.8,0.6-1.4,1.4-2.5,1.4c-0.2-0.2-0.3-0.5-0.4-0.8
			c0.5-2.7,3.6-3.3,4.7-5.6c0.3-0.4,0.6-0.7,1-1c1.5-0.7,3-1.4,3.7-3c1.5-2.9,4.6-4.4,6.2-7.2c0.3-0.4,0.5-0.9,0.9-0.4
			c0.3,0.3,0.3,0.8,0.5,1.2c-3.5,4.5-7,9-10.5,13.4C462.2,352,461.6,353.2,460.3,353.6z"/>
		<path class="st89" d="M429.2,324.6c0.1,1.2-1.5,2.3,0,3.5c0,0.7,0.1,1.4,0.1,2.1c-3.9-0.8-7-3.1-9.2-6.2c-1.2-1.8-3.8-3.3-2.6-6.2
			c2.3,3.3,6.3,3.4,9.6,4.9c0.3,0.4,0.5,0.9,0.8,1.3C428.2,324.3,428.9,324.1,429.2,324.6z"/>
		<path class="st67" d="M361.3,377.9c2.7,0.6,0.7-2.3,2-2.7c3.8,3,8.2,5.3,11.4,9.1c0.7,0.8,1.9,1.3,1.9,2.7c-0.5-0.2-1-0.5-1.4-0.7
			c-0.2,0-0.4-0.1-0.7-0.2c-1.2-0.4-1.8-3.1-3.8-1c-0.2,0.2-1.1-0.7-1.7-0.9c-2.4-1.5-4.1-4-6.9-4.8c-0.1-0.1-0.3-0.1-0.4-0.2
			C361.2,378.8,361,378.4,361.3,377.9z"/>
		<path class="st90" d="M441.6,298.3c0,0.8,0,1.6-0.5,2.3c-0.5,0.8-1.9,1.3-1.1,2.5c0.7,1.1,2,0.6,3.1,0.7c1.4,0.1,2.7-1.7,4-0.1
			c-2.4,2.2-5,4.2-8.2,5.1c-0.1-0.1-0.3-0.1-0.4-0.2c-1.3-0.6-2.8-0.8-3.3-2.4c-0.1-0.3-0.1-0.6-0.1-0.9c0.5-1.1,1.4-1.9,2-3
			c0.7-0.9,1.5-1.7,1.9-2.8c0.2-0.4,0.5-0.7,0.9-1C440.4,298.2,441,297.9,441.6,298.3z"/>
		<path class="st91" d="M313.6,168.2c-1.4,0.8-2.4-0.1-3.4-0.9c-3.6-2.9-8.3-4-11.5-7.7c-0.6-0.7-2.1-0.7-3.2-1
			c-1-0.6-1.2-1.8-1.9-2.7c1-0.6,1.8-0.1,2.6,0.1c3,2.2,6.8,3,9.7,5.4c0,0.4,0.2,0.8,0.4,1.1c0.6,0.9,1.8,0.9,2.6,1.5
			c0.7,1.3,2.3,1.4,3.3,2.2l0,0C312.9,166.7,313.9,167,313.6,168.2z"/>
		<path class="st92" d="M422.2,231.2c0-0.7,0.1-1.5,0.1-2.3c2.3,0.8,1.3,3.2,2.6,4.4c0.5,0.6,0.6,1.3,0.6,2.1
			c-1.1,3.3,0.9,6.3,1.2,9.4c0.3,3.3-0.4,5.6-3.2,7.2c-1.1-1.1-1.9-2.4-2.2-4c0.2-0.5,0.2-1.3,0.6-1.6c3.9-2.4,2.3-5.9,1.4-8.8
			C422.7,235.4,422.6,233.3,422.2,231.2z"/>
		<path class="st86" d="M322.5,168.9c3.1,0.4,4.8,3.5,7.8,4c1,0.2,1.9,0.7,3,0.3c0.4-1.6-2.7-2.4-1-4.3c1.6,0.6,2.9,1.5,4.1,2.8
			c0.1,1.2,1.1,2,1.6,3c0.4,0.9,1.2,1.8,0.3,2.8c-0.8,0.9-1.9,0.7-2.8,0.2c-0.4-0.2-0.9-0.3-1.3-0.4c-2.1-0.5-3.7-1.9-5.5-3
			c-1.6-0.8-2.9-2-4.5-2.8C323.1,170.9,321.7,170.5,322.5,168.9z"/>
		<path class="st93" d="M417.4,317.7c1.5,3.6,3.2,7,6.9,9c1.8,1,3.3,2.3,5,3.4c0.4,0.8,0.4,1.5,0,2.2c-1.9,0.1-3.4-1-5.1-1.6
			c-1.5-0.7-2.3-2.2-3.5-3.2c-0.5-0.6-0.7-1.4-1-2.1c-0.7-1.5-1.7-2.9-2.9-4.1c-1.5-2.3-3.7-4.2-3.5-7.3c0.5-0.3,1-0.2,1.4,0.1
			C415.5,315.4,416.5,316.6,417.4,317.7z"/>
		<path class="st90" d="M352.9,285.9c1.6,2.1,4.4,3.2,4.8,6.2c-0.3,1.6,1.6,4.6-2.4,3.8c-1.2,0-1.7-1.1-2.6-1.4
			c-0.3-0.1-0.5-0.2-0.8-0.3c-0.7-0.5-1.3-1.1-2.1-1.5c-0.3-0.2-0.5-0.3-0.7-0.5c-0.7-0.7-1.3-1.4-1.3-2.4c0.1-0.3,0.3-0.6,0.5-0.8
			c1.6-0.6,2.7,0.6,4,1.2C353.4,288.8,350.3,287,352.9,285.9z"/>
		<path class="st94" d="M467.2,236.1c0.7-1.6-0.4-1.4-1.4-1.4c-0.2-0.2-0.2-0.3-0.2-0.5c0.1-0.2,0.1-0.2,0.2-0.2
			c0.5-0.9,1.2-1.6,2.1-2.1c0.9-0.5,2-0.6,2.8-1.4c2.3-2.1,4.6-4.1,6.9-6.2c0.8-0.5,1.4-0.5,1.4,0.6
			C475.8,229.4,472.2,233.5,467.2,236.1z"/>
		<path class="st79" d="M447,341.8c1.3-2.2,3.1-3.9,5.1-5.4c1.4-0.1,0.9,0.8,0.8,1.5c-0.1,1.3-0.6,2.6-1,3.9c1.3,0.5,2-1.5,3.2-0.4
			c-0.4,3.7-3.2,5.2-6.1,6.6c-2.1,0.1-2.4-1.2-2.5-2.8C446.4,344,447.1,343,447,341.8z"/>
		<path class="st95" d="M334.3,279.7c2.1,0.8,4.2,1.6,6.3,2.5c0.5,0.2,0.9,0.8,1.5,0.3c0.7-0.6,0.2-1.1-0.1-1.8
			c-0.4-1.3-2.6-1.9-1.7-3.8c1.5,1.1,3.6,1.1,4.8,2.8c-0.1,1.3,1.2,1.9,1.7,2.8c0.6,1.2,1.4,2.6,0.6,3.9c-0.8,1.3-2-0.3-3.1,0
			c-3.3-1-5.9-3.4-9.1-4.7C334.6,281.3,334,280.6,334.3,279.7z"/>
		<path class="st96" d="M423.6,252c0.1-0.4-0.1-1.1,0.2-1.3c4.1-2.8,1.6-6.5,1.2-9.9c-0.2-1.8-1.5-3.6,0-5.5
			c2.2,1.3,1.3,3.8,2.4,5.5c0.3,0.6,0.3,1.2,0.2,1.8c-0.2,1.2,0.2,2.3,0.9,3.4c0.4,0.7,0.6,1.4,0.4,2.2c-0.6,0.6-0.1,1.4-0.1,2
			c-0.5,4.3-0.5,4.3-3.8,3.9C424.2,253.6,423.8,252.9,423.6,252z"/>
		<path class="st97" d="M374.5,225.6c0.2,1.9-0.8,3.6-0.9,5.4c-0.2,2.6-1.6,5.7,2.3,7c-1.3,1.8-2.7,3.4-4.8,4.2
			c-2.9-2.7-1.2-5.8-0.7-8.8c0.6-2,1.6-4,2.3-6C372.9,226.7,373,225.5,374.5,225.6z"/>
		<path class="st98" d="M353.6,381.6c1-1.4,2.1-0.9,2.7,0.1c1.3,2.3,3.8,3.1,5.7,4.5c0.7,0.9,1.8,1.5,2.8,2.1c0.2,0,0.5,0,0.7,0
			c0.5,0.3,0.9,0.7,1.2,1.2c0.5,0.7,1.2,1.3,1.1,2.3c-0.3,0.7,0.2,1.5-0.3,2.2C362.3,390.4,358,386,353.6,381.6z"/>
		<path class="st99" d="M427.1,243c0-0.7,0-1.4,0-2.1c1.7-1,1.4,0.8,2.2,1.7c-1-1.8-0.1-3.6-0.9-5.1c0.3-1.8-1.3-3.1-1.4-4.8
			c0.4-0.4,0.9-0.4,1.3,0c1.6,4,3.1,8.1,3.5,12.5c-0.2,1.1,0.2,2.2,0.1,3.4c-0.1,0.8,0,1.8-0.8,2.1c-1.2,0.4-1.3-1-2-1.5
			c-0.3-0.1-0.5-0.3-0.7-0.5c0-0.8,0.1-1.6-0.7-2.1C427.1,245.4,427.7,244,427.1,243z"/>
		<path class="st100" d="M407.7,317c-1.7-0.8-1.3,0.5-1.4,1.4c-3-5.6-5.2-11.5-6.3-17.8c0.5-0.7,1.1-0.9,1.4,0.1
			C403,306.4,405.2,311.7,407.7,317z"/>
		<path class="st20" d="M417.3,333.2c2-3.2,0.7-6.2-0.6-9.3c1.7-0.4,2.2,0.9,2.8,2c0.6,1,1,2.1,2,2.8c0.8,1.1,1.5,2.2,1.9,3.6
			c0.4,1.7,0.4,3.2-1.8,3.5C419.9,335.2,418.5,334.4,417.3,333.2z"/>
		<path class="st101" d="M347.4,182c1.6,2.1,1.1,4.8,2.2,7c0,0.2,0,0.4-0.1,0.6c-2.8,0.7-3.4-2.4-5.3-3.2c-1.2-0.5-2.3-1.8-3.1-3
			c0-0.9,0.6-1.1,1.3-1.1c0.8,0,2.6,1.2,1.6-1.3c-0.3-0.7-0.8-1.8,0.8-1.8C345.6,180.2,346.5,181.1,347.4,182z"/>
		<path class="st102" d="M472.1,183.4c0.5,0.5,0.9,0.9,1.4,1.4c0.5,2.7,0.5,5.3-1.4,7.6c-0.8,1.6-2.1,3.3,0.1,4.9
			c-1.4,1.3-2.1-0.1-2.5-0.9c-0.9-1.9-2-3.7-1.7-6c0.1-0.2,0.2-0.4,0.2-0.6C471,188.7,470.9,185.6,472.1,183.4L472.1,183.4z"/>
		<path class="st103" d="M334.3,176.5c0.4,0.1,0.9,0.1,1.3,0.4c0.7,0.5,1.3,1,2.1,0.3c1-0.9-0.4-1.5-0.4-2.3
			c-0.1-1.1-2.8-1.6-0.8-3.2c2.2,1.2,4.1,2.8,5.7,4.8c0.8,4,0.5,4.5-3.2,4.1c-2-0.4-3.6-1.5-4.7-3.1
			C334,177.1,334.1,176.8,334.3,176.5z"/>
		<path class="st67" d="M456.6,227.7c1.9-0.7,2.9-2.5,4.4-3.8c1.7-1.5,2.1-0.6,2.1,1.1c1,1.4,0.2,2.3-0.8,3.2
			c-1.3,1.1-2.5,2.3-4,3.2c-1.5,0.8-2.9,1.1-4.3-0.2C454.5,229.7,455.5,228.7,456.6,227.7z"/>
		<path class="st96" d="M447,341.8c1.4,0.9,0.4,2,0.3,3c-0.3,1.6,0,2.8,2,2.6c0.4,0.5,0.4,0.9,0,1.4c-0.1,0-0.2,0.1-0.3,0.1
			c-1.6,0.4-2.3,3.1-4.2,2.2c-2.2-1-0.1-3-0.5-4.6c-0.1-0.2-0.3-0.3-0.4-0.5C444.5,344.4,445.6,343.1,447,341.8z"/>
		<path class="st14" d="M454.8,341.3c-1.4,0.4-2.1,2.9-3.4,2.1c-1.9-1.2,0.4-2.7,0.5-4.2c0.1-0.9,1.3-1.8,0.2-2.8
			c0.2-0.2,0.5-0.5,0.7-0.7c2.7,0.7-0.9,3.2,1.6,4.2c2.6-1.6,4.8-4.4,8.1-5.6C461.5,337.6,458,340.9,454.8,341.3z"/>
		<path class="st24" d="M337.9,113.6c1.5,3-0.9,6-0.2,9c-0.6,3.6-0.6,7.3,0,10.9c0.2,1.2,0.3,2.3,0,3.4c-0.6,1.3-0.2,3-1.6,4
			C334.9,131.6,336.1,122.6,337.9,113.6z"/>
		<path class="st104" d="M344.7,285.9c0.8-0.9,1.9,0.8,2.2,0.1c0.3-0.8-0.3-2-0.6-2.9c-0.4-1.1-1.9-1.8-1.5-3.3
			c0-0.1,0.2-0.1,0.3-0.1c1.3,1.7,3.9,1.5,5,3.5c0.1,0.2,0.1,0.4,0.2,0.6c0.7,1.3,1.5,2.5,0.5,4c-1,1.5-2.4,0.5-3.7,0.6
			C345.9,288,344.5,287.7,344.7,285.9z"/>
		<path class="st105" d="M517.1,159.2c-0.8,0-1.6,0.1-2.1-0.7c-0.5-1.3,1-1.5,1.3-2.3c0.2-0.2,0.5-0.3,0.7-0.5
			c1.3,1.5,2.5,1.3,4.2,0.5c2.2-1.1,4.6-1.7,6.9-2.5c0.2,0.2,0.5,0.5,0.7,0.7c-0.5,2.7-3.4,1.6-4.7,2.9c-0.8,0.6-2,0.5-2.8,1.1
			C520,159.1,518.7,160.1,517.1,159.2z"/>
		<path class="st36" d="M440.9,289.3c-0.2,0.7-0.5,1.5-0.7,2.2c-0.4,0.9-1.2,2-0.3,2.7c0.7,0.5,1.6-0.5,2.4-0.8
			c0.4,0.4,0.5,0.9,0.3,1.4c-1,1.7-2.2,3.1-4,3.9c-2.6-0.1-2.4-2.1-2.5-3.9c0.8-2.2,2.6-3.8,4-5.6
			C440.4,288.9,440.7,288.9,440.9,289.3z"/>
		<path class="st85" d="M429.1,248.5c1.4-0.4,0.3,1.8,1.9,1.2c0.9-1.2-0.6-3.3,0.8-4.7c1.2,4.3,1.3,8.7,0.6,13.1
			c-0.9,0.7-1.4,0.1-1.8-0.5C429.8,254.6,427.9,251.8,429.1,248.5z"/>
		<path class="st106" d="M336.3,140.8c0.4-1.2-0.4-2.7,0.8-3.7c0.1,0.1,0.2,0.2,0.4,0.3c0.8,1.9,0.5,3.8,0.7,5.1
			c0.8-3,0.8-3,2.7-1.6c0.1,0.3,0,0.6-0.2,0.9c0,1.6-0.1,3.2-0.1,4.9c-1.1,0.9,0.8,3-1.3,3.4c-1-2.1-1.9-4.2-2.9-6.3
			C336.3,142.8,336.3,141.8,336.3,140.8z"/>
		<path class="st107" d="M342,153c-1.7-3.4-0.3-6.9-0.7-10.4c1.3-0.4,0.7,1.1,1.3,1.3l0,0c0.2,1.8,3.7,1.1,2.9,3.7
			C344.8,149.8,343.8,151.6,342,153z"/>
		<path class="st108" d="M435.4,305.3c0,0.2,0,0.4,0,0.7c-0.1,0.5-0.3,0.8-0.7,1.1c-0.6,0.4-1.1,1.1-2,0.9c-0.4-3.1-0.6-6.2,1.1-9.1
			c1.9,1.2,1.9,1.2,4.9-0.1c0.3,0.2,0.4,0.4,0.4,0.8c0,1.1-0.9,1.6-1.5,2.3C436.9,303,436.2,304.2,435.4,305.3z"/>
		<path class="st109" d="M371,233.3c-0.2,3-1.4,6,0,9.1c-0.9,1-2.1,1.3-3.3,1.4c-0.2-0.1-0.4-0.2-0.6-0.2c-0.6-0.3-0.9-0.9-0.7-1.4
			c1.1-3,1.4-6.3,3.6-8.9C370.3,233,370.7,233.1,371,233.3z"/>
		<path class="st110" d="M522.6,164c-0.5-0.4-0.9-0.9-1.4-1.3c4-1.5,7.7-3.6,11.8-4.8C530,160.7,526.8,163.2,522.6,164z"/>
		<path class="st111" d="M367.5,394c0.6-0.7-2.3-1.5,0.1-2.2c0.4,0,0.8,0.2,1.2,0.4c0.6,0.3,1.3,0.5,1.9,0.9
			c0.5,0.2,1.1,0.7,1.4,0.1c0.4-0.8-0.5-1.4-0.7-2.1c-0.1-0.5-0.1-1,0.2-1.4c1.8-0.2,2.2,1.7,3.6,2.1c0,0.2,0,0.5,0,0.7
			c0,2,0.1,4.1-3,3.5c-0.1,0-0.3,0.8-0.5,1.2C370.2,396.3,368.6,395.4,367.5,394z"/>
		<path class="st99" d="M339.2,180c3.7,1.1,1.9-2.3,2.9-3.5c1.1,0.7,2.1,1.6,2.7,2.8c-0.7,0.5-0.5,1.1-0.1,1.7
			c0.5,0.8,1.7,1.7,0.8,2.6c-1.1,1.1-2-0.1-2.8-0.8C341.3,182.1,338.8,182.8,339.2,180z"/>
		<path class="st112" d="M452.7,237.4c-1.1,1.2-1.9,2.7-3.4,3.5c-0.2-0.1-0.3-0.3-0.3-0.5c0-0.2,0.1-0.3,0.1-0.3
			c0.7-2.6,1.9-4.8,3.6-6.9c1-1.5,2.7-1.3,4.2-1.6c1-0.2,1.2,0.7,0.7,1.6c-0.2,0.2-0.5,0.5-0.7,0.7
			C455.2,234.9,454.2,236.5,452.7,237.4z"/>
		<path class="st99" d="M347.5,288c3,0.2,4.2-0.6,2.4-3.6c-0.3-0.4-0.1-0.9,0.3-1.2c1.1,0.8,2.3,1.4,2.8,2.7c-1.1,1,0.3,1.9,0.2,2.8
			c-0.1,0.7,1.6,1.1,0.4,1.9c-0.6,0.4-1.3,0.5-2.2-0.1c-0.9-0.6-2.1-0.8-3.1-1.2C347.5,289.1,347.1,288.7,347.5,288z"/>
		<path class="st113" d="M421.5,335.8c3.1-2.6,0-4.7-0.7-7c-0.2-0.2-0.3-0.4-0.2-0.5c0.1-0.2,0.1-0.3,0.2-0.3c2.1,0.1,2,2.9,4,3.1
			c1.3,1.3,2.2,2.8,2.5,4.7C425.3,337.8,423.4,336.5,421.5,335.8z"/>
		<path class="st112" d="M425,254.1c3.1,0.2,2.6-2.6,3.5-4.2c1,2.5,1.7,5.1,2.4,7.6c0.1,0.5,0.1,1.1-0.4,1.5
			C427.9,258.2,426.3,256.4,425,254.1z"/>
		<path class="st70" d="M341.3,183.4c2.8,2,4.9,4.9,8.2,6.2c0.4,1.2-0.2,1.8-1.3,2c-1.1-3.5-4.6-4.5-6.9-6.8c-1.9-0.7-3.5-2-4.8-3.5
			c-0.5-0.5-0.9-0.9-1.4-1.4c0.1-0.5,0.4-0.8,0.9-0.9C337.9,180.3,340,181.4,341.3,183.4z"/>
		<path class="st82" d="M470.6,267.1c-1.3,3.3-2.2,7-6.2,8.4c-0.4-0.2-0.8-0.4-0.9-0.8c0-0.8,0.5-1.3,0.9-1.9
			c1.5-1.7,4.1-2.5,4.8-5.1C469.6,267.1,470.1,267.1,470.6,267.1z"/>
		<path class="st99" d="M438.8,299c-1.3,1.1-2.5,2.1-3.8,3.2c-1.4-0.9,0.5-2.7-1.2-3.3c0.4-1.6,1.1-2.9,2.2-4.1
			c1.3,0.9,0.3,3.6,2.8,3.5c0.2,0.2,0.2,0.3,0.2,0.5C438.9,298.9,438.9,299,438.8,299z"/>
		<path class="st114" d="M462.4,287.1c0.2-0.7,0.3-1.4,0.5-2.1c-1.2,1.2-2.3,2.4-3.9,2.9c-0.2-1.9,1-3,2.4-3.9
			c0.8-0.5,1.7-0.6,1.9-1.7c0.1-0.6,0.3-1.6,1.1-1.4c1,0.2,0.7,1.2,0.8,2C464,284.2,464.1,286.3,462.4,287.1z"/>
		<path class="st115" d="M428.4,232.6c-0.4,0-0.9,0-1.3,0c-1.4-3.2-2.8-6.4-4.1-9.7c-0.3-0.7-1-1.4,0-2.1
			C425.3,224.5,427,228.4,428.4,232.6z"/>
		<path class="st116" d="M427.3,335.8c-1.6-1-1.5-3.1-2.9-4.2c-0.4-0.5-0.4-0.9,0-1.4c1.8,0.5,3.5,1,4.9,2.2
			C429.1,333.8,429,335.3,427.3,335.8z"/>
		<path class="st54" d="M345.5,147.7c-0.2-0.4-0.5-1.1-0.6-1.1c-2.4,0.6-2.4-1-2.3-2.6c1.4,0,3-1.7,4.3,0.2
			C345.5,145,346.8,146.9,345.5,147.7z"/>
		<path class="st117" d="M355.1,295.6c1.8-0.4,2.1-0.8,2.7-3.4c0.1,2.3,2.9,4.4,0.8,6.9c0,0-0.1-0.1-0.1-0.1
			C357.5,297.7,355.2,297.8,355.1,295.6z"/>
		<path class="st118" d="M506,157.8c1.2-0.7,1-2.5,2.7-3.1c-0.2,1.5-0.4,2.6-0.6,3.8c0.6,1.1-0.9,1.8-0.5,2.8c0,0.2,0,0.4-0.2,0.6
			c-0.5,0.2-0.9,0.5-1.4,0.7c-0.5-0.7-0.4-1.4,0-2.1C506,159.6,506,158.7,506,157.8z"/>
		<path class="st119" d="M315.6,126c1.1-0.8,2.3,0.1,3.4-0.1c0.4,1.2,1.4,2,2.2,2.9c0,0.2,0,0.4-0.1,0.7c-0.2,0.6-0.6,0.8-1.1,0.6
			C318.5,128.7,317,127.3,315.6,126z"/>
		<path class="st120" d="M339.4,361.2c-0.6,0.1-1.3,0.2-1.6,0.8c-0.3,0.6-0.6,1.3-1.4,1.5c-0.9-0.9-1.8-1.9-2.7-2.8
			c-0.4-0.7-0.7-1.3,0.6-1.3C335.7,360.5,337.8,360.3,339.4,361.2z"/>
		<path class="st121" d="M487.4,317.1c-1.9,0.6-1.9,3.5-4.3,3.4c-0.5-1.4,0.8-1.9,1.4-2.8c1.2-1.2,2.2-2.8,4.2-2.7
			C488.6,315.9,488.1,316.5,487.4,317.1z"/>
		<path class="st54" d="M457.5,233.3c-0.1-0.7-0.4-1.6-1.2-1c-1.1,1.1-2.6,0.4-3.7,1c0.1-0.9,0.5-1.6,1.3-2.1c1.4-0.2,3,0.6,4.2-0.7
			c0.4-0.4,0.9-0.4,1.4-0.2c0.5,0.8-0.2,1.2-0.7,1.6C458.5,232.3,458,232.8,457.5,233.3z"/>
		<path class="st122" d="M336.3,363.5c0.3-0.6,0.7-1.2,1.4-1.5c1.6,1.4,3.3,2.8,4.9,4.1c-1.2,0.1-2.2-0.3-3.1-1.2
			c-0.6-0.6-1.3-1.1-2,0C337,364.7,336.6,364.2,336.3,363.5z"/>
		<path class="st90" d="M432.8,308c0.6-0.5,0.9-1.5,1.9-1.3c0.5,2.3,2.9,0.8,4,1.9c0.1,0.1,0.2,0.2,0.3,0.3
			C436.7,309.4,434.4,311,432.8,308z"/>
		<path class="st123" d="M477.6,178c0.2-3.5-0.7-7,0.5-10.4C478.1,171,479.1,174.6,477.6,178z"/>
		<path class="st92" d="M385.6,206.6c0-3.6-0.1-7.1-0.1-10.7c0.2-0.3,0.4-0.3,0.6,0C386.2,199.5,386.6,203,385.6,206.6z"/>
		<path class="st124" d="M365.6,305.9c0.8,0.8,0.9,1.5-0.2,2.1c-1.7-1-2-3-4-4.5C364,303.5,364,305.9,365.6,305.9z"/>
		<path class="st125" d="M440.3,361.9c0.4,0.5,0.9,1,1.3,1.5c-1.7,0.6-1.5,2.6-2.7,3.5c-0.3-0.1-0.5-0.4-0.6-0.7
			C439,364.8,439.7,363.4,440.3,361.9z"/>
		<path class="st126" d="M449.1,240.1c0.1,0.2,0.1,0.5,0.2,0.7c0.8,1.6,2.3,0.4,3.4,0.8c-1.6,1.4-4.3-0.2-5.6,2
			c-0.2-0.2-0.3-0.3-0.2-0.5c0.1-0.2,0.1-0.3,0.2-0.3C447.8,242,448.5,241,449.1,240.1z"/>
		<path class="st127" d="M308.8,121.1c0.7-0.2,1.5,0.9,2.1-0.2c0.9,0.4,1.2,1.3,1.4,2.2c0.2,0.2,0.2,0.4,0.2,0.6
			c-0.1,0.2-0.1,0.3-0.2,0.3c-0.3,0.2-0.6,0.3-0.8,0.5C311.2,122.8,309.1,122.7,308.8,121.1z"/>
		<path class="st128" d="M339.1,191.8c2.9,0,5.8,0,8.7,0.1C344.9,193.4,342,192.7,339.1,191.8z"/>
		<path class="st127" d="M303,124.7c2.4,0,4.9,0,7.3,0C307.9,125.5,305.4,125.3,303,124.7z"/>
		<path class="st25" d="M386.1,195.9c-0.2,0-0.4,0-0.6,0c0-2.4,0.1-4.7,0.1-7.1C386.5,191.1,386.1,193.5,386.1,195.9z"/>
		<path class="st129" d="M479,224.9c-0.3-0.5-0.8-0.6-1.4-0.6c0.9-0.4,1-3.5,2.7-0.8C480.1,224.1,479.7,224.7,479,224.9z"/>
		<path class="st130" d="M507.6,161.3c-1.7-1.3,0.4-1.9,0.5-2.8c0.4-0.2,0.9-0.5,1.3-0.7C509.3,159.3,508.4,160.3,507.6,161.3z"/>
		<path class="st131" d="M447.1,242.9c0,0.3,0,0.5,0,0.8c-0.9,1.2-1.8,2.3-2.8,3.5c-0.1-1.4,1.1-2.4,1.4-3.6
			C446.3,243.3,446.7,243.1,447.1,242.9z"/>
		<path class="st132" d="M320,130c0.4-0.2,0.8-0.4,1.1-0.6c0.4,0.8,1.3,1.5,0.9,2.7C320.8,131.9,320.3,131,320,130z"/>
		<path class="st133" d="M438.3,366.2c0.2,0.2,0.4,0.5,0.6,0.7c-0.4,1-0.9,1.9-1.3,2.9c-0.3-0.3-0.6-0.6-0.9-0.9
			C437.2,368,437.8,367.1,438.3,366.2z"/>
		<path class="st134" d="M312.3,124c0-0.3,0-0.6,0-0.9c1.3,0.8,3.2,0.8,3.4,2.9C314.5,125.3,313.4,124.7,312.3,124z"/>
		<path class="st135" d="M430.5,259c0-0.5,0-1,0.1-1.5c0.2-0.3,0.4-0.3,0.6,0c0.2,0.5,0.7,0.6,1.2,0.6c-0.5,0.9-0.7,1.8-0.4,2.8
			c-0.2,0.2-0.5,0.2-0.7,0C431,260.3,430.8,259.7,430.5,259z"/>
		<path class="st136" d="M358.6,300.5c0-0.3,0-0.6,0-0.9c1.7,0.1,2.2,1.5,3.4,2.9C360.1,302.4,359.8,300.8,358.6,300.5z"/>
		<path class="st137" d="M477.5,182.7c-0.9-1.6-1-3.3,0.2-4.8C477.6,179.5,477.6,181.1,477.5,182.7z"/>
		<path class="st138" d="M431.3,260.9c0.2,0,0.5,0,0.7,0c0.8,0.5,0.7,1.3,0.7,2c-0.3,0.3-0.6,0.6-0.9,0.9
			C431.1,263,431.2,261.9,431.3,260.9z"/>
		<path class="st139" d="M334.2,359.3c-0.2,0.4-0.4,0.9-0.6,1.3c-0.6-0.6-1.3-1.2-2-1.9C332.7,358.5,333.6,358.2,334.2,359.3z"/>
		<path class="st140" d="M472,268.4c-0.1-0.9-0.7-1.2-1.5-1.3c0.6-0.5,1.4-1.1,1.9-0.7C473.1,266.9,472.8,267.8,472,268.4z"/>
		<path class="st120" d="M337.6,364.9c1.4,0.3,2.1,1.2,2.3,2.5C338.9,366.8,338.1,365.9,337.6,364.9z"/>
		<path class="st15" d="M516.3,156.2c-0.4,0.8-0.9,1.5-1.3,2.3c-0.5,0-0.9,0-1.4,0C514.3,157.5,515.2,156.8,516.3,156.2z"/>
		<path class="st141" d="M312.9,175.1c-0.6,0-1.2,0.2-1.5,0.9c-0.2-0.2-0.5-0.4-0.7-0.6c0.1-0.3,0.1-0.6,0.2-1
			c-0.1-0.7,0.3-1.1,0.9-0.9C312.5,173.7,313.1,174.1,312.9,175.1z"/>
		<path class="st69" d="M477.5,162c-0.4-0.4-0.8-0.9-1.2-1.3c0-0.4,0.2-1.1,0.6-1C477.9,160.1,477.5,161.1,477.5,162z"/>
		<path class="st142" d="M315.1,278.9c1.4,0.3,2.3,1,2.5,2.4C316.7,280.6,315.5,280.2,315.1,278.9z"/>
		<path class="st128" d="M326,184.8c0.2,0.5,0.4,1,0.7,1.5c-0.7-0.4-1.4-0.9-2.1-1.3C324.9,184.3,325.4,184,326,184.8z"/>
		<path class="st15" d="M450.6,278.8c-0.4,1.3-1.3,2.2-2.7,2.3C448.7,280.3,449.6,279.5,450.6,278.8z"/>
		<path class="st15" d="M440.9,289.3c-0.3,0-0.6-0.1-0.9-0.1c0.5-1.1,1.3-2,2.3-2.7C442.4,287.7,441.3,288.4,440.9,289.3z"/>
		<path class="st143" d="M353.2,194.4c-0.3,0-0.6,0.1-0.9,0.1c-0.5-0.7-1-1.4-1.9-2.6C352.3,192.4,353,193.2,353.2,194.4z"/>
		<path class="st11" d="M498.3,168.7c-0.5,0.8-0.9,1.5-1.4,2.3C495.6,169.2,497.7,169.4,498.3,168.7z"/>
		<path class="st123" d="M476.2,184.8c0.1-0.3,0.2-0.5,0.4-0.8c0.2,0.3,0.3,0.7,0.5,1c0,0.6-0.1,1.2-0.1,1.9c0,0-0.1-0.1-0.1-0.1
			l-0.2,0C475.4,186.3,475.9,185.5,476.2,184.8z"/>
		<path class="st144" d="M513.7,144.3c0-1.3-0.5-2.6,0.5-3.7C514.2,141.8,514.5,143.1,513.7,144.3z"/>
		<path class="st145" d="M429.2,324.6c-0.6,0.1-1.2,0.1-1.3-0.7c0.9-0.5,0.4-1.4,0.7-2.1C429.2,322.6,429.2,323.6,429.2,324.6z"/>
		<path class="st146" d="M486.7,403c-0.3-0.5-0.6-1-0.8-1.5c0.3-0.5,0.8-1.3,1.2-0.9C487.6,401.2,487.5,402.2,486.7,403z"/>
		<path class="st147" d="M368.9,384.2c0.9-0.9,1.5,0.6,2.4,0.3c0.6-1.1-1.1-1.5-0.5-3c1.6,1.7,3,3.2,4.4,4.7c0,2-0.3,3.4-2.6,1.4
			C371.3,386.5,369.7,385.7,368.9,384.2z"/>
		<path class="st57" d="M371.7,389.7c0,0.5,0,0.9,0,1.4c-0.1,0.1-0.3,0.1-0.4,0.2c-0.5,0-0.9-0.2-1.3-0.5c-1.5-1.4-2.3-3.3-4.1-4.4
			c-0.6-0.8-2-1.4-1.3-2.8c1.4-0.5,1.9,1,2.9,1.4c0.9,0.9,1.8,1.8,2.8,2.7C370.8,388.3,372.2,388.4,371.7,389.7z"/>
		<path class="st57" d="M362.7,382.8c-2.1-1.4-4.6-2.5-4.9-5.5c0.1-0.1,0.3-0.1,0.4-0.2c1.2,0.3,2.2,1,2.9,2.1
			c0.4,1,1.3,1.7,2.2,2.3c0.6,0.3,0.7,0.8,0.7,1.4C363.6,383.2,363.2,383.2,362.7,382.8z"/>
		<path class="st26" d="M371.7,389.7c-0.5-0.7-0.9-1.4-1.4-2.1c2.3,0.6,3.5,2.5,4.8,4.2C373.5,391.8,373,390.2,371.7,389.7z"/>
		<path class="st89" d="M362.7,382.8c0.5,0,0.9,0,1.4,0c0.2,0,0.5,0,0.7,0c0.2,0.2,0.3,0.3,0.2,0.5c-0.1,0.2-0.2,0.2-0.2,0.2
			c-0.1,1.2,1,1.8,1.4,2.8c0.1,0.1,0.2,0.2,0.3,0.4c-0.1,0.1-0.2,0.2-0.3,0.3C364.5,386,363.5,384.5,362.7,382.8z"/>
		<path class="st148" d="M363.4,381.4c-1.4-0.1-2.1-1-2.8-2.1c0.5-0.4,0.9-0.4,1.4,0c0,0,0,0,0,0C362.5,380,362.9,380.7,363.4,381.4
			z"/>
		<path class="st149" d="M364.8,383.5c0-0.2,0-0.5,0-0.7c1.4,0.1,2.2,1,2.8,2.1C366.3,385,365.7,383.8,364.8,383.5z"/>
		<path class="st54" d="M299,122.5c1.1-0.8,2.9-0.5,3.5-2.1c0.8,0,1.6,0,2.2,0.6c0.4,0.4,1,0.7,0.7,1.4c-0.2,0.6-1,1-1.3,0.7
			C302.5,121.9,300.6,123.5,299,122.5z"/>
		<path class="st150" d="M372.4,219.4c2-5.2,3.4-10.6,4.9-16c0.3-1.2,0.4-2.5,1.4-3.4c0.7,0.6,0.9,1.4,1.1,2.3c0,0.4,0,0.7-0.1,1
			c-2.4,8.6-4.7,17.2-7.9,25.6c-0.4,0.7-0.6,1.5-0.9,2.3c-0.6,1.5-1.5,2.8-2.1,4.3c-1.2,0.3-1.6,1.4-2.4,2.2c-0.7,0.7-1.3,2-2.6,0.8
			c-0.1-1.3-0.2-2.6,0.8-3.6C368.6,230.4,370.1,224.8,372.4,219.4z"/>
		<path class="st151" d="M380,226.3c-0.5,1.5-1,3-1.6,4.5c-0.4,0.8-1,1.7-2.1,1.4c-1.1-0.3-1.1-1.3-1.1-2.2
			c-0.1-2.4,1.1-4.7,0.7-7.1c-1.9-2.2,0-4.1,0.5-6.1c1.1-4.8,2.3-9.5,3.6-14.2c0.2-0.8,0.2-1.9,1.5-1.9c0.4,1,0.5,1.9,0,2.8
			c0,0.5,0,0.9,0,1.4c-1.1,3.1-0.4,6.7-2.1,9.7h0c-0.5,2.6-0.6,5.3-1.1,7.9C378,224.1,378.1,225.6,380,226.3z"/>
		<path class="st152" d="M372.4,219.4c-1.6,5.7-2.7,11.6-7.3,15.9c-1.1,1-1.1,2.2-1,3.5c0.4,0.4,0.5,0.8,0.5,1.3
			c-0.1,0.3-0.3,0.6-0.5,0.8c-1.3-2-0.3-4.2-0.6-6.3c0-1.9-0.4-4,1.5-5.3C368.5,226.8,370.5,223.2,372.4,219.4z"/>
		<path class="st92" d="M380,226.3c-1.7,0.9-2.8,0.9-2.8-1.5c0.1-3.6,0.6-7,2.1-10.2c0.8,1.2-0.4,3.7,0.9,3.8c2,0.2,1.2-2.5,2.3-3.6
			c0.1-0.1,0.2-0.1,0.3-0.2c0,2.6-0.5,5.1-1.4,7.6c-0.6,1.1-0.8,2.4-1.4,3.5C380,225.9,380,226.1,380,226.3z"/>
		<path class="st153" d="M379.3,202.1c-0.8-0.5-0.7-1.3-0.7-2.1c0.8-4.4,2-8.7,4.8-12.6c0,1.4,0,2.5,0,3.6c-0.6,2.5-0.6,5-1.2,7.5
			c-1.3,0.1-1.3,1.3-1.7,2.1C380.2,201.1,380.7,202.4,379.3,202.1z"/>
		<path class="st92" d="M384.8,195.2c0,6.5,0.3,13.1-2.1,19.4C383.5,208.1,384.2,201.7,384.8,195.2z"/>
		<path class="st92" d="M381.4,198.7c1.4-2.4,0.5-5.3,2-7.6c0.1,4.3-0.3,8.5-2.1,12.5c0-0.9,0-1.8,0-2.8
			C380.8,200,380.9,199.4,381.4,198.7z"/>
		<path class="st92" d="M379.3,214.6c0.8-3.2,0.6-6.6,2.1-9.7C381,208.2,381.7,211.7,379.3,214.6z"/>
		<path class="st54" d="M342.6,144c-0.4-0.4-0.9-0.9-1.3-1.3c0-0.3-0.1-0.5-0.1-0.8c-0.9-1.8-0.9-3.6-0.9-5.5
			c0.3-3.3-0.6-6.7,0.6-10c0.3-0.4,0.6-0.5,1.1-0.3C341.8,132,342.2,138,342.6,144z"/>
		<path class="st154" d="M341.2,136.3c0,1.8,0,3.7,0,5.5c0,0-0.3,0-0.3,0s-0.3,0-0.3,0c0-0.2-0.1-0.4-0.1-0.7
			c-0.5-1.5-1.2-3-0.3-4.6C340.4,136.3,340.8,136.2,341.2,136.3z"/>
		<path class="st24" d="M339.2,150.2c1.3-0.8,0.1-2.6,1.3-3.4c0,1.2,0.3,2.5,0,3.6C340.1,151.9,339.6,150.8,339.2,150.2z"/>
		<path class="st105" d="M414.6,314.2c-0.5,0-0.9,0-1.4,0c-0.3-0.1-0.5-0.3-0.7-0.6c-0.8-1-1.4-2-2.2-3c-0.2-0.2-0.3-0.5-0.5-0.8
			c-0.5-1.1-1.1-2.1-2-3c-1.3-1.5-2.1-3.3-3.3-4.8c-0.1-0.3-0.2-0.6-0.3-0.8c-0.6-1.2-0.9-2.7-2.1-3.6c-1.9-2-1.8-4.9-3.4-6.9
			c0-0.5-0.1-1.1,0.2-1.3c0.7-0.7,0.9,0.2,1.2,0.6c2.2,3.3,4.5,6.6,6.7,10c2.6,4.1,5,8.2,7.5,12.3
			C414.5,312.8,414.5,313.6,414.6,314.2z"/>
		<path class="st155" d="M337.8,284.5c0,0.2,0,0.5,0,0.7c-0.7,0.5-1.4,0.5-2.1,0c-7.6-4.4-15.2-8.8-22.8-13.2
			c-0.5-0.3-1-0.6-0.7-1.4c3.9,0.2,6.7,3.3,10.4,4.1c0.9,0.1,1.7,0.6,2.4,1.1c0.9,0.8,1.9,1.3,3,1.7c0.3,0.1,0.6,0.2,0.8,0.4
			c0.4,0.2,0.7,0.5,1.1,0.8c0.9,0.8,1.9,1.3,3,1.8c0.3,0.1,0.5,0.3,0.8,0.5C335,282.2,337,282.6,337.8,284.5z"/>
		<path class="st156" d="M329.4,278.9c-0.2-0.2-0.4-0.5-0.7-0.7c-0.2-0.6,0-0.9,0.7-0.7c1.6,0.7,3,1.8,4.8,2.1
			c3.1,2.7,7,4.1,10.4,6.2c0.5,1.2,1.8,1.5,2.8,2.1c0.2,0.5,0.5,0.9,0.7,1.4c0,0.2,0,0.5,0,0.7c-0.2,0.2-0.4,0.3-0.7,0.4
			c-0.3,0-0.5-0.2-0.7-0.4c-2.8-1.8-5.5-3.7-8.3-5.5c-1.9-1.1-3.7-2.3-5.6-3.5l0,0C331.9,280.1,330.5,279.8,329.4,278.9z"/>
		<path class="st157" d="M312.2,270.6c0.2,0.5,0.5,0.9,0.7,1.4c-2.9-0.5-5.4-1.5-6.9-4.2c1.3-0.5,2.3,0.5,3.5,0.8
			C310.7,268.8,311.3,269.9,312.2,270.6z"/>
		<path class="st59" d="M329.5,277.5c-0.2,0.2-0.5,0.5-0.7,0.7c-0.2,0-0.4,0-0.6,0c-1.1-0.9-2.5-1.3-3.6-2.1c-0.7-0.5-1.4-0.9-2-1.4
			C325.4,274.4,327.4,276,329.5,277.5z"/>
		<path class="st158" d="M309.4,268.6c-1.2-0.3-2.3-0.5-3.5-0.8c0-0.2,0-0.4,0-0.6C307.4,267.1,308.5,267.5,309.4,268.6z"/>
		<path class="st97" d="M454.8,341.3c3.2-1.6,5.4-4.3,7.6-6.9c1.6-0.7,2.2-2.8,4.3-2.8c0.3,1.7-1.1,2.4-2,3.4
			c-2.3,2.7-5.4,4.7-7.1,7.9c-0.5,1.1-1.4,1.7-2.3,2.4c-1.2,1-2.3,2-3,3.3c-0.1,0.3-0.2,0.5-0.4,0.8c-0.1,0.1-0.2,0.2-0.3,0.4
			c-0.2,0.2-0.5,0.4-0.7,0.5c-0.5,0.2-1.1,0.5-1.6,0.1c0-0.5,0-0.9,0-1.4c0-0.5,0-0.9,0-1.4C451.2,345.5,453.9,344.2,454.8,341.3z"
			/>
		<path class="st55" d="M484.5,317.7c0.1,1.2-1,1.8-1.4,2.8c-2.5,2.1-5.1,4.2-7.6,6.2c-0.8,0.6-1.4,3-2.4,0.2
			c1.1-1.4,2.3-2.7,3.9-3.6c0.4-0.5,0.8-0.9,1.3-1.4c1-0.6,1.8-1.5,2.9-2.1C482.4,319.2,482.9,317.7,484.5,317.7z"/>
		<path class="st159" d="M456.8,342.7c1.2-3.3,4.3-4.9,6.4-7.4c1.1-1.3,2.3-2.5,3.5-3.8c1.1-0.7,2-1.6,2.6-2.7
			c0.4-0.4,0.8-0.5,1.3-0.2c0.6,2.3-1.6,2.9-2.6,4.3c-0.9,1.2-2,2.1-3.2,2.9c-1.2,0.8-1.8,2.2-2.8,3.1
			C460.2,340.2,459.4,342.7,456.8,342.7z"/>
		<path class="st160" d="M477,323.3c-1.2,1.2-2.4,2.3-3.6,3.5c-0.1,0.1-0.2,0.1-0.4,0.2c-0.1-0.1-0.2-0.2-0.3-0.3
			C473.9,325.2,474.9,323.5,477,323.3z"/>
		<path class="st161" d="M470.7,328.8c-0.5,0-0.9,0-1.4,0.1c0.7-1.5,1.8-2.3,3.5-2.2c0,0,0,0,0,0
			C472.8,328.2,472.1,328.8,470.7,328.8z"/>
		<path class="st162" d="M481.2,319.8c-0.7,1.1-1.5,2-2.9,2.1C478.9,320.7,479.7,319.8,481.2,319.8z"/>
		<path class="st163" d="M313.6,168.2c-0.5-0.7-0.9-1.4-1.4-2.1c2.3-0.3,3.5,2.1,5.6,2.1c1.6-0.3,2.4,1.3,3.8,1.6
			c0.6,0.8,2.1,1.1,1.7,2.6c-0.2,0-0.5,0-0.7,0c-2.5,0.5-4.1-1.6-6.2-2.1C315.4,169.6,314.5,168.9,313.6,168.2z"/>
		<path class="st163" d="M312.2,166.1c-1.5-0.1-3.1-0.1-3.5-2.1c-0.2-0.2-0.2-0.3-0.2-0.5c0.1-0.2,0.1-0.2,0.2-0.2
			C310,164.1,311.6,164.5,312.2,166.1z"/>
		<path class="st54" d="M323.2,172.4c-0.4-0.9-1.1-1.6-2.1-2.1c-0.4-0.5-0.4-0.9,0-1.4c0.5,0,0.9,0,1.4,0c0.1,1.3,1.2,1.6,2.1,2.1
			c0.4,0.5,0.4,0.9,0,1.4C324.2,172.4,323.7,172.4,323.2,172.4z"/>
		<path class="st128" d="M321.2,168.9c0,0.5,0,0.9,0,1.4c-1.1-0.7-2.3-1.4-3.4-2.1C319.3,166.5,320.1,168.6,321.2,168.9z"/>
		<path class="st163" d="M308.7,163.3c0,0.2,0,0.5,0,0.7c-1.5,0-3.3,0.2-3.4-2.1c1.2-0.2,2.3,0.3,3.5,0.7
			C308.7,162.9,308.7,163.1,308.7,163.3z"/>
		<path class="st70" d="M308.7,162.6c-1.2,0.1-2.4,0-3.5-0.7c0.2-0.2,0.5-0.5,0.7-0.7C307,161.4,308,161.8,308.7,162.6z"/>
		<path class="st164" d="M470.7,328.8c0.7-0.7,1.4-1.4,2.1-2.1c0.2,0,0.5,0,0.7,0.1c0.8,2,1.4-0.3,2.1-0.1
			c-3.2,3.8-6.5,7.5-11.1,9.7c-0.2-0.2-0.3-0.3-0.2-0.5c0.1-0.2,0.1-0.3,0.2-0.3C466.5,333.4,468.6,331.1,470.7,328.8z"/>
		<path class="st165" d="M462.4,347.5c-0.2,0.2-0.5,0.5-0.7,0.7c-0.9,1.6-2.7,2.1-3.8,3.4c-0.9,1-2.1,1.5-3.3,0.3
			c-1.1-1-0.6-2.1,0.1-3.1c0.5-0.7,0.8-1.7,1.7-2.1c0.2,0,0.3,0.1,0.5,0.1c0,2.2,0.5,3.3,2.6,1.3c1.1-1,2.4-1.8,3.6-2.6
			C463.9,346.4,463.1,346.9,462.4,347.5z"/>
		<path class="st165" d="M463.1,339.2c-1,3.4-3.8,5.4-6.2,7.6c0,0,0,0,0,0c-0.4-0.4-0.5-0.9-0.4-1.4c0.9-2.8,3.5-4.3,5.3-6.4
			C462.2,338.7,462.7,338.8,463.1,339.2z"/>
		<path class="st45" d="M463.1,339.2c-0.5,0-0.9,0-1.4,0c-0.2-0.2-0.3-0.3-0.2-0.5c0.1-0.2,0.1-0.3,0.2-0.3c0.7-1.1,1.6-2,2.8-2.8
			c0,0.3,0,0.5,0,0.8C464.5,337.6,463.4,338.2,463.1,339.2z"/>
		<path class="st166" d="M462.4,347.5c0.2-0.7,0.5-1.4,0.7-2.1c0.9-0.5,1.8-0.9,2.8-1.4C465.5,345.9,464.3,347.1,462.4,347.5z"/>
		<path class="st167" d="M341.2,136.3l-0.3,0l-0.3,0c-1.6-1.8-0.9-4-0.9-6.1c0-3.4,0.6-6.9,0.5-10.3c0-0.4,0.1-0.8,0.5-1.1
			c0.2,0,0.4,0.1,0.6,0.1c0,0.2,0,0.5,0,0.7c0.5,2.1,0.4,4.1,0.1,6.2C341.3,129.4,341.2,132.9,341.2,136.3z"/>
		<path class="st168" d="M341.2,114.9c-0.5-3.4,0.3-6.8-0.5-10.2c0.3,0.1,0.9,0.2,0.9,0.3c0.2,4.7,1,9.4-0.4,14c0,0,0,0,0,0
			C340.2,117.7,340.8,116.3,341.2,114.9z"/>
		<path class="st168" d="M341.3,126c0-2.1,0-4.1-0.1-6.2c0.2,0.2,0.4,0.4,0.7,0.7c0,1.8,0,3.7,0,5.5c0,0-0.3,0-0.3,0L341.3,126z"/>
		<path class="st26" d="M335.7,291.4c1.2,0.4,2.4,0.6,3.5,1.2c1.4,0.7,3,1,3.6-0.3c0.7-1.6-1.4-1.6-2.3-2.3
			c-0.2-0.2-0.5-0.5-0.7-0.7c-0.4-0.5-0.4-0.9,0-1.4c2.5,0.9,3.9,3.1,5.8,4.7c0.8,0.7,0.9,1.5,0.3,2.4c-0.6,1-1.3,1.1-2.3,0.7
			C340.9,294.6,337.8,293.8,335.7,291.4z"/>
		<path class="st83" d="M339.9,288c0,0.5,0,0.9,0,1.4c-1.8-0.9-3.8-1.8-4.2-4.1c0.7,0,1.4,0,2.1,0
			C337.8,286.6,338.8,287.3,339.9,288z"/>
		<path class="st163" d="M463.8,274.8c0.2,0.2,0.5,0.5,0.7,0.7c-2.7,4.1-6.4,7.1-10.4,9.7c-0.2-0.2-0.3-0.5-0.4-0.9
			c1.2-2.8,3.6-4.4,5.9-6.1c0.9-0.9,1.8-1.8,2.8-2.8C462.7,275,463,274.4,463.8,274.8z"/>
		<path class="st82" d="M442.3,294.8c0-0.5,0-0.9,0-1.4c3.5-2.9,6.7-6.2,9.7-9.7c0.6,0,1.2,0.1,1.6,0.8c-0.2,1.4-0.9,2.3-2.3,2.7
			c-1.1,0.9-2.3,1.8-3.4,2.7c-1.2,1.8-3.1,3.1-4.3,4.9c-0.2,0.2-0.4,0.4-0.6,0.6c-0.2,0.3-0.5,0.3-0.8,0.2
			C442,295.4,442,295.1,442.3,294.8z"/>
		<path class="st169" d="M453.4,284.5c-0.6,0-1.1-0.2-1.4-0.7c2.5-1.8,4-5.1,7.6-5.6c-1.8,2.1-3.7,4.2-5.5,6.3
			C453.8,284.8,453.6,284.8,453.4,284.5z"/>
		<path class="st70" d="M463.8,274.8c-0.5,0.2-0.9,0.5-1.4,0.7c-0.3-1.7,1.2-2,2.1-2.8C464.2,273.4,464,274.1,463.8,274.8z"/>
		<path class="st83" d="M316.3,170.3c2.5-0.6,3.9,2,6.2,2.1c1.6,2.9,5.3,3.4,6.9,6.2c1.1,0.9,3.7,1.4,2.1,3.3
			c-1.6,1.9-3.9,1.2-5.6-0.7c0-0.2,0.1-0.4,0.1-0.6c0.9-0.1,2.1,1,2.6-0.6c0.4-1.2-0.7-1.6-1.4-2.1c-3-2.2-5.7-4.7-9.2-6.2
			C317.3,171.5,316.7,171.1,316.3,170.3z"/>
		<path class="st83" d="M320.5,179.3c-1.9,0.4-2.8-1.4-4.1-2.1c-0.3-0.7-1.1-1.2-0.7-2.1c3.8,1.3,7.1,3.3,10.4,5.5c0,0,0,0,0,0
			c-1.2,1.1-2.3-0.2-3.4-0.1C321.7,180.5,321.1,179.9,320.5,179.3z"/>
		<path class="st170" d="M315.6,175.1c0.2,0.7,0.5,1.4,0.7,2.1c-1.2-0.7-2.3-1.4-3.5-2.1c-0.5-0.7-0.9-1.9-2.1-0.7
			c-1.6-0.9-2.7-2.3-3.5-4.2C310.1,171.9,312.9,173.5,315.6,175.1z"/>
		<path class="st56" d="M447.1,294.2c0.8-1.6,1.4-3.5,3.5-4.2c-0.1,1.7-1.2,2.9-2.2,4.1c-0.4,0.5-0.5,1,0,1.5c0.6,0.6,1,0.1,1.4-0.2
			c1.4-1.1,2.9-2.2,4.3-3.2c0.2,0.2,0.2,0.3,0.2,0.5c-0.1,0.2-0.1,0.2-0.2,0.2c-1,1.8-1.8,3.8-4.2,4.1c-1.1,0.4-1.8,2.2-3.2,1.3
			C444.5,296.8,446,295.4,447.1,294.2z"/>
		<path class="st26" d="M454.1,292.8c0-0.2,0-0.5,0-0.7c0.4-2.3,2.7-2.4,4.1-3.5C457.9,291.1,456.2,292.2,454.1,292.8z"/>
		<path class="st54" d="M453.4,284.5c0.2,0,0.5,0,0.7,0c0,0.2,0,0.5,0,0.7c-0.2,1.6-1.1,2.5-2.8,2.8c0-0.2,0-0.5,0-0.7
			C452,286.3,452.7,285.4,453.4,284.5z"/>
		<path class="st47" d="M476.2,184.8c0.1,0.7-0.1,1.4,0.4,2c-0.5,2.7-2.8,4-4.6,5.7c0.5-2.5,0.9-5.1,1.4-7.6c1,0.4,0.4,1.7,1.1,2.3
			C475.8,186.8,475.2,185.3,476.2,184.8z"/>
		<path class="st171" d="M506,160.5c0,0.7,0,1.4,0,2.1c-0.3,0.4-0.8,0.7-1,0.3C504.5,161.9,505.3,161.2,506,160.5z"/>
		<path class="st172" d="M368.2,235.3c0.7-1.4,1.4-2.8,2-4.2c0.3,0.2,0.4,0.5,0.5,0.8c0.1,0.5-0.1,0.9-0.4,1.3
			c-1.2,3.4-2.9,6.6-3.3,10.3c-0.5,0-1.1,0.1-1.6,0.1c-0.6,0.2-0.8,0-0.7-0.7l0.2-0.2c0.4-1.2,1-2.5,1.4-3.7
			C367,237.8,367.1,236.3,368.2,235.3z"/>
		<path class="st173" d="M366.9,239.5c-0.5,1.2,0,2.9-1.9,3.3c-0.3-0.6-0.6-1.2-1-1.9c0-0.2,0.1-0.5,0.1-0.7
			C365,240,365.4,237.6,366.9,239.5z"/>
		<path class="st174" d="M364.7,243c0.2,0.2,0.5,0.4,0.7,0.7c-0.3,0.7-0.6,1.4-0.8,2.1C364.3,244.8,363.4,243.8,364.7,243z"/>
		<path class="st163" d="M348.2,370.3c2,0.2,2.9,2.4,4.8,2.7c2,0.7,3.6,1.9,4.9,3.5l0,0c0.2,0.2,0.3,0.3,0.2,0.5
			c-0.1,0.2-0.2,0.2-0.2,0.2c0,0,0,0,0,0c-1.3,0-2.4,0-3.5-1c-2.4-2.2-5.5-3.4-7.6-6C347.2,369.9,347.7,369.9,348.2,370.3z"/>
		<path class="st89" d="M366.2,389.7c-0.6-0.3-0.7-0.8-0.7-1.4c0.2-0.5,0.5-0.9,0.7-1.4c0,0,0,0,0,0c1.5,0.1,2.5,0.9,2.2,2.3
			C368.2,390.5,367,390.2,366.2,389.7z"/>
		<path class="st164" d="M348.2,370.3c-0.5,0-0.9,0-1.4,0c-0.4-1.2-1.8-1.4-2.6-2.2c-0.7-0.7-0.6-1.2,0.5-1.2
			C345.4,368.4,347.6,368.6,348.2,370.3z"/>
		<path class="st89" d="M364.8,388.3c-1.5,0.1-2.7-0.3-2.8-2.1C363.4,386.3,364.2,387.2,364.8,388.3z"/>
		<path class="st77" d="M487.8,213.1c-6,4.4-11.9,8.9-17.9,13.2c-0.8,0.6-1.5,1.4-2.7,1.4c-1-1.8,1.1-2.2,1.6-3.4
			c0.2-0.2,0.4-0.4,0.7-0.6c1.1-0.5,2.2-0.8,2.7-2c0.8-1.3,1.9-2,3.3-2.4c3.1-0.2,4.1-3.6,6.9-4.4
			C484.2,214.5,485.5,212.4,487.8,213.1z"/>
		<path class="st93" d="M475.5,219.4c-0.9,0.9-1.8,1.8-2.8,2.8c-1,1-2.2,1.6-3.5,2.1l0,0c-1.4,1.4-2.9,2.7-4.4,3.9
			c-1.2,0.4-1.8,1.7-3,1.9c-0.8-0.1-1.3,0.8-2.2,0.4c-0.5,0-1,0-1.4,0c1.5-2,4.6-2.5,4.9-5.5c1.8,0.8,2.6-0.9,3.8-1.5
			C469.8,222.1,471.9,219.1,475.5,219.4z"/>
		<path class="st30" d="M357.9,376.5c-1.8-0.9-3.7-1.8-4.9-3.5C356,372.3,357,374.3,357.9,376.5z"/>
		<path class="st175" d="M357.9,377.2c0-0.2,0-0.5,0-0.7c1.5-0.3,2.4,0.8,3.5,1.4c0.2,0.5,0.5,0.9,0.7,1.4c-0.5,0-0.9,0-1.4,0
			C359.7,378.6,358.8,377.9,357.9,377.2z"/>
		<path class="st105" d="M322.6,180c1.2,0.2,2.3,0.5,3.5,0.7c0.3,0.3,0.5,0.9,0.9,1c1.5,0.5,3.3,1.1,4.3-0.3c1-1.4-1.6-1.6-1.7-2.8
			c3.1,0,4,3,5.9,4.6c0.6,0.6,0.7,1.7-1.1,1.9c-2,0.3-3.5-0.4-5.2-1.1c-2-0.8-3.7-2.2-5.9-2.6C322.9,181,322.1,180.8,322.6,180z"/>
		<path class="st128" d="M336.4,181.4c1.9,0.8,3.3,2.2,4.8,3.5c-0.8,1.1,0.5,1.2,0.8,1.9c0.7,1.5-0.6,3.6-2.2,3.2
			c-1.9-0.4-3.6-1.1-5.5-1.6c0.4-0.5,0.9-0.8,1.5-0.5c1.6,0.8,2.9,0.5,3.7-1.1c0.8-1.7-0.5-2.5-1.7-3.2
			C337,183,336.4,182.4,336.4,181.4z"/>
		<path class="st176" d="M335.7,179.3c-0.2,0.2-0.4,0.4-0.7,0.6c-3.2-2.4-6.9-4.1-9.8-7c1.1-0.8,1.8,0.3,2.7,0.4
			c1.9,1.4,3.9,2.7,5.9,3.9C334.6,177.8,335.3,178.4,335.7,179.3z"/>
		<path class="st163" d="M328,173.8c-0.9-0.3-1.9-0.5-2.8-0.8c-0.2-0.2-0.4-0.4-0.6-0.6c0-0.5,0-0.9,0-1.4c1.4,0.9,2.8,1.8,4.2,2.8
			C328.6,174,328.3,174,328,173.8z"/>
		<path class="st170" d="M322.6,180c0.2,0.5,0.5,0.9,0.7,1.4c-1.5,0.1-2.7-0.3-2.8-2.1C321.2,179.5,321.9,179.7,322.6,180z"/>
		<path class="st128" d="M381.4,198.7c0,0.7,0,1.4,0,2.1c-2.2,7.3-3.9,14.7-5.5,22.2c-0.2,0-0.5,0-0.7,0c-0.8-0.7-0.8-1.6-0.9-2.5
			c1.8-5.8,3.5-11.7,5.1-17.6c0-0.2,0-0.4,0-0.7c1-0.9,0.7-2.3,1-3.4C380.7,197.7,381,198.2,381.4,198.7z"/>
		<path class="st177" d="M374.6,220.8c0.7,0.5,0.5,1.3,0.6,2c-1,0.7-0.6,1.8-0.7,2.8c-1.1,2.5-2.3,5.1-3.4,7.6c-0.2,0-0.4,0-0.6,0
			c0-0.4,0-0.9,0-1.3c0.5-0.9,0.5-1.9,1-2.8C372.6,226.5,372.7,223.3,374.6,220.8z"/>
		<path class="st151" d="M380,225.7c0-1.4,0.3-2.6,1.4-3.5C381.4,223.5,381.1,224.8,380,225.7z"/>
		<path class="st178" d="M346.8,290c0.2,0,0.5,0,0.7,0c0.5,0.9,1.2,1.6,2.1,2.1c0.2,0,0.4,0,0.6,0c0.5,0.9,1.2,1.6,2.1,2.1l0,0
			c0.2,0.2,0.3,0.3,0.2,0.5c-0.1,0.2-0.2,0.2-0.2,0.2c-1.6,5.7-4.3,6.3-10.4,2.1c1.9-0.2,3.6,0.6,5.3,1c1.1,0.3,1.7-0.1,2.4-0.8
			c0.9-1,0-1.6-0.4-2.4C348.5,293.2,345.8,292.5,346.8,290z"/>
		<path class="st62" d="M332.9,281c2.3,0.5,4.1,1.8,5.6,3.5c-0.3,0-0.5,0-0.8,0C336.1,283.5,334.1,282.8,332.9,281z"/>
		<path class="st179" d="M447.1,294.2c0.4,1.2-1.9,1.9-0.5,3.3c1.4,1.4,2.1-0.9,3.3-0.5c-1.1,1.8-2.7,3-4.4,4.1
			c-1,0.7-1.7,0.2-2.4-0.4c-0.8-0.6-0.1-1.2,0.3-1.7C444.6,297.4,444.4,294.6,447.1,294.2z"/>
		<path class="st180" d="M443.6,294.9c0.7-2.3,2.4-3.6,4.3-4.9C447.2,292.3,445.4,293.6,443.6,294.9z"/>
		<path class="st181" d="M442.3,295.5c0.2,0,0.5,0,0.7,0c0.1,1.2-1,1.8-1.4,2.8c-0.5,0.3-1,0.5-1.4,0.8
			C439.4,297,441.3,296.5,442.3,295.5z"/>
		<path class="st129" d="M465.8,233.9c0,0.2,0,0.5,0,0.7c-1.7,0.4-3,2-4.8,2.1c-2.1,0.7-2.9,0.1-2.1-2.1c0.8-0.8,1.6-1.7,2.8-2.1
			C462.7,234.2,464.5,233.3,465.8,233.9z"/>
		<path class="st46" d="M464.4,227.7c1.6-1.2,3-2.7,4.9-3.4c0.3,1.7-2.1,1.9-2.1,3.5c-0.7,0.9-1.7,1.3-2.7,1.4c0,0,0,0,0,0
			C464,228.6,464.1,228.2,464.4,227.7z"/>
		<path class="st129" d="M470.7,230.5c-0.5,1.3-1.6,1.5-2.8,1.4C468.6,231,469.6,230.6,470.7,230.5z"/>
		<path class="st79" d="M472.1,183.4c-0.3,1.7-0.5,3.4-0.9,5.1c-0.4,1.7-1.5,2.1-3.1,1.4c0.2-2-1.7-5.2,2.7-5
			C471.2,184.9,471.6,183.9,472.1,183.4z"/>
		<path class="st110" d="M520.5,162.7c-0.5,0.3-0.9,0.6-1.5,0.8c-1.4,0.5-3.7,1.3-4,0.2c-0.5-2.1,2-1.8,3.4-2.3
			C517.7,163.8,519.8,162.2,520.5,162.7z"/>
		<path class="st182" d="M524,157.1c1.2-1.7,3.7-1.1,4.8-2.8c1,0.1,1.9-0.2,2.8-0.7c0.3,0.2,0.5,0.4,0.7,0.7
			c-2.7,1.3-5.4,2.7-8.3,3.4c-0.2-0.1-0.2-0.3-0.2-0.4C523.9,157.2,523.9,157.1,524,157.1z"/>
		<path class="st118" d="M517.1,159.2c1.4-0.5,2.8-0.9,4.1-1.4c0.3,0.2,0.7,0.3,0.7,0.7c-0.6,1.6-2.4,1.3-3.5,2.1
			C517.6,160.6,517.1,160.1,517.1,159.2z"/>
		<path class="st183" d="M521.9,158.5c-0.2-0.2-0.5-0.5-0.7-0.7c0.9-0.5,1.8-0.8,2.8-0.7c0,0.2,0,0.4,0,0.7
			C523.5,158.6,522.7,158.5,521.9,158.5z"/>
		<path class="st184" d="M532.3,154.4c-0.2-0.2-0.5-0.5-0.7-0.7c0.7-0.2,1.4-0.3,2.3-0.6C533.7,154.3,533,154.3,532.3,154.4z"/>
		<path class="st159" d="M474.8,172.4c0.9,0.8,0.8,1.7,0.4,2.9C474.5,174.3,475,173.3,474.8,172.4
			C474.9,172.4,474.8,172.4,474.8,172.4z"/>
		<path class="st58" d="M474.6,179.6c-0.6-1-0.5-1.7-0.1-2.5C475.1,177.8,474.8,178.5,474.6,179.6z"/>
		<path class="st185" d="M450.7,349.5c0.2,0,0.4,0,0.6,0c1.1,1.2,0.3,2.3-0.2,3.5c-0.4,0.9-1.2,1.9-0.1,2.8c0.8,0.7,1.7,0.3,2.6-0.2
			c0.8-0.4,1.5-1.1,2.5-0.5c-1,2.8-3.1,4.3-5.9,4.3c-3.2,0-3.8-1.4-2.2-4.2c0.3-0.6,0.4-1.1-0.2-1.5c-0.4-0.7,0.2-1.1,0.5-1.5
			C449.3,351.4,450,350.5,450.7,349.5z"/>
		<path class="st49" d="M456.2,355.1c-0.8,0.5-1.5,1-2.3,1.5c-1.4,0.9-2.9,1-4.1-0.2c-1.1-1.1-0.5-2.3,0.3-3.4
			c0.8-1,1.3-2.2,1.2-3.5c0.5-0.5,1.2-0.6,1.8-0.3c0.1,0.1,0.3,0.2,0.2,0.2c-1,3.2,0.1,4.6,3.4,4.3c0,0.2,0,0.5,0,0.7
			C456.6,354.6,456.4,354.9,456.2,355.1z"/>
		<path class="st186" d="M440.4,361.1c-1.1-2.7,0.7-3.8,2.6-4.8c0.6-0.3,0.6,0.4,0.6,0.8c-0.2,1.4-0.8,2.7-2.1,3.5
			C441.2,360.8,440.8,360.9,440.4,361.1z"/>
		<path class="st166" d="M448.5,352.3c-0.2,0.5-0.5,0.9-0.7,1.4c-1,0.8-1.4,2.3-2.7,2.8c-0.2,0.3-0.5,0.3-0.7,0
			c1.2-1.8,2.1-3.8,4.1-4.9c0.2,0.2,0.3,0.3,0.2,0.5C448.7,352.3,448.6,352.3,448.5,352.3z"/>
		<path class="st79" d="M444.4,356.5c0.2,0,0.5,0,0.7,0c-0.8,1.7-1.3,3.7-3.6,4.1c0.7-1.2,1.4-2.3,2.1-3.5
			C443.9,356.9,444.1,356.7,444.4,356.5z"/>
		<path class="st187" d="M509.9,150.2c0.7-0.3,0.9,0.1,0.8,0.4c-0.1,0.4-0.3,0.9-0.6,1.1c-0.4,0.3-0.6-0.1-0.6-0.5
			C509.6,150.8,509.8,150.4,509.9,150.2z"/>
		<path class="st37" d="M404.9,301.1c0,0.2,0,0.4,0,0.7c1.8,3.8,4.4,7.3,5.9,11.3c0.5,1.2,1.2,2.3,1.7,3.5c0,0.2,0,0.3,0,0.5
			c0.8,2.6,1.7,5.2,2.5,7.8c0.3,0.8,0.4,1.7-0.5,2.1c-0.8,0.4-1.3-0.4-1.6-0.9c-2-2.6-4.2-5-5.2-8.3c0.4,0.3,0.8,0.5,1.1,0.9
			c0.5,0.6,0.9,1.6,1.9,0.9c0.9-0.6,0.2-1.4-0.1-2.1c-2.1-4.4-4.1-8.9-6.2-13.3c-0.4-0.9-0.9-1.9-0.8-3
			C404,300.7,404.5,300.7,404.9,301.1z"/>
		<path class="st163" d="M404.9,301.1c-0.5,0-0.9,0-1.4,0c-0.5-1.1-0.9-2.3-1.4-3.4c0.1-0.4,0.1-1.5,0.8-0.4
			C403.7,298.4,404.3,299.8,404.9,301.1z"/>
		<path class="st188" d="M413.2,313.7c0,0.2,0,0.4,0,0.6c1.2,2.4,2.3,4.9,4.1,6.9c0.8,1.5,1.8,2.9,2.9,4.3c0.7,0.5,0.6,1.3,0.7,2.1
			c0.2,0.1,0.3,0.3,0.2,0.4c-0.1,0.1-0.1,0.2-0.2,0.2c0,0.3,0,0.5,0,0.8c-2-1.1-1.9-4-4.1-4.9c-1.3-2.4-2-5.1-4.2-6.9v0
			c-0.7-1.1-1.3-2.2-1.7-3.4c0-0.3,0.1-0.6,0.3-0.9C412.1,312.5,412.6,313.2,413.2,313.7z"/>
		<path class="st189" d="M458.9,234.6c-0.2,1.5,0.5,2.2,2.1,2.1c-0.2,0.5-0.6,1.2-1.2,1c-1.5-0.5-3.2,2.4-4.1,0.2
			C455,236,457.5,235.5,458.9,234.6z"/>
		<path class="st190" d="M452.7,237.4c1.2-1.4,2.1-3.1,4.2-3.4C455.7,235.4,454.7,237.1,452.7,237.4z"/>
		<path class="st191" d="M459.7,230.5c0.7-0.2,1.4-0.5,2.1-0.7c0.2,0.2,0.3,0.3,0.2,0.5c-0.1,0.1-0.2,0.2-0.2,0.2
			c-0.8,0.7-1.5,1.7-2.8,1.4C459.2,231.4,459.4,231,459.7,230.5z"/>
		<path class="st192" d="M461.7,230.5c0-0.2,0-0.5,0-0.7c0.9-0.7,1.8-1.4,2.7-2.1c0,0.5,0,0.9,0,1.4
			C463.5,229.5,462.9,230.6,461.7,230.5z"/>
		<path class="st37" d="M352.3,294.9c0-0.2,0-0.5,0-0.7c1.2-0.1,1.8,1,2.8,1.4c0.7,1.6,2.9,1.7,3.4,3.4
			C355.9,298.5,354.4,296.2,352.3,294.9z"/>
		<path class="st105" d="M428.5,237.4c1.4,2.2,1.4,4.7,1.9,8c-1.7-1.6-2.2-3.1-2.7-4.5c0-0.1-0.2-0.1-0.3-0.1
			c-0.1,0-0.2,0.1-0.3,0.2c-2-1.4-0.8-3.9-2.1-5.5c0-0.7,0-1.4,0-2.1c2.4,1.1,1.2,4.2,3.1,5.6C428.6,238.5,428.4,237.9,428.5,237.4z
			"/>
		<path class="st6" d="M448.5,352.3c0-0.2,0-0.5,0-0.7c0.2-0.5,0.5-0.9,0.7-1.4c0.5-0.2,1-0.5,1.4-0.7
			C450.5,350.9,449.6,351.7,448.5,352.3z"/>
		<path class="st193" d="M340.6,119.1c0,3.7-0.1,7.4-0.1,11.1c-1.2,3.1,0.4,6.9-2,9.8c-1.8-0.5-0.5-2.2-1.4-2.9c0,0,0,0,0,0
			c0-3.8,0-7.5,0-11.3c0-1.1-0.4-2.3,0.7-3.2c0,3.2,0,6.4,0,9.6c1.4-3.8,1.9-7.6,2.1-11.6c0.1-1.4-0.6-3,0.7-4.3
			C341.1,117.2,341,118.1,340.6,119.1z"/>
		<path class="st194" d="M340.6,119.1c0-0.9,0-1.9-0.1-2.8c0-0.5,0.1-1.1,0.7-1.4c0,1.4,0,2.8,0,4.1c0,0-0.3,0-0.3,0L340.6,119.1z"
			/>
		<path class="st166" d="M456.8,353.7c-0.5,0.2-1.2,0.2-1.5,0.6c-1.3,1.2-2.3,0.4-3.3-0.4c-1.2-1,0-1.8,0.4-2.6
			c0.3-0.6,0.6-1.2,0.9-1.8c-0.2-2.5,0.9-4,3.5-4.1c0,0.5,0,0.9,0,1.4c-0.4,0.8-0.8,1.6-1.3,2.3c-0.6,0.8-1.7,1.4-0.4,2.5
			c1.1,0.9,1.9-0.1,2.7-0.6c1.3-0.9,2.6-1.9,3.9-2.8C461.1,350.9,457.8,351.2,456.8,353.7z"/>
		<path class="st117" d="M438.7,308.5c-1.3-0.7-4.3,2.3-4-1.9c0.2-0.2,0.5-0.5,0.7-0.7C435.9,307.5,438.4,306.7,438.7,308.5z"/>
		<path class="st195" d="M442.3,295.5c-0.5,1.3-2.1,1.9-2.1,3.5c-0.2,0.2-0.4,0.4-0.6,0.6c-0.2,0.4-0.4,0.4-0.7,0c0-0.2,0-0.5,0-0.7
			c0-0.2,0-0.5,0-0.7c0.9-1.4,2.1-2.6,3.5-3.5C442.3,295.1,442.3,295.3,442.3,295.5z"/>
		<path class="st196" d="M435.4,305.3c0.2-1.5,1.2-2.5,2.1-3.5c0.2,0.2,0.3,0.3,0.2,0.5c-0.1,0.2-0.1,0.3-0.2,0.3
			C437.3,303.9,436.5,304.7,435.4,305.3z"/>
		<path class="st6" d="M437.5,302.5c0-0.3,0-0.5,0-0.8c0.5-0.7,0.9-1.4,1.4-2.1c0.2,0,0.5,0,0.7,0
			C439.5,301.1,438.5,301.8,437.5,302.5z"/>
		<path class="st157" d="M328,173.8c0.3,0,0.5,0,0.8,0c2,0.7,3.3,2.6,5.5,2.8c0,0.2,0,0.5,0,0.7c-0.1,0.3-0.4,0.5-0.7,0.6
			C331.7,176.5,329.6,175.6,328,173.8z"/>
		<path class="st61" d="M420.2,325.4c-1.6-1-2.8-2.3-2.9-4.3C418.9,322.2,419.7,323.7,420.2,325.4z"/>
		<path class="st6" d="M420.9,328c0-0.2,0-0.4,0-0.6c2-0.2,1.9,2.3,3.4,2.7c0,0.5,0,0.9,0,1.4C422.6,331,422.4,328.8,420.9,328z"/>
		<path class="st37" d="M352.3,294.2c-1.3-0.1-2-0.8-2.1-2.1C351.2,292.5,351.9,293.2,352.3,294.2z"/>
		<path class="st165" d="M349.6,292.1c-1.3-0.1-2.1-0.7-2.1-2.1c0.2,0,0.4,0,0.7,0C348.6,290.7,349.1,291.4,349.6,292.1z"/>
		<path class="st67" d="M431.2,257.5l-0.3,0c0,0-0.3,0-0.3,0c-0.7-2.5-2.2-4.9-2.1-7.6c0-0.5-0.7-1,0-1.4c0.2,0,0.4,0,0.7,0
			C429.2,251.7,430.8,254.4,431.2,257.5z"/>
		<path class="st197" d="M427.1,243c1.1,1,0.6,2.3,0.7,3.5C426.8,245.4,426.8,244.2,427.1,243z"/>
		<path class="st64" d="M366.2,389.7c0.6-0.1,1.6,0.2,1.7-0.6c0.2-1.2-0.9-1.7-1.7-2.2c0-0.2,0-0.5,0-0.7c2.5,0.3,2.9,2.7,4.1,4.2
			c0.8,2.2-0.7,2-2.1,2.1c-0.2-0.2-0.5-0.5-0.7-0.7C367.1,391.1,366.6,390.4,366.2,389.7z"/>
		<path class="st184" d="M333.7,177.8c0.2-0.2,0.4-0.4,0.7-0.6c1.7,0.9,2.9,2.4,4.8,2.8c0.6,1.7,2.4,1.7,3.5,2.8
			c-0.6,0-1.1,0.1-1.4,0.7c-1.9-1.4-3.7-2.7-5.6-4.1C335,178.8,334.3,178.3,333.7,177.8z"/>
		<path class="st24" d="M337.1,137.1c0.8,0.4,0.6,1.4,1,2.4c1.8-3.1,0.6-6.6,2.4-9.3c0,2.1,0.1,4.1,0.1,6.2c0,1.6-0.1,3.2-0.1,4.9
			c-0.5,0.1-0.8-1.5-1.3-0.2c-0.4,1,0.4,2.3-1,3.2C336.6,142,337.2,139.4,337.1,137.1z"/>
		<path class="st57" d="M371.7,391.1c0.9,0.8,2.8,1.3,1.3,2.9c-0.9,0.9-2.3,1-2.7-0.8C370.4,392.2,371.1,391.7,371.7,391.1
			L371.7,391.1z"/>
		<path class="st98" d="M371.7,391.1c0,1-0.5,1.7-1.4,2.1c-0.8,0-1.6,0.1-2.1-0.7c0.9-0.5,2.1-0.7,2.1-2.1
			C370.8,390.6,371.2,390.9,371.7,391.1z"/>
		<path class="st160" d="M374.6,220.8c-1,3-2,5.9-3,8.9c-0.3,0.1-0.5,0.2-0.7-0.1c-0.1-0.1,0-0.3,0.2-0.5c2.8-8.8,5.5-17.5,8.3-26.3
			C378.6,209,376.2,214.8,374.6,220.8z"/>
		<path class="st163" d="M366.9,239.5c-1.2-0.8-1.7,1.1-2.8,0.7c0-0.5,0-0.9,0-1.4c2.1-0.3,1.6-3.7,4.2-3.5
			C368.2,236.9,367.9,238.3,366.9,239.5z"/>
		<path class="st198" d="M371,229.1c0.2,0.2,0.4,0.4,0.5,0.6c-0.2,0.8-0.5,1.7-1.2,2.2c0-0.3,0-0.5,0-0.8
			C370.3,230.4,370.2,229.6,371,229.1z"/>
		<path class="st97" d="M411.2,312.7c0,0.3,0,0.6-0.1,0.9c-0.2,0.3-0.5,0.3-0.7,0c-2.2-3.8-4.3-7.6-5.5-11.8
			c1.7,1.3,2.3,3.3,3.5,4.9c0.8,1.1,1.2,2.4,2.1,3.5l0,0C410.8,310.9,411.9,311.6,411.2,312.7z"/>
		<path class="st199" d="M411.2,312.7c-0.3-0.9-0.5-1.7-0.8-2.6c1.4,0.8,1.9,2.3,2.8,3.6C412.4,313.8,411.8,313.2,411.2,312.7z"/>
		<path class="st200" d="M410.5,310.1c-1.3-0.8-1.8-2-2.1-3.5C409.8,307.4,410.3,308.7,410.5,310.1z"/>
		<path class="st158" d="M324.6,276.2c1.5,0.2,2.8,0.8,3.6,2.1C326.7,278.1,325.4,277.6,324.6,276.2z"/>
		<path class="st201" d="M329.4,278.9c1.5,0.2,2.7,0.7,3.5,2.1C331.5,280.8,330.2,280.3,329.4,278.9z"/>
		<path class="st185" d="M456.8,345.4c-1.7,0.9-2.7,2.4-3.5,4.1c-0.7,0-1.4,0-2.1,0c0-0.2,0-0.4,0-0.6c0.9-1.6,2.6-2.6,3.5-4.3
			c0.7-0.6,1.4-1.3,2-1.9c1.6-1.4,3.2-2.9,4.9-4.3c0,0.3,0,0.5,0,0.8C460.7,341.7,458.1,343,456.8,345.4z"/>
		<path class="st202" d="M454.8,344.6c-0.3,2.1-2,3.1-3.5,4.3C451.6,346.8,453.3,345.8,454.8,344.6z"/>
		<path class="st183" d="M469.3,224.3c1-0.9,2-1.9,3.5-2.1C472.4,224.2,470.8,224.2,469.3,224.3z"/>
		<path class="st82" d="M410.5,313.6c0.2,0,0.5,0,0.7,0c0.5,1.2,0.9,2.3,1.4,3.5C411.1,316.3,410.7,315,410.5,313.6z"/>
	</g>
</g>
</svg>
