<?xml version="1.0" encoding="utf-8"?>
<!-- Generator: Adobe Illustrator 22.0.0, SVG Export Plug-In . SVG Version: 6.00 Build 0)  -->
<svg version="1.1" id="Layer_1" xmlns="http://www.w3.org/2000/svg" xmlns:xlink="http://www.w3.org/1999/xlink" x="0px" y="0px"
	 viewBox="0 0 600 600" style="enable-background:new 0 0 600 600;" xml:space="preserve">
<style type="text/css">
	.st0{fill:transparent;}
	.st1{fill:#54653D;}
	.st2{fill:#4D5C38;}
	.st3{fill:#4A5936;}
	.st4{fill:#4B5A37;}
	.st5{fill:#4C5B37;}
	.st6{fill:#586A40;}
	.st7{fill:#4D5D38;}
	.st8{fill:#E6909C;}
	.st9{fill:#E49BA7;}
	.st10{fill:#DA8E93;}
	.st11{fill:#DC949A;}
	.st12{fill:#E38092;}
	.st13{fill:#E698A2;}
	.st14{fill:#3F4C2E;}
	.st15{fill:#E47D8D;}
	.st16{fill:#E48595;}
	.st17{fill:#CA7A7D;}
	.st18{fill:#D28489;}
	.st19{fill:#B87478;}
	.st20{fill:#E2899A;}
	.st21{fill:#E396A4;}
	.st22{fill:#D58990;}
	.st23{fill:#E597A3;}
	.st24{fill:#D28184;}
	.st25{fill:#5B6D42;}
	.st26{fill:#596A41;}
	.st27{fill:#E07182;}
	.st28{fill:#DB6574;}
	.st29{fill:#DE6B7C;}
	.st30{fill:#E07081;}
	.st31{fill:#DF6E7F;}
	.st32{fill:#DD6979;}
	.st33{fill:#DC6777;}
	.st34{fill:#DF6D7E;}
	.st35{fill:#D8626F;}
	.st36{fill:#D65F6B;}
	.st37{fill:#D96371;}
	.st38{fill:#D45C68;}
	.st39{fill:#DD6878;}
	.st40{fill:#DF7581;}
	.st41{fill:#D07A7B;}
	.st42{fill:#D25B66;}
	.st43{fill:#D7707A;}
	.st44{fill:#E27886;}
	.st45{fill:#485635;}
	.st46{fill:#E37C8B;}
	.st47{fill:#E37F8F;}
	.st48{fill:#E17684;}
	.st49{fill:#D36D75;}
	.st50{fill:#B66468;}
	.st51{fill:#DD737E;}
	.st52{fill:#AD6E6F;}
	.st53{fill:#DC727C;}
	.st54{fill:#4F5F3A;}
	.st55{fill:#4E5E3D;}
	.st56{fill:#C57677;}
	.st57{fill:#D56D75;}
	.st58{fill:#4F5F3D;}
	.st59{fill:#475534;}
	.st60{fill:#D17C7E;}
	.st61{fill:#D96F79;}
	.st62{fill:#CF6A70;}
	.st63{fill:#4F5E39;}
	.st64{fill:#CE6B71;}
	.st65{fill:#CB7778;}
	.st66{fill:#BD7272;}
	.st67{fill:#CF7A7B;}
	.st68{fill:#C8686C;}
	.st69{fill:#E37988;}
	.st70{fill:#C3676C;}
	.st71{fill:#BC666A;}
	.st72{fill:#C67779;}
	.st73{fill:#4A5836;}
	.st74{fill:#A56262;}
	.st75{fill:#A35F62;}
	.st76{fill:#353E26;}
	.st77{fill:#2A321F;}
	.st78{fill:#212318;}
	.st79{fill:#474E33;}
	.st80{fill:#25291B;}
	.st81{fill:#212418;}
	.st82{fill:#181D12;}
	.st83{fill:#E58B99;}
	.st84{fill:#E58791;}
	.st85{fill:#D6878B;}
	.st86{fill:#E694A0;}
	.st87{fill:#E4818B;}
	.st88{fill:#CF7E80;}
	.st89{fill:#D27174;}
	.st90{fill:#A66D6D;}
	.st91{fill:#D56F74;}
	.st92{fill:#C8696E;}
	.st93{fill:#414D2F;}
	.st94{fill:#353D26;}
	.st95{fill:#3B462B;}
	.st96{fill:#1A1E13;}
	.st97{fill:#C07676;}
	.st98{fill:#D77580;}
	.st99{fill:#435031;}
	.st100{fill:#E58694;}
	.st101{fill:#AF7070;}
	.st102{fill:#E48291;}
	.st103{fill:#B87272;}
	.st104{fill:#CD7C7D;}
	.st105{fill:#D28081;}
	.st106{fill:#B66467;}
	.st107{fill:#AC6266;}
	.st108{fill:#323A24;}
	.st109{fill:#C2666B;}
	.st110{fill:#2B311F;}
	.st111{fill:#D98D92;}
	.st112{fill:#212718;}
	.st113{fill:#D7888B;}
	.st114{fill:#D28386;}
</style>
<g>
	<g>
		<path class="st0" d="M601,301c0,98.7,0,197.3,0.1,296c0,3.4-0.7,4.1-4.1,4.1c-197.3-0.1-394.7-0.1-592,0c-3.4,0-4.1-0.7-4.1-4.1
			C1,399.7,1,202.3,0.9,5c0-3.4,0.7-4.1,4.1-4.1C202.3,1,399.7,1,597,0.9c3.4,0,4.1,0.7,4.1,4.1C601,103.7,601,202.3,601,301z"/>
		<path class="st1" d="M84.4,490.1c1.6-27.6,3.2-55.2,4.9-82.8c2.2-35.4,4.4-70.8,6.6-106.2c3.4-55.2,6.8-110.4,10.2-165.5
			c0.3-4.2,1.9-5.7,6.2-5.7c24.1,0,48.3-0.2,72.4-0.3c0.9,0.4,1.4,1.1,1.7,2c0.7,3.8-1.2,7.7,0.4,11.5c1.1,3.3-2,6.3-0.5,9.6
			c-0.4,3.6-1.6,7.2-1.3,10.9c-0.4,1.4,0.3,2.7,0.2,4.1c-0.2,1.3,0,2.7-0.4,4c-0.2,0.7-0.4,1.5-0.7,2.2c-0.3,0.4-0.6,0.8-1,1.1
			c-5.6,2.5-8.5,9.7-6.2,15.7c2.2,5.8,6,9.6,12.3,10.6c0.5,0,0.9,0.1,1.4,0.2c0.9,0.3,1.5,1,2.3,1.3c1.2,0.5,2.5,0.5,3.7,0.3
			c1.3-0.2,2.4-0.8,3.4-1.5c1.1-0.7,2.1-1.5,2.9-2.5c0.3-0.3,0.6-0.6,1-0.9c3.9-2.9,3.4-7.5,4.1-11.6c1.4-1.2,1.8-2.8,1.8-4.5
			c2.3-12.8,3.5-25.9,6.7-38.6c1.1-4.3,4.3-8,3.2-12.8c-0.3-1.2,1-2.2,2.3-2.1c5.5,0.3,10.8-2.1,16.3-1.5c2.2-0.3,4.4-0.2,6.6-0.3
			c2-0.3,3.9,0.3,5.8,0.2c1.4-0.1,2.7,0.2,4.1,0.2c0.8,0,1.7-0.1,2.5-0.2c1.4,0.1,2.8-0.2,4.3,0c0.6,0,1.2,0,1.8,0
			c20.2-0.8,40.3-0.2,60.5-0.3c7,0,14-0.6,20.9,0.5c0.6,0.3,1,0.7,1.3,1.3c0.8,3.1,0.3,6.2,0.4,9.3c0,2.1,0,4.2,0.1,6.3
			c1.4,3.7-0.3,7.7,1.1,11.5c0.1,2.5-1.6,5,0.2,7.5c0.6,2.5-0.6,5.1,0.5,7.6c0,1.4-0.4,2.7-0.2,4.1c-0.1,1.4-0.9,2.4-1.5,3.5
			c-4.4,5.3-3.4,10.7-0.2,16.1c0.3,0.6-0.1-0.1,0.2,0.5c0.1-0.3-0.1-0.5-0.1-0.8c0.1-2-0.7-4.2,0.8-6c2.1-1.2,2.8,0.5,3.8,1.8
			c0.5,1.1,1.6,1.9,1.9,3.2c0.5,1.5,1.1,3.1,1.4,4.7c1.8,4,4.9,5.3,9.1,4.4c1.8-0.4,3.8-1.4,5.5,0.3c1.8,4.7-1.9,6.2-4.9,7.6
			c-5.7,2.6-11.6,1.5-17.4,0.3c0.4,2,2.4,1.3,3.5,2.2c0.4,0.2,0.9,0.4,1.3,0.6c6.3,2.2,12.2,2.1,17.9-2.2
			c10.7-8.1,15.6-18.2,11.8-31.7c-0.3-1.3-0.7-2.6-0.7-4c0-10.3,1.6-20.5,2.8-30.6c0.5-4.4,0-8.8-1.7-12.6c-1.6-3.5-0.2-4,2.6-4.4
			c4.3-0.6,8.5-1.7,12.8-1.5c4.8-0.7,9.6-0.3,14.5,0c1.8,0,3.6,0,5.4,0c1.7-0.2,2.8,0.7,3.9,1.9c0.7,0.1,1.3,0.3,2,0.3
			c25.2-0.9,50.4,2.2,75.7,1.3c2.5-0.1,5.5-0.9,6.7,2.6c-0.5,0.4-1,0.7-1.7,0.8c-9.5-0.5-18.9-0.2-28.4-0.2c-3.2,0-6,2.1-9.3,1.3
			c-7.8-2.1-9.4-0.9-10.4,7c-0.7,5.6-0.9,11.3-0.8,16.9c0.5,29.1-0.9,58.2-1.3,87.3c-0.2,17.3,0.2,34.6-0.8,51.9
			c-1.1,17.5-0.1,35-1,52.4c-0.7,12.3-1.5,24.6-1.3,36.8c0.2,16.1-1.9,32.1-1.2,48.3c0.5,11.5-0.1,23.2-0.8,34.8
			c-0.8,14.4-0.3,28.9-0.4,43.3c0,1.5,0,3-1,4.3c-0.5,0.4-1.1,0.5-1.8,0.3c-3-2.8-1.9-6.5-2-9.9c-0.2-11.2-0.7-11.8-12-11.8
			c-51.3-0.1-102.6,0.1-153.8-0.1c-21.7-3-43.5-2.4-65.3-1.6c-24.1,0.9-48.2,0.2-72.3,0.7c-2.8,0.1-5.7,0-8.5-0.4
			c-2.2,0-4.4-0.1-6.6-0.2c-1.9-0.2-3.6,1.2-5.5,1c-9.4-0.8-18.8,0-28.2-0.5C87.6,494.2,84.6,494.1,84.4,490.1z"/>
		<path class="st2" d="M507.5,164.2c1.5,20.7,3,41.5,4.4,62.2c4,58.2,7.9,116.5,11.8,174.7c0.5,7.6,0.8,15.3,1.2,22.9
			c-2.4,0.4-3-1.4-3-3c0.1-5.4-3.8-5.9-7.6-6.4c-5.6-0.8-11.4-0.6-16.7-3.1c-2.7-1.3-5.5,0.2-8.1,1.3c-3.9,1.5-13.3-0.4-15.8-3.7
			c-2.5-3.3-4.3-6.9-5.9-10.8c-0.5-25.6-0.1-51.2-0.2-76.8c1-5.3,0.2-10.5,0.1-15.8c-0.3-35.6-0.2-71.2-0.1-106.7
			c0-5.2,2.5-9.6,4.6-14.1c0.6-1.3,1.8-2.1,3-2.4c7.4-2.1,12.9-7.3,19.1-11.4C498.5,168.2,503.3,166.8,507.5,164.2z"/>
		<path class="st3" d="M470,321c0,26.3,0,52.7,0,79c4.6,20.4,1.4,41.1,2.3,61.7c0.3,8,1.2,15.9,2.1,23.8c0.4,3.2,2.5,4.2,5.4,3.8
			c10.6-1.3,21.3-0.6,31.9-0.6c5.8,0,11.6-1.2,17.4-0.9c1.2,11.3,1.9,22.5,2,33.9c0.9,3.4,0.4,6.9,0.4,10.4c0,4-2.2,5.8-5.6,4
			c-7.6-4.1-15.8-6.9-23.7-10.4c-9-4-17.9-8.4-26.9-12.4c-3.6-1.6-6.1-0.5-8,2.6c-4.2,6.8-9.1,13.1-13.3,19.8
			c-0.8,1.3-1.4,2.7-2.7,3.6c-1.5,1-3,2.3-5,1.4c-1.9-0.9-1.7-2.7-1.7-4.4c0-3.3-0.1-6.7,0-10c2.9-11.4,1.5-23.1,2.1-34.7
			c0.3-6.1-1.2-12.5,0.1-18.2c2.1-9.3-0.3-18.6,1.5-27.9c1.3-6.8,0.7-14-0.7-21c-0.8-4.3,0-8.6,0.4-12.9c0.9-9.5-0.3-19.2,2.1-28.6
			c0.3-1.1,0.2-2.3-0.1-3.5c-0.3-1.5-0.7-3.2-0.1-4.4c4.1-8.6-1-17.7,1.6-26.3c0.1-0.3,0-0.7,0.1-1c3.2-5.2,1-10.9,1.7-16.1
			c0.7-5.6,1.8-11.3,2.7-17c0.5-3,7.4-6.1,10.4-5.2c2.6,0.8,2.7,3.1,2.8,5.3C469.6,316.8,468.6,319,470,321z"/>
		<path class="st4" d="M470,321c-1.1-1.8-3.3-1.1-4.8-1.9c-0.4-1.2,0.3-1.7,1.1-1.9c2.2-0.7,3-2,2-4.2c-0.9-2-2.5-1.5-4.2-1.1
			c-4.8,0.9-6.7,3.6-6.2,8.4c0.3,3.3,0.5,6.6-1.9,9.5c-0.9,1.1,0.8,9.3,2,10.1c2,1.5,2.9,2.5-0.4,3.4c-2.4,0.7-3.4,2.8-3.5,5
			c-0.3,6.1-2.4,12.4,1.6,18.3c1.1,1.7,2.5,4.8-2.2,5.2c-2.4,0.2-1.7,3.1-1.4,4.7c1,5.4,0,10.2-2.4,15.2c-1.4,3-0.6,7.1-0.7,10.8
			c-0.1,5.3,0.7,10.6-1,15.8c-1.2,3.9,0.8,7.6,1.6,11.1c1.8,7.3,1,14-1.4,21c-1.8,5.3,0.7,10.7,2.1,15.9c0.3,1,1.8,2.5,0.4,3
			c-5.3,1.7-3.8,5.9-3.3,9.1c0.6,4.5-0.1,8.8-0.2,13.3c-0.3,9.5-0.2,19-0.3,28.5c0,2,0.2,4-1,5.8c-2.3-3-2-6,0-9
			c0-15.2-0.6-30.3,0.2-45.5c1-19.5-0.1-39,1.1-58.4c1-17-0.2-34,0.9-50.9c1.2-18.5-0.1-37,1.1-55.4c1-15,0-30,0.8-44.9
			c1.1-20.3,0.1-40.6,1.2-60.9c0.8-16.2,0.3-32.3,0.8-48.4c0.2-6.3,0.7-12.6,1-18.9c0.1-2.8,1.5-3.8,4.1-3.8c3,0,6,0.1,8.9,1
			c12.6,1.6,25.3,2,38,1c0.4,0,0.7,0,1.1,0c1,1.9,0.8,4,0.7,6.1c-0.1,2-1,4,0.3,5.9c0.7,2.7,1,5.3,0.7,8.1c0,2.7-1.3,5.4,0.4,7.9
			c0.2,1.4,0.3,2.8,0.5,4.1c-0.1,4.2-2.2,5.5-6.4,6.3c-6.4,1.3-10.6,7.1-16.3,10.2c-1.3,0.7-2.3,2.3-3.7,2.5
			c-10.1,1.8-11,9.8-11.1,17.4c-0.3,36.1-0.1,72.3-0.1,108.4C470,313,470,317,470,321z"/>
		<path class="st5" d="M529.1,487.8c-2.9,3.6-7.1,3-11,3.1c-9.1,0.2-18.3,0.3-27.5,0c-4.9-0.1-9.6,1.1-14.4,1.1c-3.7,0-5-1.1-5-5.3
			c0.1-6.1,0.5-12.3-1.5-18.2c-1-2.9,0.1-5.6,0-8.4c-0.4-18.1,0.8-36.2-0.8-54.2c-0.2-2,0-4,0.9-5.8c1.4,1.9,2.8,3.7,4.1,5.7
			c1.6,2.4,3,5,6.7,3.1c0.5-0.3,1.7-0.2,1.8,0.1c2.4,5.4,5.5,1.4,8.3,0.7c3.5-0.8,6.5-2.1,10.2,0.8c2.6,1.9,7.2,1.2,10.8,1.6
			c3.2,0.4,6.3,1.7,9.6,1.5c2.3-0.2,1.9,1.9,2.2,3.2c0.6,2.4-0.3,5,1.1,7.3C526.7,445.2,528.3,466.5,529.1,487.8z"/>
		<path class="st6" d="M84.4,490.1c1.4,2.1,3.7,1.9,5.8,1.9c9.6,0,19.2,0,28.8,0c1.7,0.6,3.3,1.7,5,0c2,0,4,0,6,0
			c1.5,2.6,3.8,3.6,6.6,3.7c3.1,0.2,5.8,1.3,8.4,2.9c1.3,0.8,2.6,1.6,2.3,3.4c-0.3,1.9-1.7,2.7-3.4,3.3c-5.8,1.9-11.7,2.3-17.7,1.9
			c-0.7-0.1-1.5-0.2-1.5-0.2c3.2,2.2,7.4,3,11.8,2.8c1.4,0,2.6,0.5,3.8,1.1c1.8,0.9,2.9,2.3,2.4,4.4c-0.5,1.9-2,2.4-3.8,2.6
			c-5.5,0.6-11,2.4-17.2,1c2.5,3.2,6.8,5.1,4.5,9.2c-2.6,4.7-7.4,3.9-12.4,3.4c2.3,1.1,4.3,1.1,6.3,1.2c4.8,0.3,9.6,0.2,13.9,3
			c1.1,0.7,2.5,0.8,3.9,0.8c12-0.5,23.9,1.1,35.9,1.1c4.8,0,9.6-0.3,14.4,0.7c3.7,0.8,7.2-0.7,10.7-1.6c9.5-0.5,18.9-0.1,28.3-0.1
			c7.6,1.1,15.3,1.3,22.9,0.4c3,0.6,6,0.5,9,0.5c25.5,0,50.9-0.4,76.4,0.1c25.6,0.5,51.2,1.1,76.8,0.9c10.4-0.1,20.9,0.6,31.3-1
			c1.3,0.8,1.4,2.1,1.2,3.5c-0.2,0.7-0.6,1.2-1.2,1.5c-1.3,0.5-2.6,0.4-4,0.4c-35,0-70,0.8-104.9-0.2c-40.6-1.2-81.2-0.2-121.8-0.8
			c-21.1,0.4-42.2-0.2-63.3-0.6c-20.6-0.4-41.2-0.1-61.8-0.4c-2,0-4,0.3-5.8-0.9c-1.1-3.6-0.2-7.2-0.1-10.8
			C82.7,516.2,83.6,503.1,84.4,490.1z"/>
		<path class="st7" d="M444,542c0-0.3,0-0.7,0-1c0.3-4.3-0.6-8.5-1.1-12.7c-0.3-2.5-1.1-4.9-0.6-7.4c0.6-1.5,1-3.2,2.8-3.9
			c0.3,0,0.7,0,1,0c0,3,0,6,0,9c0,3-0.1,6,0,9c0,1.4-0.6,3.5,1.1,4c1.9,0.5,2.7-1.5,3.7-2.8c2.1-3,4-6.1,6.1-9.1
			c2.9-4.1,5.8-8.1,8.8-12.1c3.1-4.2,6-5.1,11.3-2.7c8.6,3.9,17.1,8,25.7,11.9c7.6,3.4,15.2,6.8,22.8,10c3.4,1.5,5.5,0.6,5.5-3.5
			c0-3,0.1-6,0.1-9c0.5,5.7,2.4,11.4-0.1,17.1c-2.2,0.1-4.5,0.3-6.7,0.1c-10.3-5.1-21.1-8.8-31.5-13.5c-5.3-2.4-10.6-4.7-16-6.9
			c-4.3-1.7-10.5,2.7-10.1,7.4c0.2,2.3,2.2,2.8,3.9,3.3c4.3,1.4,8.7,2.2,13,3.4c3.6,1,6.6,3.1,10,4.4c1.4,0.6,2.7,1.6,1.2,3.4
			c-7.9,1.1-15.8,0.5-23.7,1.3c-6.8,0.7-13.8,0.3-20.7,1.1C448.1,543.1,445.8,543.6,444,542z"/>
		<path class="st3" d="M524,538c2.3,0.1,4.7-0.4,7,0.8c-1.4,1.6-3.4,1.1-5.2,1.2c-68.2,5.1-136.5,4.3-204.8,3.3
			c-14-0.2-28-0.3-42-0.5c-8.6-0.8-17.3-0.5-25.9-0.1c-4.7,0-9.4-0.1-14.1-0.1c-6.6-0.4-13.2-0.2-19.8-0.1c-2.7,0-5.3,0-8-0.1
			c-0.1-1.4,1.4-0.8,1.8-1.5c35.8,0,71.6-0.8,107.3,0.2c41.2,1.2,82.5,0.2,123.7,0.8c15.9-0.8,31.8-2,47.7-2.1
			c1.1,0,2.2-0.6,3.3-0.9c0.3-0.6,0.7-1.4,1.3-1.4C505.5,536.8,514.8,533.6,524,538z"/>
		<path class="st8" d="M194,89.9c1.1-3,2.7-5.7,4.9-8c1.4-0.6,2.5-1.6,3.4-2.7c5.3-6.8,11.5-12.4,18.8-16.8
			c6.4-3.7,12.4-8.4,19.8-10.1c13.8-4.8,28.1-5.9,42.7-5.9c14.6,0,27.7,5.9,41.5,8.9c1.5-1.8-0.7-3.8,0.6-5.4
			c2.2-1.9,4.2-1.1,6.1,0.3c1.2,1.5,3.1,2.4,3.9,4.3c2,3.6,4.9,6.7,6.3,10.7c0.8,2.6,2.1,5.2-0.6,7.3c-2.7,2.2-5.3,0.9-7.6-1.1
			c-2.1-1.8-4.5-3.4-6.7-5.1c-13.1-9.9-28.1-13.9-44.1-14.8c-14.8-0.8-29.2,0.7-42.7,7.4c-7.5,3.6-14.7,7.7-20.5,13.8
			c-8,5.2-13,13.5-20.3,19.4c-1.3,1.1-2.6,2.3-4.4,1.4C193.6,92.9,193,91.6,194,89.9z"/>
		<path class="st9" d="M218.9,59.8c7.7-7.3,17.1-11.7,27-15.1c19.1-6.4,38.5-7.9,58.2-3c1.1,1.9,0.9,3.5-1.3,4.4
			c-5.3,1-10.5-0.7-15.8-0.7c-22.3,0-43.7,3.9-63.3,15.3C221.8,62,219.9,63.2,218.9,59.8z"/>
		<path class="st10" d="M331,52c-1.7-0.7-3.3-1.3-5-2c-2,0.3-3.2-0.4-3.4-2.5c0.9-3,3.5-2.7,5.7-2.8c7.9-0.5,15.8,1.1,23.7,1.3
			c1.7,0,3.6,1,5.1-0.8c4.6,0.9,9,2.5,13,5c1.2,1.2,2.6,2.1,3.9,3c1.3,0.9,2.3,2,1.8,3.8c-0.5,1.6-1.7,2.5-3.3,2.5
			c-1.8,0.1-3.5,1.2-5.4,0.9C355.5,55.7,343.4,53,331,52z"/>
		<path class="st11" d="M357,45.1c1.4,3.9,0.1,4.3-3.8,3.9c-10-1.2-20.1-3.4-30.2-1c-2.8,1-5.4-0.3-8.1-0.7
			c-1.8-1.1-3.9-1.6-5.9-2.1c-1.6-0.4-3.2-0.9-3-3.1c14.5-1.7,29-2.4,43.4,0.8C352,43.5,354.5,44.4,357,45.1z"/>
		<path class="st12" d="M185.4,124.9c0.6-5.4,0.8-10.8,2.6-16c5.3,2.9,5.4,3,7.8-3c2.6-6.4,6-12.4,10-18c0.9-1.3,1.6-3.1,3.8-1.9
			c1.5,1.9,0.8,3.6-0.4,5.3c-1.6,2.3-3.5,4.4-3.9,7.2c-3.9,9-5.4,18.6-7.2,28.1c-0.5,2.8-1.6,5.1-4.5,6c-4.3,1.4-7-0.4-7.5-5
			C185.9,126.8,185.9,125.8,185.4,124.9z"/>
		<path class="st13" d="M218.9,59.8c2.4,1.6,4.1-0.4,5.9-1.3c19.4-10.1,40-14.7,61.8-14.5c5.1,0.1,10.2,1.5,15.4,1
			c3.2,0.2,6.5,0.1,9.5,1.1c2.4,0.8,5.8,1.4,4.3,5.5c-1.8,1.4-3.4,0.3-5.1-0.2c-22.3-5.8-44.5-5.9-66.6,1c-1.1,0.4-2.1,0.9-3.1,1.5
			c-7,2.1-13.1,5.9-19,10c-2.4,0.3-5.2,4.5-7-0.7C216.4,62.2,217.1,60.4,218.9,59.8z"/>
		<path class="st14" d="M213,541c-0.6,0.5-1.2,1-1.8,1.5c-14.6-0.1-29.3-0.1-43.9-0.2c-26.3-0.1-52.6-0.3-78.9-0.5
			c-2.2,0-4.8,0.9-6.2-1.9c19.7,0,39.3-0.7,58.9,0.2C165.1,541.4,189,540.5,213,541z"/>
		<path class="st15" d="M185.4,124.9c1.1-0.2,1.6,0.4,1.6,1.4c0.1,2.6,0.8,4.5,3.9,4.6c3.1,0.1,4.1-2,5.1-4.5
			c2.2-5.6,2-11.7,4.1-17.3c1.4-3.7,1.9-7.7,4-11.2c1.4-0.4,2.2,0.2,2.7,1.4c-3.7,12.2-2.8,25.4-8.3,37.3c-1.5,3.2-3.3,6.2-7.5,6.4
			c-4.1,0.2-5.7-1.5-5.5-5.6c0.1-1.8,0.4-3.6-0.3-5.4c-0.1-0.8-0.2-1.6-0.3-2.5C185,128,185.2,126.5,185.4,124.9z"/>
		<path class="st16" d="M209,86c-5.8,6.7-8.3,15-11.9,22.8c-0.5,1.1-1,2.1-1.6,3.1c-1.2,2-2.2,4.7-4.8,4.4c-2.6-0.3-1.3-3.3-2.1-5
			c-0.3-0.7-0.4-1.6-0.7-2.4c0-3.1,0.8-6.1,2.1-8.9c8.5-6,15.1-14,21.6-22c1.1-1.4,2.1-3.5,4.6-3.1c1.3,4.2-2.7,6.5-3.7,9.9
			C211.6,85.9,210.4,86.2,209,86z"/>
		<path class="st17" d="M396,69c5.6,5.3,10.3,11.3,14,18.1c1,2.5,1.9,4.9,2.5,7.5c1.6,8.8,0.8,17.8,1.2,26.6c0.1,1.8-0.2,3.3-2.1,4
			c-2.6-0.4-2.6-2.6-3-4.5c-1.3-5.5-1.1-11.1-2.4-16.6c-0.9-4.3-1-8.7-1-13.1c0-3.4-1-6.1-3.9-8c-2.7-2.9-3.1-7.1-6-9.9
			c-0.4-0.7-0.6-1.4-0.5-2.3C394.9,70.1,395.3,69.5,396,69z"/>
		<path class="st18" d="M396,71c0.3,0.3,0.7,0.7,1,1c1.1,2,1.7,4.1,0,6c-1.6,1.7-3.9,2.2-6,1.2c-6.4-3.4-12.6-7-17.5-12.4
			c1.6-3.7,4.1-1.9,6.4-1c1.4,0.6,3.2,2.3,4.4,0.6c1.4-1.9-0.6-3.2-1.9-4.4c-2.2-1.5-3.7-3.2-1.4-5.8c4.3,2.2,7.7,5.6,11,9
			C393,67.4,395,68.8,396,71z"/>
		<path class="st19" d="M411,94c-0.4-2.3-0.7-4.6-1.1-6.9c5.6,7.7,7.2,16.9,8.9,25.9c0.9,4.9,1.3,9.8,1.9,14.7c-1.3,0-2.6,0-3.8,0
			c-2.4-0.8-2.9-2.7-3-5.1C413.2,113.2,413.4,103.4,411,94z"/>
		<path class="st20" d="M216,75c-6.6,5.4-10.9,12.9-16.2,19.3c-2.6,3.1-5,6.3-9.8,5.7c0.6-3.6,1.8-7,3.9-10.1
			c1.1,3.7,3.1,2.3,4.8,0.7c3.9-3.8,8-7.5,11.5-11.8c2.5-3.1,4.8-6.5,8.8-7.8C219.9,73.8,218.4,74.7,216,75z"/>
		<path class="st21" d="M215,63.3c2.1,2.1,4.6,0.9,7,0.7c-6.5,4.8-12.8,9.8-18.3,15.8c-1.3,1.4-2.8,2.2-4.8,2.1
			C203.3,74.8,208.4,68.4,215,63.3z"/>
		<path class="st22" d="M381,56.2c0,2.2,1.2,3.7,3,4.8c1.1,2.7-0.7,3.9-2.7,3.9c-5.2,0-9.8-2.1-14-5c-0.5-0.4-0.5-1.2-0.3-1.8
			c1.1,0,2.3,0,3.4,0c1.4-0.1,3.2,0.1,3.7-1.7c0.5-1.6-1.2-2.2-2.1-3c-1.1-0.9-1.8-1.9-2.1-3.3C374.2,51.1,377.3,54.2,381,56.2z"/>
		<path class="st23" d="M316,51c-3.9-3.9-10-2.3-14-6c1.5-0.5,2-1.7,2.1-3.2c0.6,0.1,1.3,0.2,1.9,0.3c3.2,1.3,6.9,1,10,2.8
			c1.1,0.7,2.2,1.5,3.2,2.3c1.5,1.1,2.3,2.6,0.9,4.2C318.7,53.1,317.2,52.7,316,51z"/>
		<path class="st14" d="M253,542.8c8.6-1.2,17.3-1.4,25.9,0.1C270.3,542.9,261.7,542.8,253,542.8z"/>
		<path class="st14" d="M219.1,542.6c6.6-0.9,13.2-1.1,19.8,0.1C232.3,542.7,225.7,542.6,219.1,542.6z"/>
		<path class="st24" d="M396,71c-1.7-1.6-4.7-2.4-4-5.7c1.9,0.7,3,2.2,4.1,3.8C396,69.7,396,70.3,396,71z"/>
		<path class="st2" d="M507.1,160c-2.7-2.5-1.3-5.2-0.4-7.9C506.8,154.7,506.9,157.4,507.1,160z"/>
		<path class="st2" d="M506,144c-2.4-1.9-0.9-3.9-0.3-5.9C505.8,140,505.9,142,506,144z"/>
		<path class="st25" d="M445,517c0,1.3,0,2.7,0,4c-1.4,5.6,0.4,11.4-1,17c-1.4,2.9-4,3.1-6.8,3c-27-0.3-53.9,0.4-80.9-0.5
			c-35.4-1.2-70.9-0.3-106.3-0.6c-5.7-1.1-11.5-0.2-17.2-0.5c-1.9-0.1-3.9,0.5-5.8-0.5c-9.7,0-19.3,0-29,0
			c-3.3,0.7-6.7-1.2-10.1,0.4c-1.5,0.7-2.8-0.5-3-2.4c-0.2-2.8,1.1-4.5,3.8-4.9c3.6-0.5,7.2-0.9,11.3-2.5c-3-1.7-5.8-1.1-8.4-1.3
			c-2.3-0.2-3.8-1.2-4-3.6c-0.2-2.3,0.9-3.8,3.1-4.5c0.6-0.2,1.3-0.3,1.9-0.4c5.7-0.8,11.4-1.3,16.6-2.7c-0.5-0.3-1.7,0.2-2.8-0.1
			c-1.8-0.5-3.6-1.2-4-3.3c-0.4-2.2,1.6-2.6,2.9-3.6c5.1-3.6,11.2-3.7,16.8-3.2c5.1,0.4,10.2-1.1,14.2,0.2
			c-2.9-2.7-6.9,1.5-11.1-0.1c-3.1-1.2-5-2.6-4.8-5.9c0.2-3.4,2.5-5.1,5.7-5c3.8,0.2,7.6-1,11.4-0.2c2.3,0.5,4.5-0.5,6.7-0.7
			c-11.6,0.5-23.1,1.5-34.7,0.9c-1.2-0.1-2.4-0.3-3.2-1.3c-0.9-1.1-1.1-2.2,0.8-2.4c0.7-0.1,1.3,0,2,0c22,0,43.9,0,65.9,0
			c0.7,0,1.3,0,1.8,0.5c53.3,0,106.6,0,159.8,0c8.1,0,8.1,0.1,8.2,8C445,506.3,445,511.7,445,517z"/>
		<path class="st26" d="M277,493c-22.9,0-45.9,0-68.8,0c0,0.3,0,0.7,0,1c6.6,0,13.3,0,19.9,0c6.5,0.1,13,0.2,19.5,0.3
			c1.3,0,3,0.1,3,1.8c0,2-2,1.5-3.1,1.5c-7.1,0-14.2,1.3-21.3,0.7c-2.4-0.2-3.9,0.8-3.5,3.5c0.6,3.8,4.9,4.8,6.3,4
			c3.1-1.7,5.2-1.8,8.1,0.1c1.4,0.9,3.6,1,5.6,0.8c-12.7,2.9-26.3,0.3-38.7,6.5c1.9,1.6,4,1.8,6.3,1.3c1.8-0.3,4.2-1.3,4.5,1.8
			c0.3,3.4-2,4.3-4.7,4.1c-6.1-0.4-11.8,1.7-17.8,1.8c-1.7,0-3.1,0.4-2.4,2.6c0.9,3,1.9,0.2,2.8,0c4.8-1,10.7,1.9,11.7,5.8
			c0.3,1.3,0.5,2.9-1.1,2.4c-4.9-1.4-9.1,2.3-13.9,1.4c-4.2-0.8-0.4,2.9-1.9,4.2c3.9-3.4,7.3-0.8,10.8,0.3c-1.9,1.3-4.2,0.9-6.3,1
			c-18.1,0.7-36.3-0.1-54.3-1.5c-9.2-0.7-18.8-2.8-28-5c-0.9-0.2-2.1-0.6-2.2-1.7c-0.2-1.6,1.3-1.7,2.3-2.1c2.4-0.9,4.9-0.7,7.4-0.3
			c3,0.4,7.2,0.5,7.7-2.5c0.5-3.1-3.3-4.8-6.5-5.6c-1.3-0.3-2.6-0.5-4.6-0.9c3.4-2.5,6.8-3.8,10-3.4c5.4,0.6,10.3-1.7,15.5-1.3
			c0.8,0.1,1.8,0.2,2-0.8c0.3-1-0.6-1.4-1.4-1.8c-2-0.9-4.1-1.3-6.3-1c-2.2,0.4-4.4-0.1-6.2-1.2c-2.7-1.7-5.3-2.8-8.2-0.4
			c-0.7,0.6-1.6,0.8-2.2-0.1c-0.7-1.1,0-1.8,1-2.4c3-2,6.1-3.3,9.8-3.1c6.2,0.4,12.2-0.6,18.9-2.8c-3.7-2.2-6.7-4.2-10.7-3.9
			c-4.5,0.3-6-1.6-5.6-6.3c46.6,0,93.1,0,139.7,0C272.2,492,274.7,491.5,277,493z"/>
		<path class="st0" d="M344.8,128.4c-12.9,0.2-25.8,0.4-38.7,0.5c-14.7,0.1-29.5,0-44.2,0c-2.9-3.5-1-7.4-0.6-10.9
			c0.6-5,1.6-10.1,3.6-14.9c2.7-3.4,4.2-7.4,6.2-11.2c5.4-10.3,13.8-17.2,23.5-22.8c3.2-1.9,7-1.9,10.3-3.6
			c8.8,0.6,14.8,6.6,21.5,11.4c3.1,2.2,5.3,5.4,7.8,8.3c4.2,6.7,8.6,13.4,10.3,21.4c0.2,3.3,1.4,6.6,1,10c0.2,2.9-0.3,5.8,0.6,8.6
			C346.5,126.5,346.1,127.7,344.8,128.4z"/>
		<path class="st27" d="M179,276c14.2-18.1,41.1-24.6,64-15.4c11.3,4.5,21,11.4,29.4,20.2c2.4,2.5,3.7,2.4,6.2,0.1
			c13.3-12.3,28.1-22.3,46.6-24.3c18.7-2,34.4,4.2,46.1,19.3c-1,2.3-3.1,2.2-5.1,2.4c-4,0.3-8,0.3-12,0.1
			c-8.7-0.6-17.1,2.3-25.7,2.6c-3.4,0.1-6.4,1.8-8.8,4.3c-2.8,2.9-6.2,4.1-10.3,4.2c-22.4,0.3-44.9,0.4-67.3-0.1
			c-6.1-0.1-12.2-1.2-17.9-3.8c-6.5-2.9-13.7-3-20.6-2.9c-7.2,0.1-13.9-3.3-21.1-2.6C180.3,280.1,178.8,278.5,179,276z"/>
		<path class="st28" d="M187.1,357c-3.9-4.2-8.3-7.9-11.2-12.9c0.8-4.4,3-5.7,8.7-5.2c10.8,1,21.5,1.9,32.4,1.6
			c11.7-0.3,23.2,0.6,34.8,2.5c8,1.4,16.2,1.8,24.4,1.4c11.6-0.6,23.1-2,34.6-3c16.2-1.5,32.6-1,48.8-0.8c2.9,0.1,5.9,0.3,5.6,4.5
			c-4.5,5.5-9.6,10.3-15.2,14.6c-4.7,1.5-9.5,1.6-14.3,1.6c-10.5-0.1-21,0-31.5,0c-2,0-4-0.2-6,0.2c-14.4,2.5-28.8,2.2-43.2,0.6
			c-19.1-2.1-38.2-1.7-57.3-1.8C193.8,360.4,190,360.1,187.1,357z"/>
		<path class="st29" d="M382.1,304.8c1.2,5.2,0.3,10.2-1.3,15.1c-8.9,3.5-18.4,3.1-27.6,3.2c-20,0.3-39.9,0.4-59.7,3.7
			c-10.6,1.8-21.6,0.8-32.4,0.2c-16.4-0.9-32.7-3.5-49.2-3.8c-14.1-0.3-28.3,0.1-42.3-1.8c-1.8-0.2-3.7-0.3-5.2-1.5
			c-1-5.1-1-10.1,0.5-15.1c0.9-0.4,1.8-0.7,2.9-0.6c17.9,1.1,35.8,1.5,53.8,1.7c4.5,0,8.7,1.7,13.2,2.4c22.8,3.6,45.9,4,68.6,0.8
			c15.6-2.2,31-3.1,46.6-3.7C360.6,305,371.3,304.3,382.1,304.8z"/>
		<path class="st30" d="M179,276c1,0.6,2.2,1.8,3,1.6c7.2-1.7,13.7,2.3,20.7,2.5c8.9,0.2,17.8,0.4,26.2,4.5c4.6,2.2,10,2.2,15.1,2.4
			c11.6,0.3,23.3,0.5,34.8,0.5c10.7,0,21.6-0.1,32.3-0.5c2.9-0.1,5.1-1.5,6.9-3.6c3-3.6,7.1-4.8,11.5-5.3
			c12.8-1.5,25.7-2.8,38.7-2.1c1,0.1,2,0,3-0.1c1.9,1.6,2.7,3.9,4,6c1.3,5.4,0.7,5.7-4.6,7.5c-10.8,3.6-22.1,1.7-33.1,2.8
			c-6.5,0.6-12.8,0.9-19.1,3c-4.4,1.5-9,2.1-13.7,1.5c-5.1-0.6-10.3,0.4-15.4,0.9c-13.2,1.3-26.2,0.4-39.3-0.8
			c-10.6-1-21.2-0.6-31.8-1.4c-14.6-1.1-29-3.5-43.5-4.3c-2-0.1-3.4-1.1-3.9-3.2C172.6,283.3,175.7,279.6,179,276z"/>
		<path class="st31" d="M170.8,287.9c4.6,2.1,9.6,1.4,14.3,1.5c7.3,0.2,14.7,1,21.6,2.2c18.8,3.1,37.8,1.2,56.6,4
			c11.2,1.7,22.6-0.1,33.8-1c3.3-0.3,6.6-0.5,9.9-0.2c4,0.4,8.1-0.2,11.7-1.9c4.3-2.1,9.1-3,13.5-2.7c8.2,0.6,16.2-1.6,24.4-0.6
			c5.7,0.7,11-2.4,16.6-3c3.1-0.3,0.9-3.1,2.1-4.3c3.1,4.6,5.2,9.6,5.8,15.1c-2.4,3.2-6.1,3-9.5,3.2c-16.4,1.1-32.9,1.3-49.3,2.3
			c-1.7,0.1-3.3,0.4-4.9,0.9c-20.1,5.2-40.5,4.4-61,3.4c-20.9-1-41.6-4.6-62.6-4.4c-7.7,0.1-15.1-2.2-22.9-1.4
			c-2.6,0.2-3.8-1.7-4.1-4.1C168,293.8,168.6,290.5,170.8,287.9z"/>
		<path class="st32" d="M164.3,319.9c3.2-1.4,6.5-0.7,9.8-0.5c8.6,0.6,17.2,0.9,25.8,0.8c8.8-0.1,17.6,0.3,26.3,1.1
			c21.3,1.9,42.6,4.5,64.1,3.6c3.3-0.1,6.7-0.4,9.9-1.1c17.5-4.1,35.3-2.6,53.1-2.9c6.6-0.1,13.2-0.8,19.8-1.5
			c2.7-0.3,5.3-0.7,7.8,0.5c-1.2,2.8-1.6,5.9-3.6,8.3c-3.5,2.6-7.7,1.8-11.5,2.1c-10.5,0.8-21,1.4-31.6,1.1
			c-5.4-0.1-11,0.9-16.6,1.1c-8.8,0.3-17.6,2-26.4,2.7c-13.4,1-26.8,0.2-40.3-0.9c-10.4-0.9-20.7-2.5-31.1-2.6
			c-16.7-0.1-33.3-3-50-1.4c-0.8,0.1-1.6-0.2-2.4-0.5C165.8,326.7,164.6,323.5,164.3,319.9z"/>
		<path class="st33" d="M365.1,345.3c-1.5-2.4-3.9-2.3-6.2-2.2c-13.4,0.4-26.9-0.2-40.4,0.6c-8.8,0.5-17.4,2.5-26,2.8
			c-14,0.4-28.2,1.8-42.1-0.8c-9.3-1.8-18.7-2.7-28.2-2.6c-12.9,0.2-25.9,0.2-38.8-1.7c-2.9-0.4-5.6,0.4-7.5,2.9
			c-2.9-3-5-6.5-6.6-10.2c0.5-2.8,2.2-4,4.9-3.9c9.5,0.3,18.9,0.2,28.4,1.3c8.2,0.9,16.5,0.4,24.7,1.1c7.7,0.7,15.5,1.2,23.2,2.1
			c16.8,2,33.6,1.8,50.3-0.3c8.2-1,16.6-0.7,24.7-1.7c7.6-1,15.1-0.2,22.7-1c7.1-0.8,14.4-0.6,21.5-1.5c2.2-0.3,4.4,0.1,5.1,2.9
			C371.9,337.3,369.2,341.8,365.1,345.3z"/>
		<path class="st34" d="M166.8,296.9c1.3,1.1,2.5,2.1,4.4,2c11.6-1,23.1,1.2,34.7,1.6c26.5,0.8,52.9,5.7,79.5,4.6
			c10.8-0.5,21.6-1.1,32-4.3c6-1.8,12.3-1,18.3-1.3c11.8-0.6,23.5-1,35.3-1.5c3.3-0.2,6.6-0.6,9.9-0.9c1.4,2.5,0.6,5.2,1.1,7.8
			c-1.8,2.7-4.7,2.1-7.3,2.2c-19.4,0.7-39.3-0.9-58.2,2.7c-21.2,4-42.1,2.9-63.1,3.2c-9.8,0.1-19.9-0.8-29.4-4.2c-3-1-6-0.3-8.9-0.2
			c-12.1,0.3-24.1-1.1-36.3-0.8c-4.6,0.1-10.1,0.9-14.3-2.8C164.8,302.1,165.3,299.3,166.8,296.9z"/>
		<path class="st35" d="M335,374c-2.8,3.9-6.3,7.1-10,10.1c-6.1,7.4-14.6,4.9-22.3,5.1c-5.6,0.2-11.2,0.5-16.8,0.8
			c-11.2,0.7-22.6,1-33.8-0.7c-10.4-1.6-20.9-0.7-31.3-1.7c-1.9-0.2-4-0.2-5.9-0.4c-6-5.6-11.4-11.9-16.8-18.2c0.9-1,1.9-1,3.2-1
			c28.6,0.1,57.1,3.6,85.7,2.5c13.6-0.6,27.2-1,40.9-0.8C330.9,369.8,334.5,369.4,335,374z"/>
		<path class="st36" d="M214.9,387.2c2.9-2.5,6.5-2.6,10-2.1c11.2,1.5,22.5,1.5,33.7,2.3c11,0.8,22.4,2.3,33.6-1
			c5.1-1.5,10.8,0.2,16.3,0.2c5.8-0.1,11.3,0.8,16.5-2.5c-7,6.7-14,13.3-21,20c-2.3,1.6-4.7,2-7.5,1.8c-5.9-0.5-12,0.1-17.8,0.9
			c-7.9,1-15.6,0.3-23.3-0.6c-6.3-0.7-12.6-0.8-18.9-0.6c-2.4,0.1-4.6-0.3-6.6-1.5C224.9,398.4,219.9,392.8,214.9,387.2z"/>
		<path class="st37" d="M187.1,357c2.2,0.9,4.4,1.1,6.8,1.1c24.1-0.4,48.1,0.1,72.2,2.5c8.7,0.9,17.9,0.8,26.7-0.8
			c5.1-0.9,10.3-0.8,15.4-0.9c12,0,24,0,35.9,0c2,0,4-0.2,5.8,0.9c-2.4,2.3-4.8,4.7-7.2,7c-3.9,1.8-8.2,1.2-12.3,1.2
			c-16.6-0.1-33.3,0.1-49.8,1.5c-14.9,1.3-29.5-1.5-44.2-2c-10-0.4-19.9,0-29.9-0.2c-3.6-0.1-7.3,0.3-10.8-1.1
			C192.7,363.4,189.6,360.5,187.1,357z"/>
		<path class="st38" d="M230,404c11.9-2.1,23.8-0.9,35.6,0.8c5.7,0.8,11.2-0.9,16.8-0.9c7.2-0.1,14.4-1,21.6,0.2
			c-4.4,5.3-9.9,9.4-15,14c-7.6,8.2-17.5,5.9-26.9,5.9c-1.6,0-3.3-0.7-4.9-0.5c-6.2,0.8-10.9-1.5-14.6-6.4
			C238.4,412.7,234.2,408.4,230,404z"/>
		<path class="st37" d="M195.8,366.3c1.2-0.4,2.5-1.1,3.7-1.1c13.6,0,27.2-0.7,40.8,0.5c18.5,1.6,36.9,2.7,55.5,0.7
			c10.8-1.2,21.8-0.4,32.8-0.5c4.8-0.1,9.6-1.3,14.1,1.1c-2.1,2.9-4.7,5.2-7.8,7.1c-2.7-2-5.9-2-9.1-2c-21.9-0.2-43.8,1.7-65.7,1
			c-18.9-0.7-37.7-3-56.7-1.7c-2.2,0.2-3.4-2-5.4-2.2C197.3,368.1,196.6,367.2,195.8,366.3z"/>
		<path class="st39" d="M374.7,332.9c-10.1-1.9-20.2,0.7-30.3,0.5c-8.2-0.2-16.3,1.2-24.6,0.9c-5.5-0.2-11.1-0.2-16.6,1.6
			c-4.5,1.5-9.5,1.9-14.2,2c-10,0.4-20,0.7-29.9,0.2c-7.8-0.4-15.5-1.9-23.2-3.1c-8.9-1.5-17.8-1.3-26.7-1.9
			c-10.6-0.7-21.2-1.6-31.8-1.2c-2.9,0.1-5.6,0.4-8.1,2c-1.2-1.1-1.5-2.6-2-4c4.7-3.5,10.1-2,15-1.8c25.1,1.3,50.1,2.4,75.1,4.2
			c16.9,1.2,33.4,0,50.1-1c9.2-0.5,18.4-2.1,27.5-1.9c9.3,0.2,18.5-0.4,27.8-0.5c4.8,0,9.5-1.8,14.3-0.6
			C376.8,330.1,375.9,331.5,374.7,332.9z"/>
		<path class="st40" d="M342.9,106.2c-2.1-7.3-6.2-13.6-9.9-20c-10-16.1-25.6-22.5-43.5-24.8c-2.9-0.4-5.7-0.3-8.6-0.3
			c-12.3-1.3-24.1,0.6-35.5,5.3c-3.9,1.6-7.4,3.6-10.7,6.3c-4.1,1.4-6.5,4.7-9.2,7.7c-8.9,6-13.8,14.5-16.1,24.8
			c-0.1,0.5-0.2,1-0.4,1.5c-1.7,8-2.3,16.1-3.7,24.1c-1.6,8.7-2.9,17.7-8.2,25.3c-1.2,1.6-2.4,3.1-4.3,4c-5.4,2.5-8.5,0.4-8.4-5.5
			c0-0.5-0.2-1-0.3-1.4c0-3.3,0-6.7,0-10c1.7-0.4,2.2,0.9,3,2c2.5,3.5,5.2,3.6,7.2,0c3.7-6.8,7.2-14,7.5-21.9
			c0.3-7.4,2.5-14.3,3.8-21.4c0.7-3.6,1.1-7.2,3.1-10.3c11.8-20.5,29.3-33.2,52.8-36.6c13.8-2,27.9-1.7,41.3,2.4
			c14.6,4.6,25.8,14.1,33.8,27.3c2.9,4.9,5.9,9.7,7.3,15.3C344.5,102.1,345.4,104.4,342.9,106.2z"/>
		<path class="st5" d="M382,176c0.3,1,0.7,2,1,3c-1,3.3,1.4,6.9-1,10.1c-5.4-1.1-1.9-5.2-2.8-7.5c-1.5,2.6,2.2,7.5-3.3,9.2
			c-1.5,0-2.2-1.1-2.9-2.1c-0.6-1.4-1.1-2.9-1.5-4.3c-0.4-1.2-0.9-2.4-1.1-3.7c0-1.1,0.3-2.1,1.2-2.8c1.9-0.7,2.6,0.5,3,1.9
			c0-0.1,0-0.1,0-0.2c-0.1-0.6-0.4-1.2-0.6-1.7c0.1-4.4-1.7-7.7-5.2-10.3c-0.6-4.9-0.1-9.7-0.3-14.6c0-6.5-0.1-12.9,0-19.4
			c0.1-4.2,1.4-5.2,5.5-5c6.1,0.4,8.2,2.2,9.1,8.3c1,6.5-0.5,13-0.7,19.5C382.3,163,379.6,169.4,382,176z"/>
		<path class="st41" d="M408,103c1.7,7.2,2.8,14.6,3,22c0.9,0.8,1.7,1.5,0.9,2.8c-5,0.1-10,0.1-15,0.2c-0.9-0.1-1.7-0.4-2.2-1.1
			c-1.8-3.9-1.7-8.1-2.5-12.2c0.2-4.7,0.7-9.4-0.5-14.2c-2.6-10.4-10.1-17.2-17.4-24.1c-2.8-2.6-5.9-4.8-9.1-6.9
			c-1.2-0.7-2.7-1.5-2.6-3.3c1.5-2.5,3.2-1.6,5-0.4c13.5,8.4,25.4,18.5,33.2,32.7C402.6,101.7,405.5,101.7,408,103z"/>
		<path class="st42" d="M242.6,417.1c9.5,6.9,20.5,3.7,30.9,4.5c0.5,0,1-0.3,1.5-0.3c5.1,0.5,9.9-0.1,14.1-3.2
			c-4.7,5.6-10.3,10.2-15.8,15c-4.7,4.2-11.4,4.2-15.8-0.1C252.2,428,246.9,423,242.6,417.1z"/>
		<path class="st43" d="M346.2,171c-0.1-2.7-0.2-5.4-0.3-8c7.4,0.1,8.5-0.8,11.5-8.4c3.1-8,3.6-16.4,4.5-24.8
			c1.1-6.2,0.6-12.6,1.7-18.9c0.8-4.8,1.5-5.2,5.9-2.3c1.9,6.3,2.7,12.6,1.4,19.2c-1.5,2.4-1.3,5.1-1.3,7.7
			c-4.1,9.1-4.7,19.1-8,28.4c-1.7,4.9-4.1,9-9.5,10.5C348.9,175.2,346.8,174.5,346.2,171z"/>
		<path class="st44" d="M210,92c-4.9,11.8-6.3,24.4-8,36.9c-0.7,5.7-2.7,11-4.7,16.3c-0.8,2.3-2.3,4.1-4.5,5.1
			c-3.8,1.8-6.9,0.3-7.8-3.9c-0.3-1.1-0.6-2.2-0.9-3.3c-0.6-3.8,1.1-7.3,1-11c0.3,1.3,0.8,2.6,0.8,3.9c0.1,2.1,0.5,4,2.8,4.7
			c2.3,0.7,4.3-0.1,5.8-1.8c4.3-4.8,5.7-10.8,6.3-17c0.7-7.8,2.1-15.5,5.1-22.8C205,95.4,205.8,92.7,210,92z"/>
		<path class="st45" d="M381,189c2.1-3-0.1-6.9,2-10c2.8,12,0.6,22.6-8.8,31.2c-6.9,6.3-17.3,7.9-24.2,3.8c1-1,2.2-0.5,3.2-0.2
			c4.1,1.1,8.1,0.9,12.1-0.7c-3.9,1.6-8,1.9-12.1,0.7c-1.1-0.3-2.2-0.8-3.2,0.2c-4.4-0.9-6.6-4-9.1-8.7c1.8,1,2.5,1.4,3.1,1.7
			c7.6,5.6,20.2,4.6,25.3-1.2c3.2-3.7,6.2-7.7,8.2-12.4C378.2,191.6,378.6,189.5,381,189z"/>
		<path class="st46" d="M345.2,138c0-3,0-6,0-8.9c1.5-0.5,2.1,0.5,2.7,1.5c0.6,1.1,0.7,2.9,2.6,2.4c1.4-0.4,1.7-1.9,2.1-3.2
			c1.1-3.8,1.2-8,2.3-11.5c2-6.2,0.2-12.5,2.3-18.7c1.8-5.3-0.2-11.1-2.4-16.4c-1.5-3.2-3.5-6.2-5.4-9.2c-1.1-1.1-1.9-2.4-1.7-4.1
			c0.1-0.8,0.3-1.5,0.9-2.1c0.5-0.3,1-0.4,1.5-0.4c5.9,4.8,10.1,10.7,12.3,18c-1.1,2.8-0.1,5.5,0.1,8.2c0.1,8,0.1,16.1-1.1,24
			c-0.8,4.6-1.7,9.1-2,13.8c-0.3,5-3.7,8.8-6.1,12.9c-1,1.7-3,1.9-4.9,1.4c-1.8-0.5-2.6-2-2.8-3.7
			C345.4,140.7,345.7,139.3,345.2,138z"/>
		<path class="st47" d="M356,82c2.3,3.8,3.2,8.2,2.9,12.4c-1,11.8-2.5,23.5-3.8,35.3c-0.1,1-0.4,2-0.8,2.9c-1,2.6-2.1,5.3-5.4,4.8
			c-3.1-0.4-2.7-3.3-2.9-5.5c-0.1-1-0.5-1.9-0.8-2.8c-0.1-0.2-0.2-0.5-0.3-0.7c-0.2-4.2-0.4-8.3-0.6-12.5c1.1-2.5-1-5.2,0.2-7.7
			c3-1.3,3.4,0.9,3.7,2.8c0.5,2.9,1.1,5.9,1.6,10.1c1.4-3.3,2.6-5.6,2.7-8.1c0.1-5.7,1.9-11.1,2.9-16.6c0.6-3.1-0.1-5.9-1.3-8.7
			c-0.1-0.5,0-1,0.1-1.6C354.7,84.8,354.3,82.9,356,82z"/>
		<path class="st48" d="M360,118c0.3-8.3,1.5-16.6,1-25c4.4,3.3,3.5,8.2,3.6,12.7c0,0.6-0.4,1.3-0.5,1.9c-0.8,5.7-0.9,11.5-1.1,17.3
			c-0.2,9.8-2,19.3-5.3,28.6c-0.6,1.6-1.5,3-2.4,4.3c-1.6,2.3-3.5,4-6.5,3.6c-3-0.5-2.8-3.3-3.6-5.4c0-4,0-8,0-12
			c0.2,0,0.4-0.2,0.5-0.1c5.5,4.1,5.6,3.7,9.4-2.3c4.1-6.4,3.8-13.4,4.5-20.3C359.6,120.2,359.1,119,360,118z"/>
		<path class="st49" d="M346.2,171c5,3.1,11.3-0.2,13.6-7c2.1-6.3,3.5-12.8,4.2-19.4c0.4-3.8,1.9-6.6,5.1-8.6
			c1.1,4.7,0.2,9.4,0.5,14.1c-3,8.3-3.7,17.4-10,24.5c-2,2.2-4,3.8-6.8,4.6c-4.9,1.3-5.7,0.9-6.6-4.1
			C346.1,173.7,346.2,172.4,346.2,171z"/>
		<path class="st50" d="M353,198.1c-1.1-1.1-1.8-2.5-2-4c-0.6-5.1,0.2-6.2,4.6-6.5c3.3-0.2,6.5-1.2,9.8,0.2c2.4,1.1,4.3-1.4,6.7-1.3
			c3.2,2.5,2.1,5.7,1.4,8.9c-0.1,0.5-0.3,1.1-0.5,1.5c-3.9,5.3-8.3,6.3-15.3,3.8C356,200,354.6,198.8,353,198.1z"/>
		<path class="st51" d="M345.2,156c3.5,4.8,5,4.9,8.4,0c6.1-8.8,7.8-18.9,8.5-29.3c0.4-6.3-1.1-12.6,1-18.8c1.4,1.4,1.2,3.1,0.9,4.7
			c-0.9,6.1,0.2,12.2-0.9,18.3c0,9.4-2.1,18.4-4.6,27.3c-0.7,2.5-2.4,4.3-4.2,6c-4.5,4.3-5.8,4.1-8.3-1.3
			C344.9,160.7,345,158.4,345.2,156z"/>
		<path class="st52" d="M267.1,103.2c-2.5,8.4-4.6,16.9-5.2,25.6c-0.3,0-0.7-0.1-1-0.1c-1.7-0.4-3.4-0.9-3.2-3.1
			c0.7-10.6-0.7-21.6,4.9-31.4c1.3-3.1,3.4-5.7,5.3-8.4c1-1.5,2.3-3,4.5-2.1c2.4,2.8,0.7,5.4-0.9,7.6C268.9,95,267.6,99,267.1,103.2
			z"/>
		<path class="st53" d="M184.1,153c2.4,6.8,5.7,7.5,11,2.3c2.2-2.1,3.7-4.6,4.6-7.5c3.3-11.2,4.7-22.7,6.2-34.2c0.4-3,0.6-5.9,2-8.6
			c3.3,3.7,1,8,0.8,11.9c-0.7,9.2-2.4,18.4-4.1,27.5c-1.1,6-3.3,11.5-6.4,16.6c-3.8,6.2-9.8,7.2-15.1,3
			C182.6,160.2,183.4,156.6,184.1,153z"/>
		<path class="st54" d="M381,189c-1.9,12-12.9,24-27.7,22c-3.5-0.5-6.9-0.9-9.3-4c6.4,2.6,12.9,4.6,19.7,1.5c2.2-1,5.4-1.7,4.1-5.5
			c-0.5-3.5,4.4-3.6,4.2-6.9l0,0c0.9-1,0.5-2.4,1.3-3.4c0.7-1,1.1-2.3,2.5-2.6c2.1-2.6,0.8-5.8,1.5-8.6c0.4-1.8,0.3-3.9,1.9-6.2
			C382.2,180,380.5,184.7,381,189z"/>
		<path class="st55" d="M369.1,151c0-5-0.1-10-0.1-15c0.1-2.5,0.1-5,0.2-7.5c1.1-1.1,2.3-2.2,3.8-2.3c7.9-0.6,15.8-1.9,23.5,1.1
			c0.2,0.2,0.4,0.5,0.5,0.7c-4.6,2.2-9.5,0.2-14.5,1.4c4.3,8.8,1.7,17.9,1.1,26.8c-0.4,6.6-1.7,13.1-1.6,19.8
			c-2.2-3-2.1-6.2-1.7-9.9c1.2-9.4,2-18.8,1.6-28.2c-0.1-2.4-0.7-4.8-2.8-6.1c-2.2-1.4-5-2.4-7.6-1.2c-2.5,1.1-1.5,3.8-1.6,5.8
			c-0.2,5.6-0.1,11.3-0.2,16.9c-0.5,0.1-0.9,0-1.2-0.4C368.5,152.2,368.4,151.5,369.1,151z"/>
		<path class="st56" d="M256.9,128.8c-0.7,0-1.3,0-2,0c-2.7-0.9-2.8-3.2-2.5-5.3c0.7-6.9,0.8-13.7,1.3-20.6c0.5-7,5.2-12.3,8.8-18.1
			c1.1-1.8,2.5-3.5,3.8-5.2c6.4-7.3,13.8-13.2,22.4-17.7c3,0.2,6.5-1.3,8.6,2.3c0.1,1-0.4,1.6-1.1,2.1c-11.2,1.7-18.6,9.2-25.8,17
			c-7,7.9-12.3,16.4-12,27.5C258.5,116.9,257.8,122.9,256.9,128.8z"/>
		<path class="st57" d="M183.1,172c0-1.3,0-2.7,0.1-4c1.1-0.9,2.3-1.2,3.7-1.2c7.5,0.1,11.3-4.4,13.7-10.7
			c2.8-7.3,3.5-15.1,4.8-22.7c0.3-1.7,0.7-3.2,1.5-4.7c0.8-0.4,1.6-0.4,2.3,0.1c0.7,0.6,1,1.3,1.1,2.2c0.1,3.6,0.4,7.1,0.6,10.7
			c-0.3,1.4-0.6,2.7-0.7,4.1c-0.2,1.1-0.4,2.2-1.1,3.2c-1.9,2.4-2.3,5.4-3,8.3c-1.7,7.3-4.9,13.8-12.2,17
			C189.1,176.6,185.8,175.7,183.1,172z"/>
		<path class="st58" d="M208.9,131.1c0-0.6,0-1.2,0-1.9c0.2-0.3,0.3-0.5,0.5-0.8c2.1-1.6,4.6-1.8,7.1-1.7c6.8,0.3,13.6-1.1,20.3,1.1
			c0.5,0.4,0.9,0.9,1.2,1.5c-4.4,1.6-8.9,0.4-13.3,0.8c-1.6,0.1-2.1,0.1-2.9,2.4c-4.8,13-6.9,26.5-8.6,40.1
			c-0.4,3.3,0.1,7.3-2.1,10.4c-2,0.2-2.1-1.2-2.3-2.6c1.6-9.9,0.9-20.1,2.9-30c0.5-2.8,1-5.5,1.7-8.2c1.6-6.4,1.6-6.4-4.3-8.9
			C208.5,132.5,208.5,131.8,208.9,131.1z"/>
		<path class="st59" d="M211,206c-3.2,6.3-13.6,11.7-21.1,10.9c-8.7-0.9-14.5-6.1-17.5-16.7c7.9,11.8,17.7,14.1,29.5,8.8
			c2.2-0.6,4.2-1.3,5.8-3.1C209,204.4,209.2,204.6,211,206z"/>
		<path class="st60" d="M238,129.2c-0.3-0.1-0.6-0.2-1-0.2c-2.6-5-1.1-9.7,1.1-14.4c4.1-1.4,5.2-5,6.4-8.6
			c1.8-5.3,3.2-10.8,7.6-14.7c1.2-1,2.2-2.6,4.2-1.4c1.6,3.2-1.5,5-2.1,7.6c-2,2.4-2.5,5.1-3,8.2c-1.2,7.9-1.9,16.1-6.3,23.2
			C242.6,129,240.3,129.1,238,129.2z"/>
		<path class="st61" d="M207,129c-1,6.2-2,12.4-3.1,18.6c-0.8,4.4-1.8,8.7-3.8,12.8c-3.5,7.2-9.2,10-17,7.7c0-1.4,0-2.7,0-4.1
			c5.2,0.8,10.1,0.6,13.7-4c2.5-3.2,4-7,4.8-10.8c3.4-14.5,5-29.3,6.3-44.1c0,0,0,0,0,0c0.6-0.3,1.2-0.2,1.7,0.2
			c0.2,0.2,0.6,0.5,0.6,0.8C210.3,113.8,210.3,121.6,207,129z"/>
		<path class="st62" d="M183.1,172c8.9,3,14.9,0.3,18.5-8.6c2-5,3.6-10.2,5.4-15.4c1.4,0.7,2.6,1.6,3,3.2c0.9,5.4,0.2,10.7-1.4,15.9
			c-4,2.5-5.9,7.2-10.4,9.6c-4.2,2.2-8.5,2.4-12.8,2.6c-3.2,0.1-4.4-2.5-2.5-5.6C182.9,173.1,183,172.5,183.1,172z"/>
		<path class="st63" d="M189,202.9c-7.3,0.3-15.9-9.5-14.9-17.1c0.6-4.5,3-8.4,5.7-12c0.7-0.9,1.6-1.3,2.2,0.2
			c0.6,0.5,0.5,1.3,0.4,1.9c-1.1,5.1-2.9,10.2-1.7,15.3c-0.3-2.4-1.1-5.1,2-6.8c0.5-0.1,1-0.1,1.5,0c0.5,0.2,0.9,0.6,1.2,1
			c1.2,3.1,1.9,6.4,3.3,9.4C188.2,197.7,190.7,200.2,189,202.9z"/>
		<path class="st64" d="M369.1,151c0,0.6,0,1.2,0,1.7c0.8,4.4,0.4,8.9,0.3,13.3c-0.1,3.4-2.9,5.5-4.8,7.9
			c-4.4,5.5-9.7,9.8-17.1,10.3c-0.5-0.2-1-0.4-1.4-0.8c-1-1.6-1.4-3.3-1.1-5.2c0.4-1,0.8-2,1.2-3c2.8,3.5,8.1,3,11.7-0.8
			c2.9-3.2,4.4-7,5.2-11C364.1,158.6,365.8,154.4,369.1,151z"/>
		<path class="st65" d="M268,80c-0.9,3.3-3.5,5.7-5.6,8.1c-7.5,8.8-8,19.3-7.7,30c0.1,3.6-1.9,7.2,0.2,10.7c-1.3,0-2.7,0-4,0
			c-3.2-1.3-3.3-4-2.8-6.7c1.1-6.6,3.1-12.9,3.1-19.7c0-2.2,2.2-4,2.8-6.2c2.3-5.1,5.7-9.5,9.2-13.8C264.3,81,265.5,79,268,80z"/>
		<path class="st66" d="M256.9,128.8c-2.1-6.6,0.4-13.2,0.2-19.8c-0.4-11,5.3-19.6,12.8-27.1c1.1,1.2,0.3,2-0.4,2.9
			c-2.2,2.8-4.2,5.7-5.6,9.1c-4.8,9.4-4.3,19.7-5,29.9c-0.1,1.9,0.3,3.6,1.8,4.9C259.5,128.8,258.2,128.8,256.9,128.8z"/>
		<path class="st67" d="M255,96c-3.5,10.7-4.5,21.7-4,32.8c-2,0-4,0-6,0c-1.6-4.3,1-8.1,2.1-11.9c1.3-4.3,2.6-8.5,2.6-13
			c0.1-2.8,1.3-5.1,3.3-7C253.5,96.4,253.8,95.4,255,96z"/>
		<path class="st68" d="M181.9,176.1c0-0.7,0.1-1.4,0.1-2.1c0.3-0.2,0.5-0.3,0.8-0.4c0.3,3,1.5,4,4.9,3.9c6.4-0.1,11.2-2.7,14.8-7.7
			c1.1-1.6,2.6-2.5,4.5-2.8c0.8,0.4,1.2,1.1,1.4,1.9c0,1.6,0.2,3.3-0.1,4.9c-0.6,3.5-2,5.9-6.3,6.2c-4.4,0.3-8.5,2.5-13.1,1.9
			c-1.3-0.2-1.9,1-2.5,2.1c-0.6,1-1.4,1.7-2.7,1.3c-0.2-0.1-0.4-0.2-0.7-0.3C179.3,182.5,182.1,179.1,181.9,176.1z"/>
		<path class="st69" d="M360,118c0.5,10.1,0,20-5.9,28.8c-1.3,2-1.8,5-5.1,4.5c-3.5-0.5-2.7-3.6-3.2-5.9c-0.1-0.5-0.4-0.9-0.6-1.4
			c0-2,0-4,0-6c0.3,0.9,0.7,1.8,0.9,2.8c0.3,1.6,1.1,2.7,2.8,3c1.8,0.2,3.2-0.5,4.2-2c2.6-4.2,5.1-8.4,5-13.7
			C358,124.7,358.6,121.2,360,118z"/>
		<path class="st70" d="M371.8,178c0,1,0.1,2,0.1,3.1c0,5.3-0.4,5.8-5.5,5.6c-4.3-0.1-8.5,1-12.7,1.4c-2,0.2-2.5,2-3.7,3
			c-0.7-1.1-1.3-2.1-2-3.2c-1.9-0.9-2.2-2-0.7-3.5c5.8-0.9,10.7-3.7,15-7.7c2.7-2.5,5.7-2.9,8.9-0.8
			C371.8,176.5,372,177.2,371.8,178z"/>
		<path class="st71" d="M350,191.1c0.1-1.5,0-3.4,1.8-3.7c5-0.8,9.6-4.2,14.7-3.1c3.3,0.7,4.5-0.7,5.4-3.3c0.6,0.9,1.2,1.8,1,3
			c-0.3,1,0.3,2.2-0.8,3c-1.5,4.5-3.8,5.3-8.2,3.1c-6.4-3.1-11.3-1.2-12.8,4C349.9,193.3,350.1,192.1,350,191.1z"/>
		<path class="st2" d="M504,132c-1.2,1.5-2.5,2.3-4.6,2.2c-7.9-0.4-15.9-0.3-23.8-0.8c-3.2-0.2-6.3-1.5-9.5-2.4
			c10.7,0,21.5,0,32.2,0C500.2,131,502.2,130.8,504,132z"/>
		<path class="st72" d="M411.9,127.8c-0.3-0.9-0.6-1.9-0.9-2.8c2-7.3,1-14.7,0.6-22.1c-0.2-2.9-0.6-5.9-0.6-8.9
			c3.1,6.7,3.3,14,3.9,21.2c0.4,4.3,0.8,8.5,2,12.6C415.3,127.8,413.6,127.8,411.9,127.8z"/>
		<path class="st73" d="M211,206c-3.3,0-4.9,5.4-9,3c7.5-6.3,14.4-12.9,14.2-24.7C219.6,190.8,216.9,200.7,211,206z"/>
		<path class="st74" d="M372.1,196c0.9,3.7-2.9,4.6-4.2,6.9c-0.9,0.3-1.9,0.6-2.8,1c-6.7,2.6-9.7,1.2-12.1-5.8
			c2.7-1.3,5.2,0.2,7.6,1C365.2,200.7,369,200,372.1,196z"/>
		<path class="st75" d="M189,202.9c-1-2.3-1.9-4.6-2.9-6.9c1.4-1.8,3.2-1.4,5-0.9c9,2.3,9,2.3,13.8-4.8c0.3-0.4,0.8-0.6,1.3-0.8
			c0.5,0,1,0.2,1.3,0.6c1.5,4.3-1.5,6.9-3.6,9.9l0.1-0.1c-1.3,1.3-2.8,2.4-4.5,3.2c-3.2,1.2-6.3,1.5-9.5-0.1
			C189.7,203,189.4,203,189,202.9z"/>
		<path class="st76" d="M345,178c0.9,1.2,2.1,2.2,1.8,4c-1.6,4.5-0.7,8.8,1.3,12.9c1.1,1.4,2.2,2.8,2.2,4.8
			C341.8,194.6,339.8,186.1,345,178z"/>
		<path class="st77" d="M348.1,194.9c-4.5-4.3-4.9-8.4-1.3-12.9c0.1,0.3,0.2,0.6,0.4,1c0.5,0.6,1.6,0.9,0.7,2c-0.9,1-0.3,2,0.1,3
			C348,190.3,348.1,192.6,348.1,194.9z"/>
		<path class="st78" d="M203.9,200c0.6-3.5,3.7-6.2,3-10c-1.3-0.7-1.6-1.6-0.6-2.8c0.8-0.6,1.7-0.8,2.5-0.1
			C209.4,192.3,209.4,197.2,203.9,200z"/>
		<path class="st79" d="M208.9,187.1c-0.6,0.3-1.3,0.5-1.9,0.8c-2.5-1.8-0.8-4.6-1.5-6.8c0-0.8,0.2-1.4,0.6-2.1
			c0.9-1,2.1-1.2,3.3-0.7c0.6,0.4,1.1,0.9,0.6,1.7c0.3,1,0.6,2,1,3C210.8,184.7,211.8,186.9,208.9,187.1z"/>
		<path class="st80" d="M190.1,203.1c3.4,0.3,6.7,0.3,9.9-1.1c0.4,0.3,1,0.4,1.1,1.1c-1.2,1.1-2.6,1.7-4.3,1.8
			c-1.6-0.5-3.2-0.6-4.8,0C190.9,204.8,190.3,204.1,190.1,203.1z"/>
		<path class="st26" d="M124,492c0.2,0.8,0.8,1.7,0.5,2.3c-0.7,1.4-1.6,0.2-2.3-0.1c-1.1-0.6-2.2-1.4-3.2-2.1
			C120.7,492,122.3,492,124,492z"/>
		<path class="st81" d="M201.1,203.1c-0.4-0.4-0.8-0.7-1.1-1.1c1.2-1,2.4-2,4-2.1C203.6,201.5,202.6,202.5,201.1,203.1z"/>
		<path class="st82" d="M192.1,204.9c1.6-1,3.2-1,4.8,0C195.3,204.9,193.7,204.9,192.1,204.9z"/>
		<path class="st26" d="M227,539c7.7,0.6,15.4-1.2,23,1C242.3,539.4,234.6,541.2,227,539z"/>
		<path class="st1" d="M444,538c0.5-5.7-1.1-11.4,1-17c-0.5,6.7,1.1,13.4-1,20C444,540,444,539,444,538z"/>
		<path class="st54" d="M524,538c-9.7-0.4-19.3,1.7-29,1c-4.2,0.8-7.1-2.3-10.7-3.5c-6.1-2.1-12.6-2.9-18.7-5.3
			c-3.5-1.4-3.7-3-1.8-6c6.8-10.5,6.8-10.6,18.1-6c11.7,4.8,23.3,9.7,34.9,14.8C519.5,534.2,522.7,534.8,524,538z"/>
		<path class="st83" d="M239,58c8.3-5.5,17.9-7.3,27.5-7.8c13-0.6,26.1-0.8,39,3.4c10,3.3,18.6,8.5,27.1,14.3
			c2.3,1.5,4.9,5.4,7.5,2.8c2.5-2.5,0-6.2-1.7-9.1c-1.4-2.3-2.9-4.4-4.4-6.6c0.3-0.4,0.8-0.6,1.3-0.8c1.7-0.1,2.7,1.1,3.8,2.1
			c0.3,0.4,0.6,0.8,0.9,1.3c6.3,8.4,11.8,17.1,12.6,28.1c0.2,3.1-0.4,5.4-3.4,6.2c-3.3,1-5.4-0.9-6.9-3.6c-2.5-4.5-5.6-8.6-9.5-12
			c-17.1-20.2-39.7-25-64.7-23.2c-8.2,0.6-16.1,2.4-23.7,5.4C242.7,59.1,240.6,60.3,239,58z"/>
		<path class="st84" d="M239,58c4-0.4,7.6-2.5,11.4-3.5c25.6-6.2,50.3-5.5,73,10c4.2,2.9,7.1,6.9,10.6,10.4c2.5,2.8,3.9,6.3,6.2,9.3
			c1.1,1.3,1.2,2.6,0,3.9c-2.3,0.7-2.8-1.1-3.6-2.5c-12.2-21.5-31.3-30.6-55.4-31.3c-10.8-0.3-21.3,0.6-31.7,3.7
			c-13.4,4.1-24.3,11.9-33.2,22.6c-1.4,1.7-2.2,4.4-5.4,3.3c0.7-3.5,4.1-5.6,5-9c1-1.3,2-2.7,3-4C225,65.6,231.6,61.2,239,58z"/>
		<path class="st85" d="M335,55c-0.3,0-0.7,0-1,0c-1-1-2-2-3-3c5.2-2.5,10.5-0.3,15.5,0.6c6.9,1.2,13.7,3.6,20.5,5.4
			c3.7,1.5,7.3,3.1,11,4.4c2.1,0.7,4.6,1.4,6-1.4c1.6,1,3,2.1,3.6,4c0.5,1.6,0.7,3.3-0.5,4.7c-1.4,1.7-3,0.6-4.5,0.1
			c-2.9-1.1-5.2-3.7-8.6-3.8c-3,0.5-5.7-0.7-8.3-2C356,59.2,345.5,57,335,55z"/>
		<path class="st86" d="M316,51c1.1,0,2.4,0.8,3.2-0.4c0.8-1.2-0.3-2.1-1-3c-0.7-0.9-1.4-1.8-2.1-2.7c2.3,1,4.7,2,7,3
			c1,0.7,2,1.3,3,2c1.2,1.4,2.4,2.7,3.6,4.1c0.9,1.1,2.6,2.1,1.3,3.8c-1,1.4-2.7,1.2-4.1,0.8c-4.4-1.4-9-2.6-13.2-4.5
			c-8.5-3.9-17.5-5.4-26.5-6.1C271.4,46.9,256,48.9,241,54c5.3-4.2,11.9-5,18.2-5.8c17.9-2.2,35.8-2.4,53.4,2.4
			C313.6,50.9,314.8,50.9,316,51z"/>
		<path class="st87" d="M211,84c5.8-4.1,9.2-10.3,14.8-14.8c9.9-7.9,21.1-12.6,33.4-14.7c15.6-2.7,31-2.2,46.3,2.9
			c13.1,4.4,22.6,12.9,30,24.1c1.5,2.2,2.2,4.9,4.6,6.5c2.5,0.2,3.1,2.5,4.3,4c0.7,1.4,1.2,2.9,1.7,4.3c0.2,0.5,0.3,1.1,0.3,1.6
			c-0.1,1.9-0.2,3.9,0.2,5.8c0.4,1.8,0.1,3.2-1.6,4.2c-0.2,2.7,0.5,5.4-0.8,8c-0.7-3.2-1.5-6.4-1.3-9.8c0.3-2.4-0.2-4.6-1-6.9
			c-9.1-25.5-30.2-43.3-59-43.5c-12.4-0.1-24.5,0.1-36.3,4.5c-16.2,6-27.8,17.3-36.7,31.7c-2.8,1.5-3.3,4.3-4,7
			c-0.7-0.3-1.3-0.7-2-1c0-2.7,1.6-4.6,3.2-6.5c1.3-1.6,1.9-3.4,1.8-5.5C209.7,85.3,210.3,84.7,211,84z"/>
		<path class="st88" d="M338,57.9c0-0.3,0-0.6,0-0.9c0.1-2.3,1.6-1.4,2.8-1.2c14,1.7,26.3,7.2,37.8,15.2c5.7,4,11,8.6,16.6,12.6
			c4.1,2.9,4,3,6.3-1.3c0.3-0.6,0.9-0.9,1.5-1.3c6,6.3,4.6,14.4,5,22c-4.8,3.5-5.9,3.3-8.7-2.6c-7.2-14.6-18.9-24.8-32.5-33.2
			c-1.1-0.7-2.5-0.8-3.7-1.2c-3.3,1.2-6-0.6-8.9-1.6c-3.6-1.3-7-3-10.9-2.5C341,61.2,339.9,59,338,57.9z"/>
		<path class="st24" d="M403,81c-0.5,2.8,2.5,6.3-1,8.3c-3.7,2.2-5.5-1.8-7.9-3.5c-8.5-6-15.3-14.2-24.7-19.1
			c-9.9-5.3-19.9-9.9-31.5-9.7c-1-0.7-2-1.3-3-2c1.5-1,3.1-1,4.8-0.7c12.1,2,23.4,6.1,34.2,11.8c4.9,4.2,10.3,7.6,16.1,10.4
			c4.5,2.2,6.4,0.8,6.9-4.4C399,75,401,78,403,81z"/>
		<path class="st25" d="M200.2,512c-0.3,0.1-0.5,0.2-0.8,0.3c-0.1-0.3-0.2-0.5-0.2-0.8c0,0,0.3-0.2,0.4-0.1
			C199.9,511.6,200,511.8,200.2,512z"/>
		<path class="st89" d="M297,64.9c-2.9-1.6-6-0.7-9-1c-1.7,1-3.6,0.3-5.4,0.5c-3.5,0.1-6.9-0.1-10.3,0.9c-2.8-0.2-5.2,1-7.6,2.1
			c-5.6-0.7-10,2.6-14.9,4.5c-3.7,1.4-7.1,3.6-10.8,5c-0.9,0.3-2,0.1-2.9,0.4c-2.2,0.8-4.7,1.6-6-1c-1.4-2.7,1.3-3.9,3-5.4
			c8.4-7.4,18.7-9.9,29.3-12c6.3-1.3,12.4-0.7,18.7,0c3-0.8,6-0.8,9,0c13.7,2.6,26.8,6.4,36.6,17.2c2.7,2.9,5.2,6,6.4,9.9
			c-7.5-8.8-16-16.3-27.7-19C302.5,66.4,298.9,68.8,297,64.9z"/>
		<path class="st90" d="M297,64.9c2.9,0.2,5.7,0.6,8.3,2.2c-18.2,6.3-30.6,18.6-38.2,36.1c-1-4.1-0.5-7.9,2.2-11.3
			c1.8-2.3,1.9-5.3,2.7-8c-0.3-4.1,3-6.1,5.4-8.2c5.2-4.6,10.8-8.7,17.6-10.8C295.7,65,296.3,65,297,64.9z"/>
		<path class="st91" d="M233,71c-0.5,1.6-3.3,3-1.5,4.6c2.4,2.1,4.4-1.1,6.7-1.5c1.6,2.5,0.1,3.9-1.6,5.5c-4.2,3.8-8.1,7.8-11.9,12
			c-8.2,9.1-10.8,20.2-12.2,31.9c-0.3,2.5-1.1,4.4-3.2,5.8c0,0-0.4,0.1-0.4,0.1c-0.6-0.1-1.3-0.1-1.9-0.2c0.2-8,2.3-15.9,2-24
			c-0.5-3.7,0.5-7,2.5-10.1c3.8-5.9,7.7-11.8,12.5-16.9C227.4,76.1,229,72,233,71z"/>
		<path class="st53" d="M224,78c-2.8,4.1-5.6,8.2-8.5,12.2c-3.3,4.5-5.9,9.2-6.5,14.8c-0.3,0-0.7,0-1,0
			C208.9,93.4,216.1,85.5,224,78z"/>
		<path class="st91" d="M290,59c-3,0-6,0-9,0C284,57.5,287,57.5,290,59z"/>
		<path class="st92" d="M347.9,185c-0.2-0.7-0.5-1.3-0.7-2c7-1.2,11.1-6.2,16.1-10.8c6.3-5.8,5.7-12.5,5.9-19.5
			c0.2,0.2,0.5,0.4,0.7,0.6c0,5-0.5,10,1,14.9c1.6,0.9,1.5,2.7,2,4.1c0.7,1.6,0.3,3.1-0.3,4.5c-0.4,0.4-0.8,0.5-1.4,0.2
			c-4.3-1.2-7.5,0.9-10.8,3.3C356.7,183.1,352.9,185.7,347.9,185z"/>
		<path class="st93" d="M371.1,173.1c-0.1-1.6-0.1-3.3-0.2-4.9c5.4,1.6,3.6,6.2,4.1,9.8c-1.6,0.7-1.7-0.8-2.3-1.5
			C371.8,175.5,371.7,174.2,371.1,173.1z"/>
		<path class="st74" d="M372,187c0.3-1,0.6-2,0.8-3c0.9,1.2,1.2,2.5,1.1,4c0.9,1.7,0.8,3.3,0,5c-0.9,0.8-0.2,2.8-2,3
			C371.6,193,374,190,372,187z"/>
		<path class="st94" d="M373.1,176c0.6,0.7,1.3,1.4,1.9,2c0,0.7,0.1,1.3,0.1,2c0.3,1-0.1,1.3-1,1c-0.3-1.3-1-2.4-2.3-2.9
			c-0.2-0.3-0.4-0.6-0.7-0.9c0.2-0.1,0.5-0.1,0.7-0.2C372.2,176.5,372.4,176,373.1,176z"/>
		<path class="st95" d="M374.1,180.9c0.3-0.3,0.7-0.7,1-1c0.8,1.3,1.2,2.7,0.4,4.9C374.9,183.2,374.5,182.1,374.1,180.9z"/>
		<path class="st96" d="M374,193c0-1.7,0-3.3,0-5c0.6,0.7,1.2,1.3,1.8,2C375.3,191.1,375.2,192.3,374,193z"/>
		<path class="st0" d="M396.5,127.3c-3.5,2.1-7.4,0.8-11,1c-5.4,0.3-10.8,0.2-16.2,0.2c-0.3-6.5-0.4-13.1-1.5-19.6
			c-1.6-2.3-2.8-4.8-3.1-7.7c-0.8-5.6-2.8-10.9-4.5-16.2c-2.4-6.2-6.5-11.4-10.4-16.7c1.6-2.7,3.8-1.3,5.7-0.6
			c11.2,4.1,20.1,11.5,27.9,20.2c3,3.3,5.9,6.8,8,10.8c2.1,5.1,3,10.4,3.7,15.8C395.4,118.8,395.9,123,396.5,127.3z"/>
		<path class="st97" d="M394.9,114.5c-1.6-5-2.6-10.3-5-15.1c-8.3-15.4-20.2-26.8-37-32.6c-2.8-1-5.5-2.3-8.4-2.8
			c-0.7-0.9-2-1.5-1.5-3c1.6-1.3,3.4-1.1,5.2-0.5c5,1.8,9.9,3.6,14.9,5.4c8.2,6,16.1,12.1,22.7,19.9
			C392.9,94.4,394.7,104.1,394.9,114.5z"/>
		<path class="st98" d="M360,85c4.7,7.3,6.7,15.4,7.7,23.9c-3.6-2.2-2.4,1-2.6,2.4c-1.1,6.5-0.3,13.2-2,19.7c0-7.7,0-15.3,0-23
			c0-5.1-0.6-10.1-2-15C360.3,90.4,359.8,87.8,360,85z"/>
		<path class="st99" d="M350,214c-0.4-1.7,0.6-1.6,1.7-1.3c4.9,1.5,9.7,1.2,14.6-0.1C361.1,216.2,355.5,214.9,350,214
			C350,214,350,214,350,214z"/>
		<path class="st100" d="M342.9,61c0.7,0.7,1.3,1.3,2,2c1.3,0.6,2.7,1,3.3,2.4c0.4,1.5-0.7,3.2,0.7,4.6c0.2,1.3,0.9,2.3,2,3
			c1.6,4.7,4,9.1,5,14l0,0c2,5.8-1.1,10.9-2.1,16.3c-0.3,1.8-1.9,2.6-3.7,2.7c-1.6,0.1-2.9-0.7-3.6-2.2c-1-2.2-2.1-4.4-2.6-6.8l0,0
			c-1.1-1.1-1.3-2.7-2-4c-0.7-1.7-1.3-3.3-2-5c-0.7-4.9-4.9-8.3-6-13c4.5,3.1,6.4,8.4,10.1,12.2c1.4,1.4,2.5,3.5,4.8,2.7
			c2.3-0.8,2.2-3.2,2.1-5.2c-0.5-9-5.2-16.3-10.1-23.4c-0.8-1.2-1.9-2.3-2.8-3.5C340.1,58.3,341.3,60,342.9,61z"/>
		<path class="st101" d="M347,66c-0.7-1-1.4-2-2-3c9.4,0.7,17.3,5.3,24.6,10.8c7.7,5.7,13.8,12.9,18.7,21c0.8,1.4,1.1,3.1,1.6,4.7
			c-6.4-9.1-13.2-17.8-22.8-23.9c-5.4-3.5-11-6.5-17.5-7.2c-0.2,0.1-0.4,0.2-0.6,0.2C347.3,68.5,347.8,66.8,347,66z"/>
		<path class="st102" d="M356,87c-3-4.2-4.3-9-5-14c1.7,3,3.3,6,5,9C356,83.7,356,85.3,356,87z"/>
		<path class="st102" d="M347,66c0.7,0.8,1.4,1.6,2,2.4c0,0.5,0,1,0,1.5C347.5,69.1,347,67.7,347,66z"/>
		<path class="st102" d="M344,97c2,2.5,2.8,7.3,6.2,7c3.5-0.4,3.3-5.2,4.4-8.2c1.1-2.9,1-5.8,1.4-8.8c3.7,5.3,0.2,10.7-0.2,15.9
			c-0.4,6.1-0.6,12.3-2.9,18.1c-0.4,1.1-0.7,2.2-1.2,3.2c-0.6,1.2-1.5,2.4-3.1,2.1c-1.8-0.3-1.6-1.9-1.6-3.2
			c-0.1-5.1-0.6-10.2-2-15.2C344.7,104.3,344.3,100.7,344,97z"/>
		<path class="st103" d="M295,65c-3.9,2.5-7.8,4.9-11.7,7.4c-4.6,3-8.3,6.9-11.3,11.5c-3.7,2.5-4.9,7-8,10c0-5,4.7-7.7,6-12
			c4.7-6,10.5-10.8,17.1-14.7C289.5,65.8,292.1,65,295,65z"/>
		<path class="st104" d="M283,63c1.7,0.3,3.3,0.6,5,1c-7.2,4.6-14.5,9.2-20,16c-5.4,4.4-9.1,10.3-13,16c-0.7,0.3-1.3,0.7-2,1
			c1-2.3,2-4.7,3-7c-1-1.5,0.1-2.4,0.8-3.5C263.8,76.7,272.5,68.9,283,63z"/>
		<path class="st2" d="M210,180c-0.3-0.3-0.6-0.7-0.9-1c-0.9-0.7-2.2-1-2.6-2.4c0.5-2.6,1.7-5.1,0.6-7.9c0-0.6,0-1.1-0.1-1.7
			c0.3-5.4,1.3-10.7,0.8-16.1c-0.4-1.6-0.6-3.3,0.1-4.9c0-1.3,0.1-2.5,0.1-3.8c1.4-2.9-0.7-6.3,1.2-9.2c1.3-0.3,2.5-0.8,3.8-0.9
			c5.4-0.4,6.1,0.5,4.2,5.4c-3.6,9.3-3.9,19.2-5.2,28.8C211.4,170.9,211.5,175.5,210,180z"/>
		<path class="st91" d="M209.2,133c-0.6,3,0.2,6.3-1.2,9.2c0.2-3.7-0.8-7.5,0.8-11.2C209,131.7,209.1,132.4,209.2,133z"/>
		<path class="st91" d="M207.9,146c0,1.6-0.1,3.3-0.1,4.9c-0.3-1-0.6-2-0.8-2.9C207.3,147.3,207.6,146.7,207.9,146z"/>
		<path class="st0" d="M209.2,129.1c0.7-4.9,1.3-9.9,2.1-14.8c2.3-15.8,12.3-26.8,23.8-36.7c1.2-1,3.1-1.5,3.1-3.6
			c2.5,0.2,4.3-1.5,6.3-2.5c6.1-3.1,12.4-5.4,19.2-6.4c1.8,2.6-0.3,3.8-1.9,5.3c-3.3,2.9-5.8,6.3-7.2,10.4c-1.9,3.7-5,6.8-6.3,10.9
			c-1.7,3.5-3,7.2-3,11.2c-1.5,2.4-1.8,5.3-2.8,7.9c-0.6,1.5-0.6,3.4-2.6,3.8c-0.9,4.8-1.8,9.5-2.8,14.3
			C227.8,129,218.5,129.1,209.2,129.1z"/>
		<path class="st105" d="M239.8,114.7c0.2-4.4,1.2-8.7,2.9-12.8c5.2-10,12.7-18.2,20-26.5c3-3.4,7.6-4.7,9.9-8.7
			c-0.1-0.3-0.1-0.7-0.1-1c-0.3-0.5-0.5-1.1-0.6-1.7c3.6-1.8,7.4-0.6,11-0.9c-0.3,3.2-3.3,4-5.3,5.3C268.9,74,262.1,81.7,256,90
			c-4.7,3.1-6.9,7.8-8.2,13c-1,4-1.9,8.1-4.8,11.3C242.2,115.2,241.2,117.4,239.8,114.7z"/>
		<path class="st106" d="M207,181c1.7,2.3,0,4.6-0.1,6.9c-1.1,0.7,0.3,1.4-0.1,2.1c-0.3,0-0.6,0-0.9,0c-3.2,6.7-5.9,7.5-12.3,3.3
			c-1.1-0.7-2.2-1.6-3.5-1.7c-3.4-0.4-5.2-2.5-6.1-5.6c-0.2-0.2-0.3-0.5-0.3-0.8c0.4-0.7,0.9-1.5,1.3-2.2c4.4-2.4,9.4-1.2,14-1.7
			C201.5,181.1,204.4,180.8,207,181z"/>
		<path class="st107" d="M184,186c1.4,1.7,2.9,3.1,5.3,3c2.3-0.1,4.1,1,5.8,2.3c4.9,3.6,6.4,3.3,10.8-1.3
			c-1.9,9.1-5.6,11.1-14.2,7.9c-1.9-0.7-3.8-1.3-5.7-1.9C185.4,192.7,184.7,189.3,184,186z"/>
		<path class="st108" d="M181.9,176.1c1.3,2.8,1.1,5.9,1.2,8.9c-0.9,3.7-1.3,7.5,0,11.6C176.9,191.1,176.7,184,181.9,176.1z"/>
		<path class="st109" d="M207,181c-1.2,4.4-3.2,6.1-7.5,2.7c-2.1-1.7-4.8,0.3-7.2,0.2c-2.5-0.1-5,0-7.3-0.9c0.4-1.6,1.3-2.9,3-2.8
			c4.6,0.1,8.8-2.2,13-2.5c5.4-0.5,5.7-3.2,6-7c0.1-0.7,0.1-1.3,0.1-2c1.3,2.7,0.3,5.5,0.1,8.3c0.4,0.7,0.5,1.3,0.1,2
			C207.2,179.7,207.1,180.3,207,181z"/>
		<path class="st110" d="M207.3,179c0-0.7,0-1.4-0.1-2c1,0.3,1.6,1,1.9,2C208.6,180.7,207.9,179.3,207.3,179z"/>
		<path class="st47" d="M342,93c1.1,1.1,1.7,2.5,2,4C342.5,96.1,342,94.7,342,93z"/>
		<path class="st111" d="M272,64c1,0.3,2,0.7,3,1c-5.4,4.4-11.9,7.6-16.1,13.4c-0.9,1.2-2.5,2.2-4,2.8c-1,0.4-2.4,0.5-1.9-1.5
			c2.4-5.8,7.2-9.7,10.8-14.6C266.4,64.3,269.1,63.9,272,64z"/>
		<path class="st112" d="M373.1,176c-0.4,0.3-0.8,0.6-1.2,0.9c-0.9-1.2-1.3-2.4-0.8-3.8C371.7,174,372.4,175,373.1,176z"/>
		<path class="st113" d="M252.9,79.7c2.9,0.3,4.5-1.8,5.9-3.6c3.3-4.3,8.2-6.5,12-10.1c1.1-1.1,2.7-1,4.2-1c0,0,0,0,0,0
			c-0.7,4.8-5.3,6-8.2,8.4c-5.1,4.1-9.2,9.1-13.2,14.1c-1.4,1.7-2.8,3.3-4.3,4.8c-1.9,1.8-2.9,1.1-2.3-1.5
			C248.1,86.7,250.3,83.1,252.9,79.7z"/>
		<path class="st114" d="M246.9,90.8c1.9,2.5,2.8-0.1,3.6-0.9c2.6-3,4.8-6.3,7.4-9.2c3.8-4.4,8.5-7.8,13-11.4
			c1.5-1.2,2.7-2.8,4.1-4.3c1,0.2,3.6-1,1.6,1.6c-1.2,1.5-3,2.6-4.6,3.8c-9.7,7-17.4,15.7-23.7,25.9c-1.4,2.2-3.7,3.7-5.6,5.6
			C243.6,98,244.8,94.2,246.9,90.8z"/>
	</g>
</g>
</svg>
