<?xml version="1.0" encoding="utf-8"?>
<!-- Generator: Adobe Illustrator 22.0.0, SVG Export Plug-In . SVG Version: 6.00 Build 0)  -->
<svg version="1.1" id="Layer_1" xmlns="http://www.w3.org/2000/svg" xmlns:xlink="http://www.w3.org/1999/xlink" x="0px" y="0px"
	 viewBox="0 0 242.5 228" style="enable-background:new 0 0 242.5 228;" xml:space="preserve">
<style type="text/css">
	.st0{fill:transparent;}
	.st1{fill:#BB7879;}
	.st2{fill:#535C46;}
	.st3{fill:#FDFDFD;}
	.st4{fill:#BB7778;}
</style>
<g>
	<g>
		<path class="st0" d="M126.4,1c39.8,0,79.7,0,119.5-0.1c3,0,3.6,0.6,3.6,3.6c-0.1,73-0.1,146,0,219c0,3-0.6,3.6-3.6,3.6
			c-79.7-0.1-159.3-0.1-239,0c-3,0-3.6-0.6-3.6-3.6c0.1-73,0.1-146,0-219c0-3,0.6-3.6,3.6-3.6C46.7,1,86.5,1,126.4,1z"/>
		<path class="st1" d="M88.2,195.9C84.6,160,81,124.2,77.4,88.4c-0.5-4.8-0.8-9.6-1.2-14.4c-0.1-1.6,0.1-3.2-2.2-3.9
			c-10.2-3.4-11-5.9-4.8-14c1.7-1.9,3.9-1.6,6.1-1.6c32.6,0,65.3-0.1,97.9,0c6.3,0,7.1,0.8,6.7,6.9c-1.5,19.6-3.7,39.1-5.5,58.6
			c-0.2,1.7-0.5,3.3-0.3,5c0.5,3.2,1.9,5.8,5.5,6.1c3.8,0.3,5.4-2.1,5.9-5.4c1.6-9.5,2.3-19.2,3.1-28.8c1-11.8,2.5-23.5,3.4-35.3
			c0.5-6.6,3.9-8.3,12-6.7c1.3,1.6,3.1,0.9,4.7,1c2.8,0.1,5.7-0.3,8.5,0.2c3.7,0.6,6.7,2.4,6.9,6.7c0.2,4.3-2.7,6.7-6.3,7.1
			c-3.8,0.4-4.5,2-4.8,5.3c-1.4,16.2-2.9,32.4-4.5,48.6c-1.8,18.3-3.9,36.6-5.7,55c-0.5,5.3-1,10.6-1.2,15.9
			c-0.5,14.5-8.7,23.3-23.5,23c-23-0.5-46-0.1-68.9-0.1c-6,0-11.6-1.3-15.6-6.3c2-2,4.7-1.5,7.1-1.5c17-0.1,34,0,50.9,0
			c17.5,0,28.1-9.9,29.4-27.3c0.4-5.3,1.1-10.6,1.6-15.9c0.1-1.2,0.3-2.3,0.3-3.5c-0.2-3.5-1.5-6.4-5.3-6.8
			c-3.9-0.4-5.7,2.1-6.4,5.6c-1.1,5.9-1.7,11.9-2.1,17.8c-1.1,13.5-5.7,17.9-19.3,17.9c-18.1,0-36.3,0-54.4,0
			C92.8,197.4,90.2,198,88.2,195.9z"/>
		<path class="st2" d="M204,54.9c-1.3,0.4-2.6,1.2-3.8,1c-6.3-1.1-6.5,2.9-6.9,7.4c-1.5,16.4-3.2,32.7-4.8,49
			c-0.4,4.5-0.7,8.9-1.2,13.4c-0.6,5.2-3.3,7.7-8.1,7.4c-4.1-0.3-7.1-3.5-6.8-8.3c0.9-11.7,2.1-23.5,3.2-35.2
			c1-10.4,2-20.8,3.1-31.2c0.4-3.5-2.1-2.3-3.6-2.3c-10.3-0.1-20.7-0.1-31,0c-25,0-50,0.1-75,0.1c-11-0.1-22-0.1-33-0.2
			c-3.6,0-6.4-1.2-8.1-4.7c-1.4-2.9-0.5-5.3,1.3-7.4c1.9-2.3,4.8-2.7,7.7-2.7c14,0.1,28,0,42,0.1c2.7,0,3.8-0.5,4.6-3.5
			c3.6-13.2,12.2-22.1,25.5-25.2c13.5-3.1,25.3,0.6,34.4,11.4c0.7,0.9,1.7,1.5,2.6,2.3c3.5,1.8,4.6,5.3,5.4,8.6c1,4.1,3.3,5,7.2,5
			c4.6,0,9.3-1.2,13.7,1.2c8.1,0.1,16.3,0.2,24.4,0.2c3.8,0,7.2,0.5,9.3,4.4C208.4,49.4,206.1,52.1,204,54.9z"/>
		<path class="st2" d="M88.2,195.9c22,0,44,0.2,66,0.1c7.9,0,12.3-4.9,13.1-13.5c0.7-6.9,1.4-13.9,2.1-20.8c0.5-4.6,3.6-7.7,7.7-7.6
			c4.2,0.1,7.6,3.5,7.2,8.5c-0.8,9.4-1.5,18.9-3.4,28.1c-2.5,11.9-13.9,20.3-26.5,20.3c-20.3,0.1-40.6,0.1-61,0.1
			c-5.3-0.6-10.6,0.2-15.9-0.7c-13.7-2.4-22.4-11-23.9-24.8c-2.6-24.8-4.8-49.6-7.2-74.5c-0.8-8.1-1.5-16.2-2.4-24.3
			c-0.6-5.4,1.7-9.3,6-9.7c4.8-0.5,7.9,2.7,8.4,8.3c3.1,31.9,6.1,63.9,9.3,95.8c1.2,12,5,15.1,17.1,15
			C85.9,196.1,87,195.9,88.2,195.9z"/>
		<path class="st1" d="M172.6,40.8c-5.8,0.1-11.6,0-17.4,0.2c-2.3,0.1-3.6-0.4-3.9-3.1c-0.5-4.3-2.9-8-4.9-11.8
			C157.4,27,166.3,31.5,172.6,40.8z"/>
		<path class="st3" d="M117.2,40.9c-5.6,0.1-11.2,0.2-16.8,0.4c-1.6,0-2.7-0.4-2-2.3c2.4-6.5,6.9-10.9,13.6-12.6
			c6.1-1.5,12.1-1.4,17,3.5c0.2,0.2,0.2,0.6,0.2,1C125.5,34.5,121.9,38.3,117.2,40.9z"/>
		<path class="st4" d="M117.2,40.9c3.3-4.2,6.6-8.4,12-10.1c0.3,0.1,0.6,0.2,0.9,0.4c2.8,2.3,6.5,5.4,5.5,8.7
			c-0.8,2.7-5.5,0.8-8.5,1C123.8,41.2,120.5,40.9,117.2,40.9z"/>
	</g>
</g>
</svg>
